<?xml version="1.0" encoding="UTF-8"?>
<svg width="106px" height="79px" viewBox="0 0 106 79" version="1.1" xmlns="http://www.w3.org/2000/svg" xmlns:xlink="http://www.w3.org/1999/xlink">
    <title>Hete lucht</title>
    <g id="Styleguide" stroke="none" stroke-width="1" fill="none" fill-rule="evenodd">
        <g id="Styles" transform="translate(-393.000000, -2852.000000)">
            <g id="air-conditioning-icon" transform="translate(395.000000, 2854.000000)">
                <path d="M85.6474756,43.9964158 L17.0752879,43.9964158 C17.0752879,43.9964158 17.0752879,42.8315412 17.0752879,41.3082437 L17.0752879,35.8422939 C17.0752879,34.4086022 18.2497786,33.1541219 19.785651,33.1541219 L82.9371125,33.1541219 C84.3826395,33.1541219 85.6474756,34.3189964 85.6474756,35.8422939 L85.6474756,41.3082437 C85.6474756,42.8315412 85.6474756,43.9964158 85.6474756,43.9964158 Z" id="Path" fill="#2CA982" fill-rule="nonzero"></path>
                <line x1="8.13108946" y1="8.5125448" x2="93.959256" y2="8.5125448" id="Path" stroke="#394553" stroke-width="2.7" stroke-linecap="round" stroke-linejoin="round"></line>
                <line x1="8.13108946" y1="16.3978495" x2="93.959256" y2="16.3978495" id="Path" stroke="#394553" stroke-width="2.7" stroke-linecap="round" stroke-linejoin="round"></line>
                <g id="Group" transform="translate(18.968554, 54.121864)" stroke="#394553" stroke-linecap="round" stroke-linejoin="round" stroke-width="2.7">
                    <path d="M1.15367789,0 L2.59920491,6.54121864 C2.87024123,7.88530466 2.32816859,9.31899642 1.33436877,9.76702509 C0.340568949,10.2150538 -0.201503682,11.6487455 0.0695326337,12.9032258 L2.05713228,20.8781362" id="Path"></path>
                    <path d="M13.531003,0 L14.8861845,6.54121864 C15.1572209,7.88530466 14.6151482,9.31899642 13.6213484,9.76702509 C12.6275486,10.2150538 12.0854759,11.6487455 12.3565123,12.9032258 L14.3441119,20.8781362" id="Path"></path>
                    <path d="M25.908328,0 L27.353855,6.54121864 C27.6248914,7.88530466 27.0828187,9.31899642 26.0890189,9.76702509 C25.0952191,10.2150538 24.5531465,11.6487455 24.8241828,12.9032258 L26.8117824,20.8781362" id="Path"></path>
                </g>
                <g id="Group-Copy" transform="translate(56.968554, 54.121864)" stroke="#394553" stroke-linecap="round" stroke-linejoin="round" stroke-width="2.7">
                    <path d="M1.15367789,0 L2.59920491,6.54121864 C2.87024123,7.88530466 2.32816859,9.31899642 1.33436877,9.76702509 C0.340568949,10.2150538 -0.201503682,11.6487455 0.0695326337,12.9032258 L2.05713228,20.8781362" id="Path"></path>
                    <path d="M13.531003,0 L14.8861845,6.54121864 C15.1572209,7.88530466 14.6151482,9.31899642 13.6213484,9.76702509 C12.6275486,10.2150538 12.0854759,11.6487455 12.3565123,12.9032258 L14.3441119,20.8781362" id="Path"></path>
                    <path d="M25.908328,0 L27.353855,6.54121864 C27.6248914,7.88530466 27.0828187,9.31899642 26.0890189,9.76702509 C25.0952191,10.2150538 24.5531465,11.6487455 24.8241828,12.9032258 L26.8117824,20.8781362" id="Path"></path>
                </g>
                <line x1="16.4428698" y1="44.3548387" x2="85.6474756" y2="44.3548387" id="Path" stroke="#394553" stroke-width="2.7" stroke-linecap="round" stroke-linejoin="round"></line>
                <ellipse id="Oval" stroke="#394553" stroke-width="2.7" stroke-linecap="round" stroke-linejoin="round" cx="90.7068202" cy="25.8064516" rx="2.62001771" ry="2.59856631"></ellipse>
                <path d="M19.3339238,33.1541219 C17.7077059,33.1541219 16.4428698,34.4086022 16.4428698,36.0215054 L16.4428698,44.3548387 L4.6979628,44.3548387 C2.52967228,44.3548387 0,41.7562724 0,38.6200717 L0,5.73476703 C0,2.59856631 2.62001771,0 5.78210806,0 L96.2178919,0 C99.3799823,0 102,2.59856631 102,5.73476703 L102,38.6200717 C102,41.7562724 99.3799823,44.3548387 97.3020372,44.3548387 L85.5571302,44.3548387 L85.5571302,36.0215054 C85.5571302,34.4086022 84.2922941,33.1541219 82.6660762,33.1541219 L19.3339238,33.1541219 Z" id="Path" stroke="#394553" stroke-width="2.7" stroke-linecap="round" stroke-linejoin="round"></path>
            </g>
        </g>
    </g>
</svg>