<?xml version="1.0" encoding="UTF-8"?>
<svg width="9px" height="10px" viewBox="0 0 9 10" version="1.1" xmlns="http://www.w3.org/2000/svg" xmlns:xlink="http://www.w3.org/1999/xlink">
    <title>Arrow right</title>
    <g id="Gebruikersvragen" stroke="none" stroke-width="1" fill="none" fill-rule="evenodd">
        <g id="Gebruik---Thermostaat" transform="translate(-649.000000, -788.000000)" fill="#622181">
            <g id="Buttons" transform="translate(405.000000, 770.000000)">
                <g id="Volgende" transform="translate(139.000000, 0.000000)">
                    <path d="M113.725995,23.3388075 C113.810308,23.2684669 113.873536,23.177022 113.91569,23.064478 C113.957844,22.9519341 113.978924,22.8323571 113.978924,22.7057471 C113.978924,22.5791319 113.957844,22.463074 113.91569,22.3575631 C113.873536,22.2520522 113.810308,22.1570934 113.725995,22.0726867 L109.911005,18.2532252 C109.826697,18.1828846 109.73185,18.1230961 109.626462,18.0738597 C109.521075,18.0246182 109.405153,18 109.278691,18 C109.025762,18 108.811478,18.0879258 108.635832,18.2637773 C108.460186,18.4396288 108.372364,18.6541646 108.372364,18.9073898 C108.372364,19.0199338 108.396953,19.1324726 108.446137,19.2450217 C108.495316,19.3575657 108.555034,19.4490054 108.625292,19.519346 L110.922715,21.8194615 L105.885246,21.8194615 C105.646367,21.8194615 105.439111,21.9073873 105.263466,22.0832388 C105.087821,22.2590903 105,22.466588 105,22.7057471 C105,22.9589723 105.087821,23.1735081 105.263466,23.3493544 C105.439111,23.525206 105.646367,23.6131318 105.885246,23.6131318 L105.885246,23.6131318 L110.922715,23.6131318 L108.625292,25.8921482 C108.555034,25.9765548 108.495316,26.0715136 108.446137,26.1770246 C108.396953,26.2825355 108.372364,26.3985934 108.372364,26.5252086 C108.372364,26.7784317 108.460186,26.9929665 108.635832,27.1688175 C108.811478,27.344668 109.025762,27.4325922 109.278691,27.4325922 C109.405153,27.4325922 109.521075,27.4079735 109.626462,27.3587351 C109.73185,27.3094972 109.826697,27.2497087 109.911005,27.1793686 L113.725995,23.3599066 L113.725995,23.3388075 Z" id="Arrow-right"></path>
                </g>
            </g>
        </g>
    </g>
</svg>