<?xml version="1.0" encoding="UTF-8"?>
<svg width="20px" height="10px" viewBox="0 0 20 10" version="1.1" xmlns="http://www.w3.org/2000/svg" xmlns:xlink="http://www.w3.org/1999/xlink">
    <title>slide-arrows</title>
    <g id="Styleguide" stroke="none" stroke-width="1" fill="none" fill-rule="evenodd">
        <g id="Styles" transform="translate(-570.000000, -2012.000000)" fill="#647585">
            <g id="slide-arrows" transform="translate(570.000000, 2012.000000)">
                <path d="M19.7259948,5.33880747 C19.8103078,5.26846686 19.8735362,5.177022 19.9156901,5.06447804 C19.957844,4.95193408 19.9789235,4.83235709 19.9789235,4.70574707 C19.9789235,4.57913191 19.957844,4.46307401 19.9156901,4.35756308 C19.8735362,4.25205216 19.8103078,4.15709336 19.7259948,4.07268668 L15.9110052,0.253225188 C15.8266973,0.182884572 15.7318497,0.123096078 15.6264623,0.0738597046 C15.5210749,0.0246181866 15.4051529,0 15.2786911,0 C15.0257624,0 14.8114778,0.0879257699 14.6358321,0.26377731 C14.4601865,0.439628849 14.3723636,0.654164641 14.3723636,0.907389829 C14.3723636,1.01993379 14.396953,1.1324726 14.4461369,1.2450217 C14.4953156,1.35756565 14.5550341,1.44900537 14.6252924,1.51934598 L16.9227149,3.81946149 L11.8852459,3.81946149 C11.6463668,3.81946149 11.439111,3.90738726 11.2634659,4.0832388 C11.0878208,4.25909034 11,4.46658795 11,4.70574707 C11,4.95897226 11.0878208,5.17350805 11.2634659,5.34935445 C11.439111,5.52520599 11.6463668,5.61313176 11.8852459,5.61313176 L11.8852459,5.61313176 L16.9227149,5.61313176 L14.6252924,7.89214816 C14.5550341,7.97655484 14.4953156,8.07151365 14.4461369,8.17702457 C14.396953,8.28253549 14.3723636,8.39859339 14.3723636,8.52520856 C14.3723636,8.77843169 14.4601865,8.99296645 14.6358321,9.16881748 C14.8114778,9.34466799 15.0257624,9.43259222 15.2786911,9.43259222 C15.4051529,9.43259222 15.5210749,9.40797351 15.6264623,9.35873508 C15.7318497,9.30949717 15.8266973,9.24970867 15.9110052,9.17936857 L19.7259948,5.35990657 L19.7259948,5.33880747 Z" id="Fill-1"></path>
                <path d="M12.7259948,5.33880747 C12.8103078,5.26846686 12.8735362,5.177022 12.9156901,5.06447804 C12.957844,4.95193408 12.9789235,4.83235709 12.9789235,4.70574707 C12.9789235,4.57913191 12.957844,4.46307401 12.9156901,4.35756308 C12.8735362,4.25205216 12.8103078,4.15709336 12.7259948,4.07268668 L8.91100517,0.253225188 C8.82669732,0.182884572 8.73184969,0.123096078 8.6264623,0.0738597046 C8.52107491,0.0246181866 8.40515289,0 8.2786911,0 C8.02576239,0 7.81147778,0.0879257699 7.63583212,0.26377731 C7.46018647,0.439628849 7.37236365,0.654164641 7.37236365,0.907389829 C7.37236365,1.01993379 7.39695301,1.1324726 7.44613687,1.2450217 C7.4953156,1.35756565 7.5550341,1.44900537 7.62529236,1.51934598 L9.92271489,3.81946149 L0.885245868,3.81946149 C0.646366752,3.81946149 0.439111049,3.90738726 0.26346591,4.0832388 C0.0878207709,4.25909034 0,4.46658795 0,4.70574707 C0,4.95897226 0.0878207709,5.17350805 0.26346591,5.34935445 C0.439111049,5.52520599 0.646366752,5.61313176 0.885245868,5.61313176 L9.92271489,5.61313176 L7.62529236,7.89214816 C7.5550341,7.97655484 7.4953156,8.07151365 7.44613687,8.17702457 C7.39695301,8.28253549 7.37236365,8.39859339 7.37236365,8.52520856 C7.37236365,8.77843169 7.46018647,8.99296645 7.63583212,9.16881748 C7.81147778,9.34466799 8.02576239,9.43259222 8.2786911,9.43259222 C8.40515289,9.43259222 8.52107491,9.40797351 8.6264623,9.35873508 C8.73184969,9.30949717 8.82669732,9.24970867 8.91100517,9.17936857 L12.7259948,5.35990657 L12.7259948,5.33880747 Z" id="Fill-1-Copy-2" transform="translate(6.489462, 4.716296) scale(-1, 1) translate(-6.489462, -4.716296) "></path>
            </g>
        </g>
    </g>
</svg>