<?xml version="1.0" encoding="UTF-8"?>
<svg width="9px" height="10px" viewBox="0 0 9 10" version="1.1" xmlns="http://www.w3.org/2000/svg" xmlns:xlink="http://www.w3.org/1999/xlink">
    <title>arrow-left-larger</title>
    <g id="Styleguide" stroke="none" stroke-width="1" fill="none" fill-rule="evenodd">
        <g id="Styles" transform="translate(-620.000000, -2012.000000)" fill="#647585">
            <path d="M628.725995,2017.33881 C628.810308,2017.26847 628.873536,2017.17702 628.91569,2017.06448 C628.957844,2016.95193 628.978924,2016.83236 628.978924,2016.70575 C628.978924,2016.57913 628.957844,2016.46307 628.91569,2016.35756 C628.873536,2016.25205 628.810308,2016.15709 628.725995,2016.07269 L624.911005,2012.25323 C624.826697,2012.18288 624.73185,2012.1231 624.626462,2012.07386 C624.521075,2012.02462 624.405153,2012 624.278691,2012 C624.025762,2012 623.811478,2012.08793 623.635832,2012.26378 C623.460186,2012.43963 623.372364,2012.65416 623.372364,2012.90739 C623.372364,2013.01993 623.396953,2013.13247 623.446137,2013.24502 C623.495316,2013.35757 623.555034,2013.44901 623.625292,2013.51935 L625.922715,2015.81946 L620.885246,2015.81946 C620.646367,2015.81946 620.439111,2015.90739 620.263466,2016.08324 C620.087821,2016.25909 620,2016.46659 620,2016.70575 C620,2016.95897 620.087821,2017.17351 620.263466,2017.34935 C620.439111,2017.52521 620.646367,2017.61313 620.885246,2017.61313 L620.885246,2017.61313 L625.922715,2017.61313 L623.625292,2019.89215 C623.555034,2019.97655 623.495316,2020.07151 623.446137,2020.17702 C623.396953,2020.28254 623.372364,2020.39859 623.372364,2020.52521 C623.372364,2020.77843 623.460186,2020.99297 623.635832,2021.16882 C623.811478,2021.34467 624.025762,2021.43259 624.278691,2021.43259 C624.405153,2021.43259 624.521075,2021.40797 624.626462,2021.35874 C624.73185,2021.3095 624.826697,2021.24971 624.911005,2021.17937 L628.725995,2017.35991 L628.725995,2017.33881 Z" id="arrow-left-larger" transform="translate(624.489462, 2016.716296) scale(-1, 1) translate(-624.489462, -2016.716296) "></path>
        </g>
    </g>
</svg>