<?xml version="1.0" encoding="UTF-8"?>
<svg width="93px" height="93px" viewBox="0 0 93 93" version="1.1" xmlns="http://www.w3.org/2000/svg" xmlns:xlink="http://www.w3.org/1999/xlink">
    <title>Kamer op zolder</title>
    <g id="Styleguide" stroke="none" stroke-width="1" fill="none" fill-rule="evenodd" stroke-linecap="round" stroke-linejoin="round">
        <g id="Styles" transform="translate(-890.000000, -2709.000000)" stroke="#394553" stroke-width="3">
            <g id="zolderkamer-icon" transform="translate(892.000000, 2711.000000)">
                <rect id="Rectangle" x="11.9" y="28.3" width="17.2" height="17.2"></rect>
                <rect id="Rectangle" x="47.8" y="7.6" width="19.1" height="5.7"></rect>
                <g id="Group" transform="translate(11.400000, 55.200000)" fill-rule="nonzero">
                    <path d="M0.5,14.8 L0.5,11.4 C0.5,9.4 2.1,7.8 4.1,7.8 L10,7.8 C12,7.8 13.6,9.4 13.6,11.4 L13.6,14.8" id="Path" fill="#2CA982"></path>
                    <path d="M0.5,15.4 L38.6,15.4 C41.4,15.4 43.6,17.6 43.6,20.4 L43.6,24.9 L0.5,24.9 L0.5,15.4 Z" id="Path" fill="#2CA982"></path>
                    <line x1="0.5" y1="34" x2="0.5" y2="0" id="Path" fill="#FFFFFF"></line>
                    <line x1="39.2" y1="34" x2="39.2" y2="25.4" id="Path" fill="#FFFFFF"></line>
                </g>
                <polygon id="Path" points="25.7 0 0 0 0 89.2 89.2 89.2 89.2 64.5"></polygon>
                <line x1="88.5" y1="72.2" x2="17.4" y2="0" id="Path"></line>
                <line x1="0" y1="14.2" x2="31.4" y2="14.2" id="Path"></line>
                <g id="Group" transform="translate(49.100000, 13.900000)">
                    <line x1="0.5" y1="10.2" x2="0.5" y2="0" id="Path"></line>
                    <line x1="16" y1="25.9" x2="16" y2="0" id="Path"></line>
                </g>
            </g>
        </g>
    </g>
</svg>