<?xml version="1.0" encoding="UTF-8"?>
<svg width="89px" height="89px" viewBox="0 0 89 89" version="1.1" xmlns="http://www.w3.org/2000/svg" xmlns:xlink="http://www.w3.org/1999/xlink">
    <title>woning-warmte</title>
    <g id="Styleguide" stroke="none" stroke-width="1" fill="none" fill-rule="evenodd" stroke-linecap="round" stroke-linejoin="round">
        <g id="Styles" transform="translate(-1203.000000, -3278.000000)" stroke-width="3">
            <g id="woning-warmte" transform="translate(1205.000000, 3280.000000)">
                <g id="Group" transform="translate(23.571519, 34.300000)" stroke="#2CA982">
                    <path d="M19.8284808,-1.42108547e-14 C10.3284808,9.5 19.4284808,21.1 19.4284808,21.1 C26.3284808,30.4 18.6284808,38.5 18.6284808,38.5" id="Path"></path>
                    <path d="M4.32848076,-1.42108547e-14 C-5.17151924,9.5 3.92848076,21.1 3.92848076,21.1 C10.8284808,30.4 3.12848076,38.5 3.12848076,38.5" id="Path"></path>
                    <path d="M35.3284808,-1.42108547e-14 C25.8284808,9.5 34.9284808,21.1 34.9284808,21.1 C41.8284808,30.4 34.1284808,38.5 34.1284808,38.5" id="Path"></path>
                </g>
                <polyline id="Path" stroke="#394553" points="85 31.4 42.5 -7.10542736e-15 7.10542736e-15 31.4"></polyline>
                <path d="M77.6,25.9 L77.6,81.3 C77.6,83.3 75.9,85 73.9,85 L11.1,85 C9.1,85 7.4,83.3 7.4,81.3 L7.4,25.9" id="Path" stroke="#394553"></path>
            </g>
        </g>
    </g>
</svg>