<?xml version="1.0" encoding="UTF-8"?>
<svg width="20px" height="20px" viewBox="0 0 20 20" version="1.1" xmlns="http://www.w3.org/2000/svg" xmlns:xlink="http://www.w3.org/1999/xlink">
    <title>contact-chat</title>
    <g id="Styleguide" stroke="none" stroke-width="1" fill="none" fill-rule="evenodd">
        <g id="Styles" transform="translate(-842.000000, -2007.000000)" fill="#647585">
            <path d="M844.92,2024.08 C843.986662,2023.13333 843.266669,2022.04667 842.76,2020.82 C842.253331,2019.59333 842,2018.32001 842,2017 C842,2015.18666 842.453329,2013.50667 843.36,2011.96 C844.253338,2010.45333 845.453326,2009.25334 846.96,2008.36 C848.506674,2007.45333 850.186657,2007 852,2007 C853.813343,2007 855.493326,2007.45333 857.04,2008.36 C858.546674,2009.25334 859.746663,2010.45333 860.64,2011.96 C861.546669,2013.50667 862,2015.18666 862,2017 C862,2018.81334 861.546669,2020.49333 860.64,2022.04 C859.746663,2023.54667 858.546674,2024.74666 857.04,2025.64 C855.493326,2026.54667 853.813343,2027 852,2027 L842,2027 L844.92,2024.08 Z M848,2018 C848,2018.72001 848.18,2019.38666 848.54,2020 C848.9,2020.61334 849.386663,2021.1 850,2021.46 C850.613337,2021.82 851.279994,2022 852,2022 C852.720006,2022 853.386663,2021.82 854,2021.46 C854.613337,2021.1 855.1,2020.61334 855.46,2020 C855.82,2019.38666 856,2018.72001 856,2018 L848,2018 Z" id="contact-chat"></path>
        </g>
    </g>
</svg>