<?xml version="1.0" encoding="UTF-8"?>
<svg width="21px" height="21px" viewBox="0 0 21 21" version="1.1" xmlns="http://www.w3.org/2000/svg" xmlns:xlink="http://www.w3.org/1999/xlink">
    <title>Contact alert</title>
    <g id="Styleguide" stroke="none" stroke-width="1" fill="none" fill-rule="evenodd">
        <g id="Formulieren-velden" transform="translate(-964.000000, -77.000000)">
            <g id="Header" transform="translate(0.000000, 66.000000)">
                <g id="Contact-alert" transform="translate(964.000000, 11.000000)">
                    <path d="M2.92,18.08 C1.98666229,17.1333314 1.26666914,16.0466743 0.76,14.82 C0.253330857,13.5933257 0,12.3200057 0,11 C0,9.18665714 0.453328571,7.50667429 1.36,5.96 C2.25333771,4.45332571 3.45332571,3.25333714 4.96,2.36 C6.50667429,1.45333143 8.18665714,1 10,1 C11.8133429,1 13.4933257,1.45333143 15.04,2.36 C16.5466743,3.25333714 17.7466629,4.45332571 18.64,5.96 C19.5466686,7.50667429 20,9.18665714 20,11 C20,12.8133429 19.5466686,14.4933257 18.64,16.04 C17.7466629,17.5466743 16.5466743,18.7466623 15.04,19.64 C13.4933257,20.5466714 11.8133429,21 10,21 L0,21 L2.92,18.08 Z M6,12 C6,12.7200057 6.18,13.3866629 6.54,14 C6.9,14.6133371 7.38666286,15.1 8,15.46 C8.61333714,15.82 9.27999429,16 10,16 C10.7200057,16 11.3866629,15.82 12,15.46 C12.6133371,15.1 13.1,14.6133371 13.46,14 C13.82,13.3866629 14,12.7200057 14,12 L6,12 Z" id="Contact-chat" fill="#647585"></path>
                    <circle id="Oval" stroke="#FFFFFF" fill="#E31440" cx="17" cy="4" r="3.5"></circle>
                </g>
            </g>
        </g>
    </g>
</svg>