<?xml version="1.0" encoding="UTF-8"?>
<svg width="14px" height="14px" viewBox="0 0 14 14" version="1.1" xmlns="http://www.w3.org/2000/svg" xmlns:xlink="http://www.w3.org/1999/xlink">
    <title>check-circle-purple</title>
    <g id="Styleguide" stroke="none" stroke-width="1" fill="none" fill-rule="evenodd">
        <g id="Formulieren-velden" transform="translate(-51.000000, -133.000000)" fill="#622181">
            <g id="Onderdelen" transform="translate(0.000000, 110.000000)">
                <g id="Woninggegevens" transform="translate(51.000000, 22.000000)">
                    <path d="M7,1 C6.03824727,1 5.13115184,1.18327558 4.27868973,1.54982675 C3.42622563,1.91637791 2.68306374,2.41695742 2.0491805,3.05158129 C1.41529765,3.68620916 0.915302618,4.42750669 0.549180212,5.27549789 C0.183058285,6.12348909 0,7.02891472 0,7.9917948 C0,8.96561514 0.183058285,9.87651091 0.549180212,10.7245021 C0.915302618,11.5724937 1.41529765,12.3137912 2.0491805,12.9484175 C2.68306374,13.5830434 3.42622563,14.0836245 4.27868973,14.4501761 C5.13115184,14.8167271 6.03824727,15 7,15 C7.96175273,15 8.86884816,14.8167271 9.72131426,14.4501761 C10.5737764,14.0836245 11.3169399,13.5830434 11.9508207,12.9484175 C12.5847055,12.3137912 13.084699,11.5724937 13.450821,10.7245021 C13.816943,9.87651091 14,8.96561514 14,7.9917948 C14,7.02891472 13.816943,6.12348909 13.450821,5.27549789 C13.084699,4.42750669 12.5847055,3.68620916 11.9508207,3.05158129 C11.3169399,2.41695742 10.5737764,1.91637791 9.72131426,1.54982675 C8.86884816,1.18327558 7.96175273,1 7,1 Z M6.29508264,10.798359 L3.5081972,7.9917948 L4.49180326,7.00703418 L6.31147783,8.82883772 L9.52459193,5.59554689 L10.4918044,6.59671792 L6.29508264,10.798359 Z" id="check-circle-purple"></path>
                </g>
            </g>
        </g>
    </g>
</svg>