<?xml version="1.0" encoding="UTF-8"?>
<svg width="14px" height="14px" viewBox="0 0 14 14" version="1.1" xmlns="http://www.w3.org/2000/svg" xmlns:xlink="http://www.w3.org/1999/xlink">
    <title>check-circle</title>
    <g id="Styleguide" stroke="none" stroke-width="1" fill="none" fill-rule="evenodd">
        <g id="Styles" transform="translate(-392.000000, -2010.000000)" fill="#647585">
            <path d="M399,2010 C398.038247,2010 397.131152,2010.18328 396.27869,2010.54983 C395.426226,2010.91638 394.683064,2011.41696 394.04918,2012.05158 C393.415298,2012.68621 392.915303,2013.42751 392.54918,2014.2755 C392.183058,2015.12349 392,2016.02891 392,2016.99179 C392,2017.96562 392.183058,2018.87651 392.54918,2019.7245 C392.915303,2020.57249 393.415298,2021.31379 394.04918,2021.94842 C394.683064,2022.58304 395.426226,2023.08362 396.27869,2023.45018 C397.131152,2023.81673 398.038247,2024 399,2024 C399.961753,2024 400.868848,2023.81673 401.721314,2023.45018 C402.573776,2023.08362 403.31694,2022.58304 403.950821,2021.94842 C404.584706,2021.31379 405.084699,2020.57249 405.450821,2019.7245 C405.816943,2018.87651 406,2017.96562 406,2016.99179 C406,2016.02891 405.816943,2015.12349 405.450821,2014.2755 C405.084699,2013.42751 404.584706,2012.68621 403.950821,2012.05158 C403.31694,2011.41696 402.573776,2010.91638 401.721314,2010.54983 C400.868848,2010.18328 399.961753,2010 399,2010 Z M398.295083,2019.79836 L395.508197,2016.99179 L396.491803,2016.00703 L398.311478,2017.82884 L401.524592,2014.59555 L402.491804,2015.59672 L398.295083,2019.79836 Z" id="check-circle"></path>
        </g>
    </g>
</svg>