<?xml version="1.0" encoding="UTF-8"?>
<svg width="14px" height="14px" viewBox="0 0 14 14" version="1.1" xmlns="http://www.w3.org/2000/svg" xmlns:xlink="http://www.w3.org/1999/xlink">
    <title>close</title>
    <g id="Styleguide" stroke="none" stroke-width="1" fill="none" fill-rule="evenodd">
        <g id="Styles" transform="translate(-436.000000, -2010.000000)" fill="#647585">
            <path d="M443,2010 C442.038247,2010 441.131152,2010.18328 440.27869,2010.54983 C439.426226,2010.91638 438.683064,2011.41696 438.04918,2012.05158 C437.415298,2012.68621 436.915303,2013.42751 436.54918,2014.2755 C436.183058,2015.12349 436,2016.02891 436,2016.99179 C436,2017.96562 436.183058,2018.87651 436.54918,2019.7245 C436.915303,2020.57249 437.415298,2021.31379 438.04918,2021.94842 C438.683064,2022.58304 439.426226,2023.08362 440.27869,2023.45018 C441.131152,2023.81673 442.038247,2024 443,2024 C443.961753,2024 444.868848,2023.81673 445.721314,2023.45018 C446.573776,2023.08362 447.31694,2022.58304 447.950821,2021.94842 C448.584706,2021.31379 449.084699,2020.57249 449.450821,2019.7245 C449.816943,2018.87651 450,2017.96562 450,2016.99179 C450,2016.02891 449.816943,2015.12349 449.450821,2014.2755 C449.084699,2013.42751 448.584706,2012.68621 447.950821,2012.05158 C447.31694,2011.41696 446.573776,2010.91638 445.721314,2010.54983 C444.868848,2010.18328 443.961753,2010 443,2010 Z M446.262296,2019.17468 L445.163934,2020.27433 L443,2018.09144 L440.836066,2020.27433 L439.737705,2019.17468 L441.901638,2016.99179 L439.737705,2014.82532 L440.836066,2013.72568 L443,2015.89215 L445.163934,2013.72568 L446.262296,2014.82532 L444.098362,2016.99179 L446.262296,2019.17468 Z" id="close"></path>
        </g>
    </g>
</svg>