<?xml version="1.0" encoding="UTF-8"?>
<svg width="94px" height="88px" viewBox="0 0 94 88" version="1.1" xmlns="http://www.w3.org/2000/svg" xmlns:xlink="http://www.w3.org/1999/xlink">
    <title>gordijnen</title>
    <g id="Styleguide" stroke="none" stroke-width="1" fill="none" fill-rule="evenodd" stroke-linecap="round" stroke-linejoin="round">
        <g id="Styles" transform="translate(-286.000000, -3280.000000)" stroke="#394553" stroke-width="3">
            <g id="gordijnen" transform="translate(288.000000, 3281.000000)">
                <line x1="0" y1="0.5" x2="90" y2="0.5" id="Path"></line>
                <g id="Group" transform="translate(4.700000, 0.500000)">
                    <path d="M0,47 L16.5,47 C18.3,47 19.8,48.5 19.8,50.3 L19.8,50.3 C19.8,52.1 18.3,53.6 16.5,53.6 L0,53.6" id="Path" fill="#2CA982" fill-rule="nonzero"></path>
                    <path d="M0,0.6 L0,85 L23.4,85 C23.4,85 23.6,75.3 14.3,53.6" id="Path"></path>
                    <path d="M40,7.10542736e-15 C40,7.10542736e-15 35.3,34.3 16.5,47" id="Path"></path>
                    <path d="M23,7.10542736e-15 C23,7.10542736e-15 25.7,16.3 14.3,32.3" id="Path"></path>
                    <path d="M11.9,7.10542736e-15 C11.9,7.10542736e-15 16.5,9.5 11.9,18.6" id="Path"></path>
                </g>
                <g id="Group" transform="translate(45.000000, 0.500000)">
                    <path d="M40,47 L23.5,47 C21.7,47 20.2,48.5 20.2,50.3 L20.2,50.3 C20.2,52.1 21.7,53.6 23.5,53.6 L40,53.6" id="Path" fill="#2CA982" fill-rule="nonzero"></path>
                    <path d="M40,0.6 L40,85 L16.6,85 C16.6,85 16.4,75.3 25.7,53.6" id="Path"></path>
                    <path d="M0,7.10542736e-15 C0,7.10542736e-15 4.7,34.3 23.5,47" id="Path"></path>
                    <path d="M17,7.10542736e-15 C17,7.10542736e-15 14.3,16.3 25.7,32.3" id="Path"></path>
                    <path d="M28.1,7.10542736e-15 C28.1,7.10542736e-15 23.5,9.5 28.1,18.6" id="Path"></path>
                </g>
            </g>
        </g>
    </g>
</svg>