<?xml version="1.0" encoding="UTF-8"?>
<svg width="20px" height="23px" viewBox="0 0 20 23" version="1.1" xmlns="http://www.w3.org/2000/svg" xmlns:xlink="http://www.w3.org/1999/xlink">
    <title>document</title>
    <g id="Styleguide" stroke="none" stroke-width="1" fill="none" fill-rule="evenodd">
        <g id="Styles" transform="translate(-892.000000, -2007.000000)" fill="#647585" fill-rule="nonzero">
            <g id="document" transform="translate(892.000000, 2006.000000)">
                <path d="M5.625 1.5c-1.036 0-1.875.84-1.875 1.875v17.25c0 1.035.84 1.875 1.875 1.875h12.75c1.035 0 1.875-.84 1.875-1.875V12.75A3.75 3.75 0 0016.5 9h-1.875a1.875 1.875 0 01-1.875-1.875V5.25A3.75 3.75 0 009 1.5H5.625z" />
                <path d="M12.971 1.816A5.23 5.23 0 0114.25 5.25v1.875c0 .207.168.375.375.375H16.5a5.23 5.23 0 013.434 1.279 9.768 9.768 0 00-6.963-6.963z" />
            </g>
        </g>
    </g>
</svg>
