<?xml version="1.0" encoding="UTF-8"?>
<svg width="17px" height="21px" viewBox="0 0 17 21" version="1.1" xmlns="http://www.w3.org/2000/svg" xmlns:xlink="http://www.w3.org/1999/xlink">
    <title>document</title>
    <!-- Heroicon document -->
    <g id="Styleguide" stroke="none" stroke-width="1" fill="none" fill-rule="evenodd">
        <g id="Styles" transform="translate(0.000000, 0.000000)" fill="#fff" fill-rule="nonzero">
            <path d="M 1.925 -0.02 c -1.036 0 -1.875 0.84 -1.875 1.875 v 17.25 c 0 1.035 0.84 1.875 1.875 1.875 h 12.75 c 1.035 0 1.875 -0.84 1.875 -1.875 V 11.23 A 3.75 3.75 0 0 0 12.8 7.48 h -1.875 a 1.875 1.875 0 0 1 -1.875 -1.875 V 3.73 A 3.75 3.75 0 0 0 5.3 -0.02 H 1.925 z M 9.271 0.296 A 5.23 5.23 0 0 1 10.55 3.73 v 1.875 c 0 0.207 0.168 0.375 0.375 0.375 H 12.8 a 5.23 5.23 0 0 1 3.434 1.279 a 9.768 9.768 0 0 0 -6.963 -6.963 z" />
        </g>
    </g>
</svg>
