<?xml version="1.0" encoding="UTF-8"?>
<svg width="74px" height="89px" viewBox="0 0 74 89" version="1.1" xmlns="http://www.w3.org/2000/svg" xmlns:xlink="http://www.w3.org/1999/xlink">
    <title>droger</title>
    <g id="Styleguide" stroke="none" stroke-width="1" fill="none" fill-rule="evenodd" stroke-linecap="round" stroke-linejoin="round">
        <g id="Styles" transform="translate(-749.000000, -3133.000000)" stroke="#394553" stroke-width="3">
            <g id="droger" transform="translate(751.000000, 3135.000000)">
                <path d="M54.4,47.7 C54.4,58.6 45.6,67.4 34.7,67.4 C23.8,67.4 15,58.6 15,47.7 C15,36.8 23.8,28 34.7,28 C45.6,28 54.4,36.9 54.4,47.7 Z" id="Path"></path>
                <line x1="8.3" y1="10" x2="19.2" y2="10" id="Path"></line>
                <path d="M0,79.3 C0,82.5 2.6,85 5.7,85 L64.6,85 C67.8,85 70.3,82.4 70.3,79.3 L70.3,5.7 C70.3,2.5 67.7,0 64.6,0 L5.7,0 C2.5,0 0,2.6 0,5.7 L0,20.4 L0,79.3 Z" id="Path"></path>
                <circle id="Oval" fill="#2CA982" cx="60.5" cy="10" r="2.8"></circle>
                <circle id="Oval" fill="#2CA982" cx="50.1" cy="10" r="2.8"></circle>
                <circle id="Oval" fill="#2CA982" cx="45.8" cy="47.8" r="2.8"></circle>
            </g>
        </g>
    </g>
</svg>