<?xml version="1.0" encoding="UTF-8"?>
<svg width="11px" height="11px" viewBox="0 0 11 11" version="1.1" xmlns="http://www.w3.org/2000/svg" xmlns:xlink="http://www.w3.org/1999/xlink">
    <title>euro</title>
    <g id="Styleguide" stroke="none" stroke-width="1" fill="none" fill-rule="evenodd">
        <g id="Styles" transform="translate(5.5, 0)" fill="#647585" fill-rule="nonzero">
            <path d="M 0 0 A 1 1 0 0 0 0 11 A 1 1 0 0 0 0 0 M 0 5 C 0.3 5 0.6 5.3 0.6 5.6 C 0.6 5.9 0.3 6.1 0 6.1 L -1.3 6.1 C -1.3 6.1 -1.4 6.2 -1.4 6.2 C -1.5 6.3 -1.5 6.3 -1.5 6.4 C -1.2 7.5 -0.4 8 0.9 8 C 1.2 8 1.4 8.3 1.4 8.6 C 1.4 8.9 1.2 9.1 0.9 9.1 C -1.1 9.1 -2.3 8.1 -2.6 6.3 C -2.6 6.2 -2.7 6.1 -2.8 6.1 L -3.3 6.1 C -3.6 6.1 -3.9 5.9 -3.9 5.6 C -3.9 5.3 -3.6 5 -3.3 5 L -2.8 5 C -2.7 5 -2.6 4.9 -2.6 4.9 C -2.3 3.1 -1.1 2 0.9 2 C 1.2 2 1.4 2.3 1.4 2.6 C 1.4 2.9 1.2 3.1 0.9 3.1 C -0.4 3.1 -1.2 3.7 -1.5 4.8 C -1.5 4.8 -1.5 4.9 -1.4 4.9 C -1.4 5 -1.3 5 -1.3 5 L 0 5 Z" id="euro"></path>
        </g>
    </g>
</svg>
