<?xml version="1.0" encoding="UTF-8"?>
<svg width="68px" height="94px" viewBox="0 0 68 94" version="1.1" xmlns="http://www.w3.org/2000/svg" xmlns:xlink="http://www.w3.org/1999/xlink">
    <title>HR glas (active)</title>
    <g id="Styleguide" stroke="none" stroke-width="1" fill="none" fill-rule="evenodd">
        <g id="Styles" transform="translate(-846.000000, -3419.000000)">
            <g id="hr" transform="translate(848.000000, 3421.000000)">
                <polygon id="Path" fill="#2CA982" fill-rule="nonzero" opacity="0.2" points="24.74 7.10542736e-15 35.14 5.65 63.96 66.46 63.96 78.44 57.35 81.55 57.35 74.65 24.74 55.93"></polygon>
                <polyline id="Path" stroke="#9CA1A7" stroke-width="3" stroke-linecap="round" stroke-linejoin="round" points="63.96 78.44 24.74 55.93 24.74 7.10542736e-15"></polyline>
                <polygon id="Path" fill="#2CA982" fill-rule="nonzero" opacity="0.4" points="18.12 4.2 24.74 1.1 25.94 1.75 25.93 7.89 28.52 9.84 57.35 70.66 57.35 82.64 18.12 60.13"></polygon>
                <line x1="18.12" y1="3.11" x2="24.74" y2="7.10542736e-15" id="Path" stroke="#394553" stroke-width="3" stroke-linecap="round" stroke-linejoin="round"></line>
                <line x1="28.4" y1="8.81" x2="35.02" y2="5.71" id="Path" stroke="#394553" stroke-width="3" stroke-linecap="round" stroke-linejoin="round"></line>
                <line x1="57.35" y1="69.57" x2="63.96" y2="66.46" id="Path" stroke="#394553" stroke-width="3" stroke-linecap="round" stroke-linejoin="round"></line>
                <line x1="57.35" y1="81.55" x2="63.96" y2="78.44" id="Path" stroke="#394553" stroke-width="3" stroke-linecap="round" stroke-linejoin="round"></line>
                <polygon id="Path" stroke="#2CA982" stroke-width="3" stroke-linecap="round" stroke-linejoin="round" points="18.12 3.11 28.52 8.75 57.35 69.57 57.35 81.55 18.12 59.04"></polygon>
                <polyline id="Path" stroke="#394553" stroke-width="3" stroke-linecap="round" stroke-linejoin="round" points="24.74 7.10542736e-15 35.14 5.65 63.96 66.46 63.96 78.44"></polyline>
                <polygon id="Path" fill="#2CA982" fill-rule="nonzero" opacity="0.2" points="6.61 8.55 17.01 14.2 45.84 75.01 45.84 86.99 39.22 90.09 39.22 83.2 6.61 64.48"></polygon>
                <polyline id="Path" stroke="#9CA1A7" stroke-width="3" stroke-linecap="round" stroke-linejoin="round" points="45.84 86.99 6.61 64.48 6.61 8.55"></polyline>
                <polygon id="Path" fill="#2CA982" fill-rule="nonzero" opacity="0.4" points="7.10542736e-15 11.66 6.61 8.55 7.82 9.21 7.81 15.35 10.4 17.3 39.22 78.12 39.22 90.09 7.10542736e-15 67.59"></polygon>
                <polygon id="Path" stroke="#394553" stroke-width="3" stroke-linecap="round" stroke-linejoin="round" points="7.10542736e-15 11.66 10.4 17.3 39.22 78.12 39.22 90.09 7.10542736e-15 67.59"></polygon>
                <line x1="7.10542736e-15" y1="11.66" x2="6.61" y2="8.55" id="Path" stroke="#394553" stroke-width="3" stroke-linecap="round" stroke-linejoin="round"></line>
                <line x1="39.22" y1="90.1" x2="45.84" y2="87.18" id="Path" stroke="#394553" stroke-width="3" stroke-linecap="round" stroke-linejoin="round"></line>
                <line x1="39.22" y1="78.12" x2="45.84" y2="75.01" id="Path" stroke="#394553" stroke-width="3" stroke-linecap="round" stroke-linejoin="round"></line>
                <line x1="10.28" y1="17.36" x2="16.89" y2="14.26" id="Path" stroke="#394553" stroke-width="3" stroke-linecap="round" stroke-linejoin="round"></line>
                <polyline id="Path" stroke="#394553" stroke-width="3" stroke-linecap="round" stroke-linejoin="round" points="6.61 8.55 17.01 14.2 45.84 75.01 45.84 86.99"></polyline>
            </g>
        </g>
    </g>
</svg>