<?xml version="1.0" encoding="UTF-8"?>
<svg width="109px" height="112px" viewBox="0 0 109 112" version="1.1" xmlns="http://www.w3.org/2000/svg" xmlns:xlink="http://www.w3.org/1999/xlink">
    <title>Warmtepomp</title>
    <g id="Styleguide" stroke="none" stroke-width="1" fill="none" fill-rule="evenodd" stroke-linecap="round">
        <g id="Styles" transform="translate(-972.000000, -2849.000000)">
            <g id="Warmtepomp" transform="translate(974.000000, 2851.000000)">
                <g id="Group-3" transform="translate(23.500000, 10.000000)">
                    <path d="M25.4,59.8 L46.6,59.8 C49.9,59.8 52.6,57.1 52.6,53.8 C52.6,50.5 49.9,47.8 46.6,47.8 L25.4,47.8 C24.3,47.8 23.4,46.9 23.4,45.8 C23.4,44.7 24.3,43.8 25.4,43.8 L31.3,43.8 C31.5,43.8 31.7,43.8 31.8,43.7 C32,43.8 32.2,43.8 32.3,43.8 C35.6,43.8 38.3,41.1 38.3,37.8 C38.3,37.8 38.3,37.8 38.3,37.7 C38.3,37.6 38.3,37.7 38.3,37.6 L38.3,28.9 L43.8,34.3 C44.6,35.1 45.9,35.1 46.6,34.3 C47.4,33.5 47.4,32.2 46.6,31.5 L37.6,22.7 C36.8,21.9 35.6,21.9 34.8,22.7 C34.8,22.7 34.8,22.7 34.8,22.7 L26,31.7 C25.2,32.5 25.2,33.8 26,34.5 C26.8,35.3 28.1,35.3 28.8,34.5 L34.3,28.9 L34.3,37.7 C34.3,37.7 34.3,37.7 34.3,37.8 C34.3,37.9 34.3,37.8 34.3,37.9 C34.3,39 33.4,39.9 32.3,39.9 C32.1,39.9 31.9,39.9 31.8,40 C31.6,39.9 31.4,39.9 31.3,39.9 L25.4,39.9 C22.1,39.9 19.4,42.6 19.4,45.9 C19.4,49.2 22.1,51.9 25.4,51.9 C25.4,51.9 25.4,51.9 25.4,51.9 L46.6,51.9 C47.7,51.9 48.6,52.8 48.6,53.9 C48.6,55 47.7,55.9 46.6,55.9 L25.4,55.9 C22.1,55.9 19.4,58.6 19.4,61.9 C19.4,65.2 22.1,67.9 25.4,67.9 L46.6,67.9 C47.7,67.9 48.6,68.8 48.6,69.9 C48.6,71 47.7,71.9 46.6,71.9 L39.7,71.9 C39.5,71.9 39.2,71.9 39,72 C36.2,72.6 34.3,75 34.3,77.9 C34.3,77.9 34.3,77.9 34.3,78 C34.3,78.1 34.3,78 34.3,78.1 L34.3,80.5 C34.3,81.6 35.2,82.5 36.3,82.5 C37.4,82.5 38.3,81.6 38.3,80.5 L38.3,78.3 C38.3,78.3 38.3,78.3 38.3,78.2 C38.3,78.1 38.3,78.2 38.3,78.1 C38.3,77 39.2,76.1 40.3,76.1 L46.7,76.1 C50,76.1 52.7,73.4 52.7,70.1 C52.7,66.8 50,64.1 46.7,64.1 L25.4,64.1 C24.3,64.1 23.4,63.2 23.4,62.1 C23.4,61 24.3,59.9 25.4,59.8 L25.4,59.8 Z" id="Path" fill="#2CA982" fill-rule="nonzero"></path>
                    <polyline id="Path" stroke="#394553" stroke-width="3" stroke-linecap="round" stroke-linejoin="round" points="56 74.8 72.8 74.8 72.8 33.1 36.4 0 0 33.1 0 74.8 31.3 74.8"></polyline>
                </g>
                <line x1="10" y1="99.050125" x2="97.959656" y2="10" id="Line-5-Copy" stroke="#E31440" stroke-width="6"></line>

                <g id="warmtepomp"></g>
            </g>
        </g>
    </g>
</svg>