<?xml version="1.0" encoding="UTF-8"?>
<svg width="260px" height="34px" viewBox="0 0 260 34" version="1.1" xmlns="http://www.w3.org/2000/svg" xmlns:xlink="http://www.w3.org/1999/xlink">
    <title>Hoomdossier</title>
    <g id="Start" stroke="none" stroke-width="1" fill="none" fill-rule="evenodd">
        <g transform="translate(-719.000000, -674.000000)" fill="#FFFFFF" fill-rule="nonzero" id="Info">
            <g transform="translate(51.000000, 140.000000)">
                <g id="Hoomdossier" transform="translate(668.000000, 534.000000)">
                    <path d="M137.464115,2.36708861 L132.073365,2.36708861 C131.658692,2.36708861 131.451356,2.58227848 131.451356,3.01265823 L131.451356,12.9113924 L131.451356,12.9113924 C130,10.9746835 127.926635,9.89873418 125.23126,9.89873418 C122.743222,9.89873418 120.46252,10.7594937 118.181818,12.6962025 C116.108453,14.4177215 114.657097,17.8607595 114.657097,21.7341772 C114.657097,25.1772152 115.69378,27.9746835 117.974482,30.3417722 C120.255183,32.4936709 122.950558,33.7848101 126.475279,33.7848101 C130,33.7848101 132.695375,32.7088608 134.976077,30.556962 C137.049442,28.4050633 138.086124,25.3924051 138.086124,21.7341772 L138.086124,3.01265823 C138.086124,2.58227848 137.671451,2.36708861 137.464115,2.36708861 Z M130,25.8227848 C129.170654,26.8987342 127.926635,27.3291139 126.475279,27.3291139 C125.023923,27.3291139 123.779904,26.8987342 122.743222,25.8227848 C121.913876,24.7468354 121.291866,23.4556962 121.291866,21.9493671 C121.291866,20.443038 121.706539,18.9367089 122.743222,18.0759494 C123.572568,17 124.816587,16.5696203 126.475279,16.5696203 C127.926635,16.5696203 129.170654,17 130,18.0759494 C130.829346,19.1518987 131.451356,20.443038 131.451356,21.9493671 C131.451356,23.4556962 130.829346,24.7468354 130,25.8227848 Z" id="Shape"></path>
                    <path d="M171.881978,17.6455696 C171.881978,16.3544304 172.711324,15.7088608 174.162679,15.7088608 C175.406699,15.7088608 176.028708,16.1392405 176.443381,16.7848101 C176.650718,17 176.858054,17.2151899 177.065391,17.2151899 L182.45614,17.2151899 C182.870813,17.2151899 183.07815,16.7848101 183.07815,16.5696203 C182.870813,14.8481013 182.041467,13.3417722 180.590112,12.0506329 C178.931419,10.5443038 176.858054,9.89873418 174.162679,9.89873418 C171.881978,9.89873418 170.015949,10.3291139 168.357257,11.4050633 C166.076555,12.9113924 164.832536,15.9240506 165.247209,18.721519 C166.283892,26.0379747 176.650718,23.0253165 176.650718,26.0379747 C176.650718,27.3291139 176.028708,27.9746835 173.955343,27.9746835 C172.503987,27.9746835 171.674641,27.5443038 171.259968,26.6835443 C171.259968,26.4683544 171.052632,26.2531646 170.637959,26.2531646 L165.247209,26.2531646 C164.832536,26.2531646 164.625199,26.6835443 164.625199,26.8987342 C164.832536,28.835443 165.661882,30.3417722 167.113238,31.6329114 C168.77193,32.9240506 171.052632,33.7848101 173.748006,33.7848101 C176.443381,33.7848101 178.724083,33.1392405 180.382775,31.6329114 C182.041467,30.1265823 182.870813,28.4050633 182.870813,26.2531646 C183.492823,17.2151899 171.881978,20.8734177 171.881978,17.6455696 Z" id="Path"></path>
                    <path d="M192.408293,17.6455696 C192.408293,16.3544304 193.23764,15.7088608 194.688995,15.7088608 C195.933014,15.7088608 196.555024,16.1392405 196.969697,16.7848101 C196.969697,17 197.177033,17.2151899 197.591707,17.2151899 L202.77512,17.2151899 C203.189793,17.2151899 203.397129,16.7848101 203.397129,16.5696203 C203.189793,14.8481013 202.360447,13.3417722 200.909091,12.0506329 C199.250399,10.5443038 197.177033,9.89873418 194.481659,9.89873418 C191.786284,9.89873418 189.505582,10.7594937 187.84689,12.0506329 C186.188198,13.556962 185.358852,15.7088608 185.566188,17.8607595 C185.980861,26.2531646 197.177033,23.0253165 197.177033,26.0379747 C197.177033,27.3291139 196.555024,27.9746835 194.481659,27.9746835 C193.030303,27.9746835 192.200957,27.5443038 191.786284,26.6835443 C191.786284,26.4683544 191.578947,26.2531646 191.164274,26.2531646 L185.773525,26.2531646 C185.358852,26.2531646 185.151515,26.6835443 185.151515,26.8987342 C185.358852,28.835443 186.188198,30.3417722 187.639553,31.6329114 C189.298246,32.9240506 191.578947,33.7848101 194.274322,33.7848101 C196.969697,33.7848101 199.250399,33.1392405 200.909091,31.6329114 C202.567783,30.1265823 203.397129,28.4050633 203.397129,26.2531646 C204.019139,17.2151899 192.408293,20.8734177 192.408293,17.6455696 Z" id="Path"></path>
                    <path d="M206.507177,1.29113924 C205.677831,2.15189873 205.263158,3.2278481 205.263158,4.30379747 C205.263158,5.59493671 205.677831,6.67088608 206.507177,7.53164557 C208.165869,9.25316456 210.861244,9.25316456 212.519936,7.53164557 C213.349282,6.67088608 213.763955,5.59493671 213.763955,4.30379747 C213.763955,3.01265823 213.349282,1.93670886 212.519936,1.29113924 C210.861244,-0.430379747 208.165869,-0.430379747 206.507177,1.29113924 Z" id="Path"></path>
                    <path d="M212.105263,10.7594937 L206.714514,10.7594937 C206.299841,10.7594937 206.092504,10.9746835 206.092504,11.4050633 L206.092504,32.7088608 C206.092504,33.1392405 206.299841,33.3544304 206.714514,33.3544304 L212.105263,33.3544304 C212.519936,33.3544304 212.727273,33.1392405 212.727273,32.7088608 L212.727273,11.4050633 C212.727273,11.1898734 212.519936,10.7594937 212.105263,10.7594937 Z" id="Path"></path>
                    <path d="M226.826156,9.89873418 C223.301435,9.89873418 220.606061,10.9746835 218.325359,13.3417722 C216.251994,15.4936709 215.007974,18.5063291 215.007974,21.9493671 C215.007974,25.3924051 216.044657,28.1898734 218.325359,30.556962 C220.606061,32.7088608 223.301435,34 226.826156,34 C231.802233,34 235.741627,31.4177215 237.400319,27.1139241 C237.607656,26.6835443 237.192982,26.2531646 236.778309,26.2531646 L231.180223,26.2531646 C230.972887,26.2531646 230.76555,26.2531646 230.76555,26.4683544 C229.936204,27.3291139 228.692185,27.9746835 226.826156,27.9746835 C224.130781,27.9746835 222.472089,26.6835443 222.057416,24.3164557 L222.057416,24.3164557 L232.424242,24.3164557 L236.363636,24.3164557 L237.814992,24.3164557 C238.229665,24.3164557 238.437002,24.1012658 238.437002,23.6708861 L238.437002,22.3797468 L238.437002,22.3797468 C238.437002,18.9367089 237.400319,16.1392405 235.119617,13.7721519 C232.838915,11.1898734 230.143541,9.89873418 226.826156,9.89873418 Z M231.594896,19.3670886 L222.057416,19.3670886 L222.057416,19.3670886 C222.679426,17.2151899 224.338118,16.1392405 226.826156,16.1392405 C229.106858,16.1392405 230.76555,17.2151899 231.594896,19.3670886 L231.594896,19.3670886 Z" id="Shape"></path>
                    <path d="M250.255183,10.3291139 C244.242424,10.3291139 240.510367,13.7721519 240.510367,20.6582278 L240.510367,32.9240506 C240.510367,33.3544304 240.717703,33.5696203 241.132376,33.5696203 L246.523126,33.5696203 C246.937799,33.5696203 247.145136,33.3544304 247.145136,32.9240506 L247.145136,20.6582278 C247.145136,18.0759494 248.181818,16.7848101 250.255183,16.7848101 C252.121212,16.7848101 253.365231,18.0759494 253.365231,20.2278481 C253.365231,20.6582278 253.572568,20.8734177 253.987241,20.8734177 L257.511962,20.8734177 L259.37799,20.8734177 L259.37799,20.8734177 C259.792663,20.8734177 260,20.6582278 260,20.2278481 C259.792663,13.556962 256.267943,10.3291139 250.255183,10.3291139 Z" id="Path"></path>
                    <path d="M151.562998,9.89873418 C145.135566,9.89873418 140.15949,15.278481 140.15949,21.7341772 C140.15949,28.1898734 145.342903,33.5696203 151.562998,33.5696203 C157.783094,33.5696203 162.966507,28.1898734 162.966507,21.7341772 C162.966507,15.278481 157.783094,9.89873418 151.562998,9.89873418 Z M151.562998,27.1139241 C148.660287,27.1139241 146.379585,24.7468354 146.379585,21.9493671 C146.379585,19.1518987 148.660287,16.7848101 151.562998,16.7848101 C154.46571,16.7848101 156.746411,19.1518987 156.746411,21.9493671 C156.539075,24.7468354 154.258373,27.1139241 151.562998,27.1139241 Z" id="Shape"></path>
                    <path d="M103.460925,10.1139241 C100.143541,9.46835443 97.0334928,10.5443038 94.9601276,12.6962025 C92.6794258,10.5443038 89.7767145,9.46835443 86.4593301,10.1139241 C86.2519936,10.1139241 86.2519936,10.1139241 86.0446571,10.3291139 C86.0446571,10.3291139 86.0446571,10.3291139 85.8373206,10.3291139 C83.1419458,10.7594937 80.6539075,13.7721519 80.6539075,13.7721519 C80.2392344,14.4177215 79.8245614,14.8481013 79.4098884,15.278481 C78.5805423,16.1392405 77.7511962,16.5696203 76.7145136,16.7848101 C75.4704944,16.7848101 74.4338118,16.3544304 73.8118022,15.4936709 C71.738437,12.2658228 68.2137161,9.89873418 64.0669856,9.89873418 C60.1275917,9.89873418 56.6028708,12.0506329 54.5295056,15.0632911 C54.3221691,15.278481 54.3221691,15.4936709 54.1148325,15.4936709 C52.6634769,17 50.3827751,17 48.9314195,15.4936709 C48.9314195,15.4936709 48.9314195,15.278481 48.7240829,15.278481 C46.6507177,12.0506329 43.1259968,9.6835443 38.9792663,9.6835443 C38.3572568,9.6835443 37.7352472,9.6835443 37.1132376,9.89873418 C37.1132376,9.89873418 37.1132376,9.89873418 37.1132376,9.89873418 C35.8692185,10.1139241 34.6251994,10.5443038 33.5885167,11.1898734 C32.7591707,11.6202532 31.722488,12.0506329 30.8931419,12.6962025 C29.2344498,13.9873418 27.3684211,14.8481013 25.2950558,15.278481 C25.0877193,15.278481 24.6730463,15.4936709 24.4657097,15.4936709 L24.4657097,3.01265823 C24.4657097,2.58227848 24.2583732,2.36708861 23.8437002,2.36708861 L18.245614,2.36708861 C17.830941,2.36708861 17.6236045,2.58227848 17.6236045,3.01265823 L17.6236045,16.1392405 C17.0015949,16.1392405 13.476874,15.7088608 11.4035088,15.278481 C9.53748006,15.0632911 8.50079745,14.6329114 7.67145136,13.9873418 C6.84210526,13.3417722 6.84210526,12.6962025 6.84210526,12.6962025 L6.84210526,12.6962025 L6.84210526,3.01265823 C6.84210526,2.58227848 6.63476874,2.36708861 6.22009569,2.36708861 L0.622009569,2.36708861 C0.207336523,2.36708861 0,2.58227848 0,3.01265823 L0,32.7088608 C0,33.1392405 0.207336523,33.3544304 0.622009569,33.3544304 L6.22009569,33.3544304 C6.63476874,33.3544304 6.84210526,33.1392405 6.84210526,32.7088608 L6.84210526,20.6582278 L6.84210526,20.6582278 C8.50079745,21.3037975 10.7814992,21.9493671 12.2328549,22.164557 C14.7208931,22.5949367 16.7942584,22.5949367 17.4162679,22.5949367 C17.6236045,22.5949367 17.830941,22.8101266 17.830941,23.0253165 L17.830941,32.9240506 C17.830941,33.3544304 18.0382775,33.5696203 18.4529506,33.5696203 L24.0510367,33.5696203 C24.4657097,33.5696203 24.6730463,33.3544304 24.6730463,32.9240506 L24.6730463,22.164557 C25.7097289,21.9493671 26.7464115,21.7341772 27.7830941,21.5189873 C27.7830941,21.5189873 27.7830941,21.5189873 27.7830941,21.5189873 C27.7830941,21.7341772 27.7830941,21.7341772 27.7830941,21.9493671 C27.7830941,28.4050633 32.9665072,33.7848101 39.1866029,33.7848101 C44.9920255,33.7848101 49.7607656,29.2658228 50.5901116,23.4556962 C51.0047847,23.4556962 51.8341308,23.4556962 52.8708134,23.4556962 C53.7001595,29.2658228 58.4688995,33.7848101 64.2743222,33.7848101 C70.0797448,33.7848101 74.8484848,29.2658228 75.6778309,23.4556962 C75.6778309,23.4556962 75.6778309,23.4556962 75.6778309,23.4556962 C76.7145136,23.4556962 78.3732057,23.4556962 78.5805423,23.4556962 L78.5805423,32.7088608 C78.5805423,33.1392405 78.7878788,33.3544304 79.2025518,33.3544304 L84.3859649,33.3544304 C84.800638,33.3544304 85.0079745,33.1392405 85.0079745,32.7088608 L85.0079745,20.443038 C85.0079745,18.9367089 85.8373206,17.4303797 87.2886762,16.7848101 C89.7767145,15.9240506 91.8500797,17.8607595 91.8500797,20.2278481 L91.8500797,32.7088608 C91.8500797,33.1392405 92.0574163,33.3544304 92.4720893,33.3544304 L97.6555024,33.3544304 C98.0701754,33.3544304 98.277512,33.1392405 98.277512,32.7088608 L98.277512,20.443038 C98.277512,18.9367089 99.1068581,17.4303797 100.558214,16.7848101 C103.046252,15.9240506 105.119617,17.8607595 105.119617,20.2278481 L105.119617,32.7088608 C105.119617,33.1392405 105.326954,33.3544304 105.741627,33.3544304 L110.92504,33.3544304 C111.339713,33.3544304 111.547049,33.1392405 111.547049,32.7088608 L111.547049,20.6582278 C111.547049,15.9240506 108.022329,10.9746835 103.460925,10.1139241 Z M38.9792663,27.1139241 C36.076555,27.1139241 33.7958533,24.7468354 33.7958533,21.9493671 C33.7958533,19.1518987 36.076555,16.7848101 38.9792663,16.7848101 C40.430622,16.7848101 41.6746411,17.4303797 42.5039872,18.2911392 C42.5039872,18.2911392 42.7113238,18.5063291 42.7113238,18.5063291 C43.5406699,19.3670886 43.9553429,20.6582278 43.9553429,21.9493671 C44.1626794,24.7468354 41.8819777,27.1139241 38.9792663,27.1139241 Z M64.0669856,27.1139241 C61.1642743,27.1139241 58.8835726,24.7468354 58.8835726,21.9493671 C58.8835726,19.1518987 61.1642743,16.7848101 64.0669856,16.7848101 C65.1036683,16.7848101 66.1403509,17.2151899 66.969697,17.6455696 C66.969697,17.6455696 66.969697,17.6455696 66.969697,17.6455696 C67.1770335,17.8607595 67.38437,18.0759494 67.7990431,18.2911392 C67.7990431,18.2911392 67.7990431,18.2911392 67.7990431,18.2911392 C68.6283892,19.1518987 69.2503987,20.443038 69.2503987,21.9493671 C69.0430622,24.7468354 66.7623604,27.1139241 64.0669856,27.1139241 Z" id="Shape"></path>
                </g>
            </g>
        </g>
    </g>
</svg>