<?xml version="1.0" encoding="UTF-8"?>
<svg width="13px" height="14px" viewBox="0 0 13 14" version="1.1" xmlns="http://www.w3.org/2000/svg" xmlns:xlink="http://www.w3.org/1999/xlink">
    <title>house</title>
    <g id="Woonplan" stroke="none" stroke-width="1" fill="none" fill-rule="evenodd">
        <g transform="translate(-933.000000, -133.000000)" fill="#622181" id="Onderdelen">
            <g transform="translate(0.000000, 110.000000)">
                <g id="Woonplan-(active)" transform="translate(933.000000, 22.000000)">
                    <path d="M13,14.2529349 C13,14.462114 12.9301879,14.6389178 12.7905556,14.7833511 C12.6509232,14.9277844 12.48,15 12.2777778,15 L0.722222222,15 C0.519999175,15 0.349074762,14.9277844 0.209444444,14.7833511 C0.069814127,14.6389178 0,14.462114 0,14.2529349 L0,6.39381003 C0,6.1547492 0.091480381,5.96051227 0.274444444,5.81109925 L6.05222222,1.16435432 C6.18703841,1.05478335 6.33629492,1 6.5,1 C6.66370508,1 6.81296159,1.05478335 6.94777778,1.16435432 L12.7255556,5.81109925 C12.9085213,5.96051227 13,6.15972679 13,6.40875133 L13,14.2529349 Z" id="house"></path>
                </g>
            </g>
        </g>
    </g>
</svg>