<?xml version="1.0" encoding="UTF-8"?>
<svg width="68px" height="89px" viewBox="0 0 68 89" version="1.1" xmlns="http://www.w3.org/2000/svg" xmlns:xlink="http://www.w3.org/1999/xlink">
    <title>waterzijdig-temperatuur</title>
    <g id="Styleguide" stroke="none" stroke-width="1" fill="none" fill-rule="evenodd" stroke-linecap="round" stroke-linejoin="round">
        <g id="Styles" transform="translate(-811.000000, -3279.000000)" stroke="#394553" stroke-width="3">
            <g id="waterzijdig-temperatuur" transform="translate(813.000000, 3281.000000)">
                <g id="Group" transform="translate(32.200000, 0.000000)">
                    <circle id="Oval" cx="11.9" cy="43" r="5.6"></circle>
                    <path d="M18.8,33.3 L18.8,6.9 C18.8,3.1 15.7,0 11.9,0 C8.1,0 5,3.1 5,6.9 L5,33.4 C2,35.5 0,39.1 0,43.1 C0,49.6 5.3,55 11.9,55 C18.5,55 23.8,49.7 23.8,43.1 C23.8,39 21.8,35.5 18.8,33.3 Z" id="Path"></path>
                    <line x1="11.9" y1="37.4" x2="11.9" y2="13.5" id="Path"></line>
                    <line x1="24.4" y1="7.4" x2="31.4" y2="7.4" id="Path"></line>
                    <line x1="24.4" y1="14.1" x2="31.4" y2="14.1" id="Path"></line>
                    <line x1="24.4" y1="20.9" x2="31.4" y2="20.9" id="Path"></line>
                    <line x1="24.4" y1="27.6" x2="31.4" y2="27.6" id="Path"></line>
                </g>
                <path d="M33.4,68.3 C33.4,77.5 25.9,85 16.7,85 C7.5,85 -7.10542736e-15,77.5 -7.10542736e-15,68.3 C-7.10542736e-15,60.7 11.3,41.9 15.3,35.4 C15.8,34.6 16.8,34.4 17.6,34.9 C17.8,35 18,35.2 18.1,35.4 C22.2,41.9 33.4,60.7 33.4,68.3 Z" id="Path" fill="#2CA982" fill-rule="nonzero"></path>
            </g>
        </g>
    </g>
</svg>