<?xml version="1.0" encoding="UTF-8"?>
<svg width="61px" height="94px" viewBox="0 0 61 94" version="1.1" xmlns="http://www.w3.org/2000/svg" xmlns:xlink="http://www.w3.org/1999/xlink">
    <title>EE5F52BD-FB49-4DE8-9A82-2A96FBFD6A67</title>
    <g id="Styleguide" stroke="none" stroke-width="1" fill="none" fill-rule="evenodd">
        <g id="Styles" transform="translate(-396.000000, -3419.000000)">
            <g id="verlichting" transform="translate(398.000000, 3421.000000)">
                <polygon id="Path" fill="#2CA982" fill-rule="nonzero" points="16.4 65.5 40.9 65.5 40.9 79.3 30.4 89.8 26.2 89.8 16.4 80"></polygon>
                <g id="Group" stroke="#394553" stroke-linecap="round" stroke-linejoin="round" stroke-width="3">
                    <path d="M9.6,50 C11.3,51.6 12.3,53.8 12.3,56.1 L12.3,61.4 C12.3,63.7 14.1,65.5 16.4,65.5 L40.9,65.5 C43.2,65.5 45,63.7 45,61.4 L45,56.1 C45,53.8 46,51.5 47.7,50 C53.6,44.8 57.2,37.1 57.2,28.7 C57.3,12.8 44.5,-1.42108547e-14 28.7,-1.42108547e-14 C12.9,-1.42108547e-14 0,12.8 0,28.6 C0,37.1 3.7,44.7 9.6,50 Z" id="Path"></path>
                    <path d="M8.2,28.6 C8.2,21.8 11.6,15.7 16.7,12" id="Path"></path>
                    <path d="M40.9,65.5 L40.9,77.8 C40.9,80.1 39.1,81.9 36.8,81.9 L20.5,81.9 C18.2,81.9 16.4,80.1 16.4,77.8 L16.4,65.5" id="Path"></path>
                    <line x1="16.4" y1="73.6" x2="40.9" y2="73.6" id="Path"></line>
                    <path d="M39.7,80.7 L32.7,88.4 C31.7,89.4 30.3,90 28.7,90 C27.1,90 25.7,89.4 24.7,88.4 L17.3,80.2" id="Path"></path>
                </g>
            </g>
        </g>
    </g>
</svg>