<?xml version="1.0" encoding="UTF-8"?>
<svg width="18px" height="18px" viewBox="0 0 18 18" version="1.1" xmlns="http://www.w3.org/2000/svg" xmlns:xlink="http://www.w3.org/1999/xlink">
    <title>info</title>
    <g id="Styleguide" stroke="none" stroke-width="1" fill="none" fill-rule="evenodd">
        <g id="Styles" transform="translate(-794.000000, -2008.000000)" fill="#647585">
            <path d="M809.363283,2010.63672 C807.605459,2008.8789 805.484386,2008 803,2008 C800.515614,2008 798.394541,2008.8789 796.636719,2010.63672 C794.878898,2012.39454 794,2014.51561 794,2017 C794,2019.48439 794.878898,2021.60546 796.636719,2023.36328 C798.394541,2025.1211 800.515614,2026 803,2026 C805.484386,2026 807.605459,2025.1211 809.363283,2023.36328 C811.121103,2021.60546 812,2019.48439 812,2017 C812,2014.51561 811.121103,2012.39454 809.363283,2010.63672 Z M801.875,2015.875 C801.875,2015.57031 801.986326,2015.30664 802.208986,2015.08399 C802.431641,2014.86133 802.695311,2014.75 803,2014.75 C803.304689,2014.75 803.568359,2014.86133 803.791014,2015.08399 C804.013674,2015.30664 804.125,2015.57031 804.125,2015.875 L804.125,2021.5 C804.125,2021.80469 804.013674,2022.06836 803.791014,2022.29102 C803.568359,2022.51367 803.304689,2022.625 803,2022.625 C802.695311,2022.625 802.431641,2022.51367 802.208986,2022.29102 C801.986326,2022.06836 801.875,2021.80469 801.875,2021.5 L801.875,2015.875 Z M803.773439,2013.34375 C803.5625,2013.55469 803.304689,2013.66016 803,2013.66016 C802.695311,2013.66016 802.431641,2013.54883 802.208986,2013.32617 C801.986326,2013.10351 801.875,2012.83399 801.875,2012.51758 C801.875,2012.20117 801.986326,2011.9375 802.208986,2011.72656 C802.431641,2011.51562 802.695311,2011.41016 803,2011.41016 C803.304689,2011.41016 803.568359,2011.51562 803.791014,2011.72656 C804.013674,2011.9375 804.125,2012.20117 804.125,2012.51758 C804.125,2012.83399 804.007816,2013.10937 803.773439,2013.34375 Z" id="info"></path>
        </g>
    </g>
</svg>