<?xml version="1.0" encoding="UTF-8"?>
<svg width="18px" height="18px" viewBox="0 0 18 18" version="1.1" xmlns="http://www.w3.org/2000/svg" xmlns:xlink="http://www.w3.org/1999/xlink">
    <title>info-grey</title>
    <g id="Styleguide" stroke="none" stroke-width="1" fill="none" fill-rule="evenodd" opacity="0.498814174">
        <g id="Formulieren-velden" transform="translate(-923.000000, -283.000000)" fill="#647585">
            <g id="Welke-woning" transform="translate(134.000000, 220.000000)">
                <g id="Radio" transform="translate(0.000000, 63.000000)">
                    <path d="M804.363283,2.63671714 C802.605459,0.878897143 800.484386,0 798,0 C795.515614,0 793.394541,0.878897143 791.636719,2.63671714 C789.878898,4.39454143 789,6.51561429 789,9 C789,11.4843857 789.878898,13.6054586 791.636719,15.3632811 C793.394541,17.1211024 795.515614,18 798,18 C800.484386,18 802.605459,17.1211024 804.363283,15.3632811 C806.121103,13.6054586 807,11.4843857 807,9 C807,6.51561429 806.121103,4.39454143 804.363283,2.63671714 Z M796.875,7.875 C796.875,7.57031143 796.986326,7.30664143 797.208986,7.08398571 C797.431641,6.86132571 797.695311,6.75 798,6.75 C798.304689,6.75 798.568359,6.86132571 798.791014,7.08398571 C799.013674,7.30664143 799.125,7.57031143 799.125,7.875 L799.125,13.5 C799.125,13.804689 799.013674,14.0683581 798.791014,14.2910156 C798.568359,14.513673 798.304689,14.625 798,14.625 C797.695311,14.625 797.431641,14.513673 797.208986,14.2910156 C796.986326,14.0683581 796.875,13.804689 796.875,13.5 L796.875,7.875 Z M798.773439,5.34375 C798.5625,5.55468857 798.304689,5.66015571 798,5.66015571 C797.695311,5.66015571 797.431641,5.54883 797.208986,5.32617 C796.986326,5.10351429 796.875,4.83398571 796.875,4.51758 C796.875,4.20117 796.986326,3.9375 797.208986,3.72656143 C797.431641,3.51562286 797.695311,3.41015571 798,3.41015571 C798.304689,3.41015571 798.568359,3.51562286 798.791014,3.72656143 C799.013674,3.9375 799.125,4.20117 799.125,4.51758 C799.125,4.83398571 799.007816,5.10937286 798.773439,5.34375 Z" id="info-grey"></path>
                </g>
            </g>
        </g>
    </g>
</svg>