<?xml version="1.0" encoding="UTF-8"?>
<svg width="110px" height="82px" viewBox="0 0 110 82" version="1.1" xmlns="http://www.w3.org/2000/svg" xmlns:xlink="http://www.w3.org/1999/xlink">
    <title>Keuken</title>
    <g id="Styleguide" stroke="none" stroke-width="1" fill="none" fill-rule="evenodd">
        <g id="Styles" transform="translate(-138.000000, -2716.000000)">
            <g id="keuken-icon" transform="translate(140.000000, 2716.000000)">
                <rect id="Rectangle" fill="#2CA982" x="37.6888889" y="35.2941176" width="28.2666667" height="12.9411765"></rect>
                <polyline id="Path" stroke="#414C57" stroke-width="3" stroke-linecap="round" points="66.3250144 79.7408522 66.3219526 25.2262751 105.530012 25.2262751"></polyline>
                <line x1="37.8945407" y1="35.8375343" x2="37.8945407" y2="79.3804987" id="Path" stroke="#414C57" stroke-width="3" stroke-linecap="round" stroke-linejoin="round"></line>
                <path d="M66.3219526,25.9162562 C66.4190755,20.2864734 66.4190755,12.3224257 66.3219526,2.02411301 L106,2.02257959 L105.998469,80 L0.0413344887,80 L0.0428653957,34.9496847 L65.7539861,34.9466179" id="Path" stroke="#414C57" stroke-width="3" stroke-linecap="round" stroke-linejoin="round"></path>
                <line x1="74.7572501" y1="47.7767342" x2="74.7572501" y2="59.2022388" id="Path" stroke="#414C57" stroke-width="3" stroke-linecap="round" stroke-linejoin="round"></line>
                <line x1="74.7572501" y1="9.5409327" x2="74.7572501" y2="18.1694811" id="Path" stroke="#414C57" stroke-width="3" stroke-linecap="round" stroke-linejoin="round"></line>
                <polygon id="Path" stroke="#414C57" stroke-width="3" stroke-linecap="round" stroke-linejoin="round" points="37.6909301 18.465431 0 18.465431 11.0378394 7.07979529 26.6515598 7.07979529"></polygon>
                <g id="Group" transform="translate(10.290757, 0.000000)" stroke-linejoin="round" stroke-width="3">
                    <line x1="0.765453495" y1="7.0966629" x2="0.765453495" y2="0" id="Path" stroke="#394553"></line>
                    <line x1="16.3424321" y1="7.0966629" x2="16.3424321" y2="0" id="Path" stroke="#414C57"></line>
                </g>
                <line x1="37.9435298" y1="47.9898794" x2="66.2653091" y2="47.9898794" id="Path" stroke="#414C57" stroke-width="3" stroke-linejoin="round"></line>
                <rect id="Rectangle" stroke="#414C57" stroke-width="3" stroke-linecap="round" stroke-linejoin="round" x="7.55349509" y="52.4935309" width="22.6941652" height="17.5239118"></rect>
                <line x1="8.51643559" y1="62.5573595" x2="29.2877816" y2="62.5573595" id="Path" stroke="#414C57" stroke-width="3" stroke-linejoin="round"></line>
                <line x1="6.39919122" y1="43.7515095" x2="31.405026" y2="43.7515095" id="Path" stroke="#414C57" stroke-width="3" stroke-linejoin="round"></line>
            </g>
        </g>
    </g>
</svg>