<?xml version="1.0" encoding="utf-8"?>
<!-- Generator: Adobe Illustrator 25.0.1, SVG Export Plug-In . SVG Version: 6.00 Build 0)  -->
<svg version="1.1" id="Laag_1" xmlns="http://www.w3.org/2000/svg" xmlns:xlink="http://www.w3.org/1999/xlink" x="0px" y="0px"
	 viewBox="0 0 46 48" style="enable-background:new 0 0 46 48;" xml:space="preserve">
<style type="text/css">
	.st0{fill-rule:evenodd;clip-rule:evenodd;fill:#FFEB00;}
	.st1{enable-background:new    ;}
	.st2{fill:#FFFFFF;}
</style>
<g id="Styleguide">
	<g id="Styles" transform="translate(-443.000000, -2066.000000)">
		<g id="D" transform="translate(443.000000, 2066.000000)">
			<path id="house" class="st0" d="M46,45.4c0,0.7-0.2,1.3-0.7,1.8c-0.5,0.5-1.1,0.7-1.8,0.7H2.6c-0.7,0-1.3-0.2-1.8-0.7
				C0.2,46.8,0,46.2,0,45.4V18.5c0-0.8,0.3-1.5,1-2L21.4,0.6C21.9,0.2,22.4,0,23,0s1.1,0.2,1.6,0.6L45,16.5c0.6,0.5,1,1.2,1,2V45.4z
				"/>
			<g class="st1">
				<path class="st2" d="M22.4,21.4c4.8,0,7.6,2.9,7.6,8c0,5.3-2.8,8.2-7.6,8.2H16V21.4H22.4z M19.4,34.9h2.5c3,0,4.7-1.9,4.7-5.4
					c0-3.4-1.7-5.3-4.7-5.3h-2.5V34.9z"/>
			</g>
		</g>
	</g>
</g>
</svg>
