<?xml version="1.0" encoding="utf-8"?>
<!-- Generator: Adobe Illustrator 25.0.1, SVG Export Plug-In . SVG Version: 6.00 Build 0)  -->
<svg version="1.1" id="Laag_1" xmlns="http://www.w3.org/2000/svg" xmlns:xlink="http://www.w3.org/1999/xlink" x="0px" y="0px"
	 viewBox="0 0 46 48" style="enable-background:new 0 0 46 48;" xml:space="preserve">
<style type="text/css">
	.st0{opacity:0.5;fill-rule:evenodd;clip-rule:evenodd;fill:#647585;enable-background:new    ;}
	.st1{enable-background:new    ;}
	.st2{fill:#FFFFFF;}
</style>
<g id="Styleguide">
	<g id="Styles" transform="translate(-851.000000, -2066.000000)">
		<g id="Onbekend" transform="translate(851.000000, 2066.000000)">
			<path id="house" class="st0" d="M46,45.4c0,0.7-0.2,1.3-0.7,1.8c-0.5,0.5-1.1,0.7-1.8,0.7H2.6c-0.7,0-1.3-0.2-1.8-0.7
				C0.2,46.8,0,46.2,0,45.4V18.5c0-0.8,0.3-1.5,1-2L21.4,0.6C21.9,0.2,22.4,0,23,0s1.1,0.2,1.6,0.6L45,16.5c0.6,0.5,1,1.2,1,2V45.4z
				"/>
			<g class="st1">
				<path class="st2" d="M23.1,21.2c3.2,0,5.3,1.8,5.3,4.4c0,1.7-0.8,2.9-2.4,3.8c-1.5,0.9-1.9,1.4-1.9,2.5v0.6h-3l0-0.7
					c-0.1-1.8,0.5-2.8,2-3.7c1.5-0.9,1.9-1.4,1.9-2.5c0-1.1-0.9-1.8-2.1-1.8c-1.3,0-2.2,0.8-2.2,2.1h-3.1
					C17.6,23.1,19.6,21.2,23.1,21.2z M20.7,36c0-1.2,0.8-1.9,2-1.9s2,0.7,2,1.9c0,1.2-0.8,1.9-2,1.9S20.7,37.2,20.7,36z"/>
			</g>
		</g>
	</g>
</g>
</svg>
