<?xml version="1.0" encoding="UTF-8"?>
<svg width="12px" height="9px" viewBox="0 0 12 9" version="1.1" xmlns="http://www.w3.org/2000/svg" xmlns:xlink="http://www.w3.org/1999/xlink">
    <title>mail</title>
    <g id="Styleguide" stroke="none" stroke-width="1" fill="none" fill-rule="evenodd">
        <g id="Styles" transform="translate(-215.000000, -2013.000000)" fill="#647585">
            <path d="M215,2021.03571 L215,2013.96428 C215,2013.90714 215.008772,2013.83929 215.026316,2013.76071 L219.984211,2018.81786 C220.261405,2019.1 220.601753,2019.24107 221.005262,2019.24107 C221.401756,2019.24107 221.738595,2019.1 222.015789,2018.81786 L226.984211,2013.76071 C226.994736,2013.83214 227,2013.9 227,2013.96428 L227,2021.03571 C227,2021.3 226.907896,2021.52678 226.723684,2021.71607 C226.539475,2021.90536 226.317546,2022 226.057894,2022 L215.952632,2022 C215.692981,2022 215.469299,2021.90536 215.281579,2021.71607 C215.093859,2021.52678 215,2021.3 215,2021.03571 Z M215.678947,2013.04286 C215.770176,2013.01428 215.861403,2013 215.952632,2013 L226.057894,2013 C226.142106,2013 226.229824,2013.01428 226.321052,2013.04286 L221.326316,2018.12143 C221.238596,2018.21071 221.129826,2018.25536 221.000001,2018.25536 C220.870174,2018.25536 220.761404,2018.21071 220.673684,2018.12143 L215.678947,2013.04286 Z" id="mail"></path>
        </g>
    </g>
</svg>