<?xml version="1.0" encoding="UTF-8"?>
<svg width="12px" height="9px" viewBox="0 0 12 9" version="1.1" xmlns="http://www.w3.org/2000/svg" xmlns:xlink="http://www.w3.org/1999/xlink">
    <title>mail green</title>
    <g id="Start" stroke="none" stroke-width="1" fill="none" fill-rule="evenodd">
        <g id="Inloggen" transform="translate(-666.000000, -378.000000)" fill="#2CA982">
            <g id="Login-box" transform="translate(300.000000, 140.000000)">
                <g id="Mail-(active)" transform="translate(85.000000, 220.000000)">
                    <path d="M281,26.0357142 L281,18.9642842 C281,18.9071414 281.008772,18.8392857 281.026316,18.7607119 L285.984211,23.8178568 C286.261405,24.1000002 286.601753,24.2410719 287.005262,24.2410719 C287.401756,24.2410719 287.738595,24.1000002 288.015789,23.8178568 L292.984211,18.7607119 C292.994736,18.8321412 293,18.8999995 293,18.9642842 L293,26.0357142 C293,26.3000013 292.907896,26.5267847 292.723684,26.7160714 C292.539475,26.9053581 292.317546,27 292.057894,27 L281.952632,27 C281.692981,27 281.469299,26.9053581 281.281579,26.7160714 C281.093859,26.5267847 281,26.3000013 281,26.0357142 Z M281.678947,18.0428565 C281.770176,18.0142838 281.861403,18 281.952632,18 L292.057894,18 C292.142106,18 292.229824,18.0142838 292.321052,18.0428565 L287.326316,23.121427 C287.238596,23.2107136 287.129826,23.2553568 287.000001,23.2553568 C286.870174,23.2553568 286.761404,23.2107136 286.673684,23.121427 L281.678947,18.0428565 Z" id="mail-green"></path>
                </g>
            </g>
        </g>
    </g>
</svg>