<?xml version="1.0" encoding="UTF-8"?>
<svg width="15px" height="16px" viewBox="0 0 15 16" version="1.1" xmlns="http://www.w3.org/2000/svg" xmlns:xlink="http://www.w3.org/1999/xlink">
    <title>moneybag</title>
    <g id="Styleguide" stroke="none" stroke-width="1" fill="none" fill-rule="evenodd">
        <g id="Styles" transform="translate(-477.000000, -2009.000000)" fill="#647585" fill-rule="nonzero">
            <path d="M487.122105,2012.9783 L488.11228,2010.90977 C488.316119,2010.48972 488.286476,2009.99513 488.033896,2009.60194 C487.800176,2009.22881 487.388936,2009.00132 486.945741,2009 L482.053657,2009 C481.610462,2009.00132 481.199223,2009.22881 480.965503,2009.60194 C480.713191,2009.99471 480.683125,2010.48865 480.885966,2010.90862 L481.877293,2012.9783 C478.044546,2014.51342 477.00711,2019.27984 477.00711,2021.70131 C476.949378,2022.5349 477.245166,2023.35457 477.823226,2023.96288 C478.926366,2025.0434 480.935532,2025.01599 483.263998,2024.99086 C484.070892,2024.98058 484.934269,2024.98058 485.7354,2024.99086 C486.110029,2024.99086 486.47659,2025 486.831623,2025 C488.685174,2025 490.249396,2024.87207 491.176172,2023.97202 C491.756672,2023.36149 492.052646,2022.53799 491.992288,2021.70131 C491.992288,2019.27984 490.954852,2014.51342 487.122105,2012.9783 Z M485.313157,2018.21637 C485.617261,2018.21637 485.863787,2018.46772 485.863787,2018.77778 C485.863787,2019.08783 485.617261,2019.33918 485.313157,2019.33918 L484.023216,2019.33918 C483.968128,2019.33912 483.915949,2019.36439 483.881189,2019.40796 C483.846429,2019.45153 483.832795,2019.50877 483.844078,2019.56374 C484.079013,2020.65511 484.852831,2021.21053 486.152316,2021.21053 C486.456421,2021.21053 486.702946,2021.46188 486.702946,2021.77193 C486.702946,2022.08198 486.456421,2022.33333 486.152316,2022.33333 C484.21924,2022.33333 482.987299,2021.28538 482.728136,2019.49862 C482.715159,2019.40801 482.639541,2019.34043 482.549732,2019.33918 L481.962394,2019.33918 C481.65829,2019.33918 481.411765,2019.08783 481.411765,2018.77778 C481.411765,2018.46772 481.65829,2018.21637 481.962394,2018.21637 L482.549732,2018.21637 C482.64054,2018.21628 482.717633,2018.1485 482.731073,2018.05694 C482.990236,2016.27242 484.222177,2015.22222 486.155253,2015.22222 C486.459357,2015.22222 486.705882,2015.47357 486.705882,2015.78363 C486.705882,2016.09368 486.459357,2016.34503 486.155253,2016.34503 C484.855768,2016.34503 484.08195,2016.89745 483.847015,2017.99181 C483.836016,2018.04675 483.849757,2018.10382 483.884457,2018.14732 C483.919157,2018.19082 483.971159,2018.21616 484.026153,2018.21637 L485.313157,2018.21637 Z" id="moneybag"></path>
        </g>
    </g>
</svg>