<?xml version="1.0" encoding="UTF-8"?>
<svg width="138px" height="91px" viewBox="0 0 138 91" version="1.1" xmlns="http://www.w3.org/2000/svg" xmlns:xlink="http://www.w3.org/1999/xlink">
    <title>Zeven</title>
    <g id="Styleguide" stroke="none" stroke-width="1" fill="none" fill-rule="evenodd" stroke-linecap="round" stroke-linejoin="round">
        <g id="Styles" transform="translate(-982.000000, -3574.000000)" stroke="#394553" stroke-width="3">
            <g id="zevental" transform="translate(984.000000, 3576.000000)">
                <path d="M41.02,54.2600055 C41.02,59.3189338 45.1210717,63.4200055 50.18,63.4200055 C55.2389283,63.4200055 59.34,59.3189338 59.34,54.2600055 C59.34,49.2010772 55.2389283,45.1000055 50.18,45.1000055 C45.1233563,45.1055168 41.0255113,49.2033618 41.02,54.2600055 L41.02,54.2600055 Z" id="Path"></path>
                <path d="M35.19,86.8000055 L35.19,76.7500055 C35.19,71.227158 39.6671525,66.7500055 45.19,66.7500055 L54.47,66.7500055 C59.9928475,66.7500055 64.47,71.227158 64.47,76.7500055 L64.47,86.8000055" id="Path"></path>
                <path d="M5.81999451,54.2600055 C5.8159556,57.9707412 8.04867069,61.3181557 11.4761711,62.7400617 C14.9036715,64.1619677 18.8502758,63.3780572 21.4741637,60.7541692 C24.0980517,58.1302813 24.8819622,54.183677 23.4600562,50.7561766 C22.0381503,47.3286762 18.6907357,45.0959611 14.98,45.1 C9.92335632,45.1055168 5.82551133,49.2033618 5.81999451,54.2600055 Z" id="Path"></path>
                <path d="M0,86.8000055 L0,76.7500055 C0,71.227158 4.4771525,66.7500055 10,66.7500055 L19.27,66.7500055 C24.7928475,66.7500055 29.27,71.227158 29.27,76.7500055 L29.27,86.8000055" id="Path"></path>
                <path d="M75.87,54.2600055 C75.87,59.3189338 79.9710717,63.4200055 85.03,63.4200055 C90.0889283,63.4200055 94.19,59.3189338 94.19,54.2600055 C94.19,49.2010772 90.0889283,45.1000055 85.03,45.1000055 C79.9733563,45.1055168 75.8755113,49.2033618 75.87,54.2600055 Z" id="Path"></path>
                <path d="M70.04,86.8000055 L70.04,76.7500055 C70.04,71.227158 74.5171525,66.7500055 80.04,66.7500055 L89.32,66.7500055 C94.8428475,66.7500055 99.32,71.227158 99.32,76.7500055 L99.32,86.8000055" id="Path"></path>
                <path d="M59.4899945,9.17000549 C59.4955214,14.2276284 63.5990348,18.323683 68.6566594,18.3200055 C73.7142839,18.3163231 77.8118324,14.2143014 77.8099946,9.1566758 C77.8081555,4.09905023 73.7076259,5.49138706e-06 68.65,5.49138706e-06 C66.2188833,5.49138706e-06 63.8874848,0.966445292 62.1693638,2.68644194 C60.4512428,4.4064386 59.4873459,6.73889029 59.4899945,9.17000549 L59.4899945,9.17000549 Z" id="Path"></path>
                <path d="M53.67,41.7200055 L53.67,31.7200055 C53.67,26.197158 58.1471525,21.7200055 63.67,21.7200055 L72.94,21.7200055 C78.4628475,21.7200055 82.94,26.197158 82.94,31.7200055 L82.94,41.7200055" id="Path"></path>
                <path d="M24.2899945,9.17000549 C24.2899945,12.8798338 26.5252845,16.2241795 29.9531065,17.6429333 C33.3809285,19.0616871 37.3258924,18.2753063 39.9477057,15.6506308 C42.5695189,13.0259553 43.3515949,9.08013574 41.9291018,5.65386378 C40.5066087,2.22759182 37.1598261,-0.00404012292 33.45,3.55271368e-15 C31.0188833,3.55271368e-15 28.6874848,0.966445292 26.9693638,2.68644194 C25.2512428,4.4064386 24.2873459,6.73889029 24.2899945,9.17000549 Z" id="Path"></path>
                <path d="M18.47,41.7200055 L18.47,31.7200055 C18.47,26.197158 22.9471525,21.7200055 28.47,21.7200055 L37.74,21.7200055 C43.2628475,21.7200055 47.74,26.197158 47.74,31.7200055 L47.74,41.7200055" id="Path"></path>
                <path d="M94.3399945,9.17000549 C94.3455214,14.2276284 98.4490348,18.323683 103.506659,18.3200055 C108.564284,18.3163231 112.661832,14.2143014 112.659995,9.1566758 C112.658155,4.09905023 108.557626,5.49138706e-06 103.5,5.49138706e-06 C101.068883,5.49138706e-06 98.7374848,0.966445292 97.0193638,2.68644194 C95.3012428,4.4064386 94.3373459,6.73889029 94.3399945,9.17000549 L94.3399945,9.17000549 Z" id="Path"></path>
                <path d="M88.51,41.7200055 L88.51,31.7200055 C88.51,26.197158 92.9871525,21.7200055 98.51,21.7200055 L107.79,21.7200055 C113.312847,21.7200055 117.79,26.197158 117.79,31.7200055 L117.79,41.7200055" id="Path"></path>
                <path d="M110.709995,54.2600055 C110.705954,57.9698316 112.937586,61.3166142 116.363858,62.7391073 C119.79013,64.1616004 123.73595,63.3795244 126.360625,60.7577112 C128.985301,58.1358979 129.771682,54.190934 128.352928,50.763112 C126.934174,47.33529 123.589828,45.1000055 119.88,45.1000055 C114.82173,45.1055036 110.721017,49.2017446 110.709995,54.2600055 L110.709995,54.2600055 Z" id="Path"></path>
                <path d="M104.89,86.8000055 L104.89,76.7500055 C104.89,71.227158 109.367153,66.7500055 114.89,66.7500055 L124.16,66.7500055 C129.682847,66.7500055 134.16,71.227158 134.16,76.7500055 L134.16,86.8000055" id="Path"></path>
            </g>
        </g>
    </g>
</svg>