<?xml version="1.0" encoding="UTF-8"?>
<svg width="138px" height="89px" viewBox="0 0 138 89" version="1.1" xmlns="http://www.w3.org/2000/svg" xmlns:xlink="http://www.w3.org/1999/xlink">
    <title>Meer dan zeven</title>
    <g id="Styleguide" stroke="none" stroke-width="1" fill="none" fill-rule="evenodd" stroke-linecap="round" stroke-linejoin="round">
        <g id="Styles" transform="translate(-1159.000000, -3575.000000)" stroke="#394553" stroke-width="3">
            <g id="meer-dan-zeven" transform="translate(1161.000000, 3577.000000)">
                <path d="M41.02,52.4600055 C41.02,57.5189338 45.1210717,61.6200055 50.18,61.6200055 C55.2389283,61.6200055 59.34,57.5189338 59.34,52.4600055 C59.34,47.4010772 55.2389283,43.3000055 50.18,43.3000055 C45.1233563,43.3055168 41.0255113,47.4033618 41.02,52.4600055 L41.02,52.4600055 Z" id="Path"></path>
                <path d="M35.19,85.0000055 L35.19,74.9500055 C35.19,69.427158 39.6671525,64.9500055 45.19,64.9500055 L54.47,64.9500055 C59.9928475,64.9500055 64.47,69.427158 64.47,74.9500055 L64.47,85.0000055" id="Path"></path>
                <path d="M5.81999451,52.4600055 C5.8159556,56.1707412 8.04867069,59.5181557 11.4761711,60.9400617 C14.9036715,62.3619677 18.8502758,61.5780572 21.4741637,58.9541692 C24.0980517,56.3302813 24.8819622,52.383677 23.4600562,48.9561766 C22.0381503,45.5286762 18.6907357,43.2959611 14.98,43.3 C9.92335632,43.3055168 5.82551133,47.4033618 5.81999451,52.4600055 Z" id="Path"></path>
                <path d="M0,85.0000055 L0,74.9500055 C0,69.427158 4.4771525,64.9500055 10,64.9500055 L19.27,64.9500055 C24.7928475,64.9500055 29.27,69.427158 29.27,74.9500055 L29.27,85.0000055" id="Path"></path>
                <path d="M75.87,52.4600055 C75.87,57.5189338 79.9710717,61.6200055 85.03,61.6200055 C90.0889283,61.6200055 94.19,57.5189338 94.19,52.4600055 C94.19,47.4010772 90.0889283,43.3000055 85.03,43.3000055 C79.9733563,43.3055168 75.8755113,47.4033618 75.87,52.4600055 Z" id="Path"></path>
                <path d="M70.04,85.0000055 L70.04,74.9500055 C70.04,69.427158 74.5171525,64.9500055 80.04,64.9500055 L89.32,64.9500055 C94.8428475,64.9500055 99.32,69.427158 99.32,74.9500055 L99.32,85.0000055" id="Path"></path>
                <path d="M110.709995,52.4600055 C110.705954,56.1698316 112.937586,59.5166142 116.363858,60.9391073 C119.79013,62.3616004 123.73595,61.5795244 126.360625,58.9577112 C128.985301,56.3358979 129.771682,52.390934 128.352928,48.963112 C126.934174,45.53529 123.589828,43.3000055 119.88,43.3000055 C114.82173,43.3055036 110.721017,47.4017446 110.709995,52.4600055 L110.709995,52.4600055 Z" id="Path"></path>
                <path d="M104.89,85.0000055 L104.89,74.9500055 C104.89,69.427158 109.367153,64.9500055 114.89,64.9500055 L124.16,64.9500055 C129.682847,64.9500055 134.16,69.427158 134.16,74.9500055 L134.16,85.0000055" id="Path"></path>
                <path d="M41.02,9.16000549 C41.02,14.2189338 45.1210717,18.3200055 50.18,18.3200055 C55.2389283,18.3200055 59.34,14.2189338 59.34,9.16000549 C59.34,4.10107718 55.2389283,5.48544203e-06 50.18,5.48544203e-06 C45.1233563,0.00551681861 41.0255113,4.10336181 41.02,9.16000549 L41.02,9.16000549 Z" id="Path"></path>
                <path d="M35.19,41.7200055 L35.19,31.6700055 C35.19,26.147158 39.6671525,21.6700055 45.19,21.6700055 L54.47,21.6700055 C59.9928475,21.6700055 64.47,26.147158 64.47,31.6700055 L64.47,41.7200055" id="Path"></path>
                <path d="M5.81999451,9.16000549 C5.8159556,12.8707412 8.04867069,16.2181557 11.4761711,17.6400617 C14.9036715,19.0619677 18.8502758,18.2780572 21.4741637,15.6541692 C24.0980517,13.0302813 24.8819622,9.08367703 23.4600562,5.6561766 C22.0381503,2.22867618 18.6907357,-0.00403891674 14.98,7.10542736e-15 C9.92335632,0.00551681861 5.82551133,4.10336181 5.81999451,9.16000549 Z" id="Path"></path>
                <path d="M0,41.7200055 L0,31.6700055 C0,26.147158 4.4771525,21.6700055 10,21.6700055 L19.27,21.6700055 C24.7928475,21.6700055 29.27,26.147158 29.27,31.6700055 L29.27,41.7200055" id="Path"></path>
                <path d="M75.87,9.16000549 C75.87,14.2189338 79.9710717,18.3200055 85.03,18.3200055 C90.0889283,18.3200055 94.19,14.2189338 94.19,9.16000549 C94.19,4.10107718 90.0889283,5.48544203e-06 85.03,5.48544203e-06 C79.9733563,0.00551681861 75.8755113,4.10336181 75.87,9.16000549 Z" id="Path"></path>
                <path d="M70.04,41.7200055 L70.04,31.6700055 C70.04,26.147158 74.5171525,21.6700055 80.04,21.6700055 L89.32,21.6700055 C94.8428475,21.6700055 99.32,26.147158 99.32,31.6700055 L99.32,41.7200055" id="Path"></path>
                <path d="M110.709995,9.16000549 C110.705954,12.8698316 112.937586,16.2166142 116.363858,17.6391073 C119.79013,19.0616004 123.73595,18.2795244 126.360625,15.6577112 C128.985301,13.0358979 129.771682,9.09093403 128.352928,5.66311202 C126.934174,2.23529001 123.589828,5.48544203e-06 119.88,5.48544203e-06 C114.82173,0.0055035885 110.721017,4.10174464 110.709995,9.16000549 L110.709995,9.16000549 Z" id="Path"></path>
                <path d="M104.89,41.7200055 L104.89,31.6700055 C104.89,26.147158 109.367153,21.6700055 114.89,21.6700055 L124.16,21.6700055 C129.682847,21.6700055 134.16,26.147158 134.16,31.6700055 L134.16,41.7200055" id="Path"></path>
            </g>
        </g>
    </g>
</svg>