<?xml version="1.0" encoding="UTF-8"?>
<svg width="79px" height="101px" viewBox="0 0 79 101" version="1.1" xmlns="http://www.w3.org/2000/svg" xmlns:xlink="http://www.w3.org/1999/xlink">
    <title>Vier</title>
    <g id="Styleguide" stroke="none" stroke-width="1" fill="none" fill-rule="evenodd" stroke-linecap="round" stroke-linejoin="round">
        <g id="Styles" transform="translate(-550.000000, -3569.000000)" stroke="#394553" stroke-width="3">
            <g id="viertal" transform="translate(552.000000, 3571.000000)">
                <path d="M6.61,60.73 C6.61,66.4737614 11.2662386,71.13 17.01,71.13 C22.7537614,71.13 27.41,66.4737614 27.41,60.73 C27.41,54.9862386 22.7537614,50.33 17.01,50.33 C11.2662386,50.33 6.61,54.9862386 6.61,60.73 L6.61,60.73 Z" id="Path"></path>
                <path d="M-7.10542736e-15,96.55 L-7.10542736e-15,86.89 C-7.10542736e-15,80.262583 5.372583,74.89 12,74.89 L21.23,74.89 C27.857417,74.89 33.23,80.262583 33.23,86.89 L33.23,96.51" id="Path"></path>
                <path d="M48.58,60.73 C48.58,66.4737614 53.2362386,71.13 58.98,71.13 C64.7237614,71.13 69.38,66.4737614 69.38,60.73 C69.38,54.9862386 64.7237614,50.33 58.98,50.33 C53.2362386,50.33 48.58,54.9862386 48.58,60.73 L48.58,60.73 Z" id="Path"></path>
                <path d="M41.97,96.55 L41.97,86.89 C41.97,80.262583 47.342583,74.89 53.97,74.89 L63.2,74.89 C69.827417,74.89 75.2,80.262583 75.2,86.89 L75.2,96.51" id="Path"></path>
                <path d="M6.61,10.4 C6.61,16.1437614 11.2662386,20.8 17.01,20.8 C22.7537614,20.8 27.41,16.1437614 27.41,10.4 C27.41,4.6562386 22.7537614,-3.55271368e-15 17.01,-3.55271368e-15 C11.2662386,-3.55271368e-15 6.61,4.6562386 6.61,10.4 L6.61,10.4 Z" id="Path"></path>
                <path d="M-7.10542736e-15,46.22 L-7.10542736e-15,36.6 C-7.10542736e-15,29.972583 5.372583,24.6 12,24.6 L21.23,24.6 C27.857417,24.6 33.23,29.972583 33.23,36.6 L33.23,46.22" id="Path"></path>
                <path d="M48.58,10.4 C48.58,16.1437614 53.2362386,20.8 58.98,20.8 C64.7237614,20.8 69.38,16.1437614 69.38,10.4 C69.38,4.6562386 64.7237614,-3.55271368e-15 58.98,-3.55271368e-15 C53.2362386,-3.55271368e-15 48.58,4.6562386 48.58,10.4 L48.58,10.4 Z" id="Path"></path>
                <path d="M41.97,46.22 L41.97,36.6 C41.97,29.972583 47.342583,24.6 53.97,24.6 L63.2,24.6 C69.827417,24.6 75.2,29.972583 75.2,36.6 L75.2,46.22" id="Path"></path>
            </g>
        </g>
    </g>
</svg>