<?xml version="1.0" encoding="UTF-8"?>
<svg width="118px" height="101px" viewBox="0 0 118 101" version="1.1" xmlns="http://www.w3.org/2000/svg" xmlns:xlink="http://www.w3.org/1999/xlink">
    <title>Vijf</title>
    <g id="Styleguide" stroke="none" stroke-width="1" fill="none" fill-rule="evenodd" stroke-linecap="round" stroke-linejoin="round">
        <g id="Styles" transform="translate(-668.000000, -3569.000000)" stroke="#394553" stroke-width="3">
            <g id="vijftal" transform="translate(670.000000, 3571.000000)">
                <path d="M47.21,60.73 C47.21,66.4737614 51.8662386,71.13 57.61,71.13 C63.3537614,71.13 68.01,66.4737614 68.01,60.73 C68.01,54.9862386 63.3537614,50.33 57.61,50.33 C51.8662386,50.33 47.21,54.9862386 47.21,60.73 Z" id="Path"></path>
                <path d="M40.6,96.55 L40.6,86.89 C40.6,80.262583 45.972583,74.89 52.6,74.89 L61.82,74.89 C68.447417,74.89 73.82,80.262583 73.82,86.89 L73.82,96.51" id="Path"></path>
                <path d="M6.61,60.73 C6.61,66.4737614 11.2662386,71.13 17.01,71.13 C22.7537614,71.13 27.41,66.4737614 27.41,60.73 C27.41,54.9862386 22.7537614,50.33 17.01,50.33 C11.2662386,50.33 6.61,54.9862386 6.61,60.73 L6.61,60.73 Z" id="Path"></path>
                <path d="M-7.10542736e-15,96.55 L-7.10542736e-15,86.89 C-7.10542736e-15,80.262583 5.372583,74.89 12,74.89 L21.22,74.89 C27.847417,74.89 33.22,80.262583 33.22,86.89 L33.22,96.51" id="Path"></path>
                <path d="M87.81,60.73 C87.81,66.4737614 92.4662386,71.13 98.21,71.13 C103.953761,71.13 108.61,66.4737614 108.61,60.73 C108.61,54.9862386 103.953761,50.33 98.21,50.33 C92.4662386,50.33 87.81,54.9862386 87.81,60.73 L87.81,60.73 Z" id="Path"></path>
                <path d="M81.2,96.55 L81.2,86.89 C81.2,80.262583 86.572583,74.89 93.2,74.89 L102.42,74.89 C109.047417,74.89 114.42,80.262583 114.42,86.89 L114.42,96.51" id="Path"></path>
                <path d="M27.22,10.4 C27.22,16.1437614 31.8762386,20.8 37.62,20.8 C43.3637614,20.8 48.02,16.1437614 48.02,10.4 C48.02,4.6562386 43.3637614,-3.55271368e-15 37.62,-3.55271368e-15 C31.8762386,-3.55271368e-15 27.22,4.6562386 27.22,10.4 L27.22,10.4 Z" id="Path"></path>
                <path d="M20.61,46.22 L20.61,36.6 C20.61,29.972583 25.982583,24.6 32.61,24.6 L41.84,24.6 C48.467417,24.6 53.84,29.972583 53.84,36.6 L53.84,46.22" id="Path"></path>
                <path d="M69.19,10.4 C69.19,16.1437614 73.8462386,20.8 79.59,20.8 C85.3337614,20.8 89.99,16.1437614 89.99,10.4 C89.99,4.6562386 85.3337614,-3.55271368e-15 79.59,-3.55271368e-15 C73.8462386,-3.55271368e-15 69.19,4.6562386 69.19,10.4 Z" id="Path"></path>
                <path d="M62.58,46.22 L62.58,36.6 C62.58,29.972583 67.952583,24.6 74.58,24.6 L83.81,24.6 C90.437417,24.6 95.81,29.972583 95.81,36.6 L95.81,46.22" id="Path"></path>
            </g>
        </g>
    </g>
</svg>