<?xml version="1.0" encoding="UTF-8"?>
<svg width="99px" height="62px" viewBox="0 0 99 62" version="1.1" xmlns="http://www.w3.org/2000/svg" xmlns:xlink="http://www.w3.org/1999/xlink">
    <title>Twee</title>
    <g id="Styleguide" stroke="none" stroke-width="1" fill="none" fill-rule="evenodd" stroke-linecap="round" stroke-linejoin="round">
        <g id="Styles" transform="translate(-236.000000, -3588.000000)" stroke="#394553" stroke-width="3">
            <g id="tweetal" transform="translate(238.000000, 3590.000000)">
                <path d="M8.33999618,13.1300038 C8.33999618,20.3815026 14.2185012,26.2600038 21.47,26.2600038 C28.7214988,26.2600038 34.6,20.3815026 34.6,13.1300038 C34.6,5.87850505 28.7214988,0 21.47,0 C17.986894,-0.00265200029 14.6456838,1.37983044 12.1827552,3.84275904 C9.71982662,6.30568763 8.33734418,9.64689781 8.33999618,13.1300038 L8.33999618,13.1300038 Z" id="Path"></path>
                <path d="M-7.10542736e-15,58.3400038 L-7.10542736e-15,47.0500038 C-7.10542736e-15,38.2134478 7.163444,31.0500038 16,31.0500038 L25.95,31.0500038 C34.786556,31.0500038 41.95,38.2134478 41.95,47.0500038 L41.95,58.3400038" id="Path"></path>
                <path d="M61.3099962,13.1300038 C61.3099962,20.3815026 67.1885012,26.2600038 74.44,26.2600038 C81.6914988,26.2600038 87.57,20.3815026 87.57,13.1300038 C87.57,5.87850505 81.6914988,0 74.44,0 C70.956894,-0.00265200029 67.6156838,1.37983044 65.1527552,3.84275904 C62.6898266,6.30568763 61.3073442,9.64689781 61.3099962,13.1300038 L61.3099962,13.1300038 Z" id="Path"></path>
                <path d="M52.95,58.3400038 L52.95,47.0500038 C52.95,38.2134478 60.113444,31.0500038 68.95,31.0500038 L78.95,31.0500038 C87.786556,31.0500038 94.95,38.2134478 94.95,47.0500038 L94.95,58.3400038" id="Path"></path>
            </g>
        </g>
    </g>
</svg>