<?xml version="1.0" encoding="UTF-8"?>
<svg width="118px" height="100px" viewBox="0 0 118 100" version="1.1" xmlns="http://www.w3.org/2000/svg" xmlns:xlink="http://www.w3.org/1999/xlink">
    <title>Zes</title>
    <g id="Styleguide" stroke="none" stroke-width="1" fill="none" fill-rule="evenodd" stroke-linecap="round" stroke-linejoin="round">
        <g id="Styles" transform="translate(-825.000000, -3569.000000)" stroke="#394553" stroke-width="3">
            <g id="Zes" transform="translate(827.000000, 3571.000000)">
                <g id="zestal" transform="translate(0.000000, 0.000000)">
                    <path d="M47.21,60.4300048 C47.21,66.1737662 51.8662386,70.8300048 57.61,70.8300048 C63.3537614,70.8300048 68.01,66.1737662 68.01,60.4300048 C68.01,54.6862434 63.3537614,50.0300048 57.61,50.0300048 C51.8662386,50.0300048 47.21,54.6862434 47.21,60.4300048 Z" id="Path"></path>
                    <path d="M40.6,96.2500048 L40.6,86.5900048 C40.6,79.9625878 45.972583,74.5900048 52.6,74.5900048 L61.82,74.5900048 C68.447417,74.5900048 73.82,79.9625878 73.82,86.5900048 L73.82,96.2100048" id="Path"></path>
                    <path d="M6.61,60.4300048 C6.61,66.1737662 11.2662386,70.8300048 17.01,70.8300048 C22.7537614,70.8300048 27.41,66.1737662 27.41,60.4300048 C27.41,54.6862434 22.7537614,50.0300048 17.01,50.0300048 C11.2662386,50.0300048 6.61,54.6862434 6.61,60.4300048 L6.61,60.4300048 Z" id="Path"></path>
                    <path d="M-7.10542736e-15,96.2500048 L-7.10542736e-15,86.5900048 C-7.10542736e-15,79.9625878 5.372583,74.5900048 12,74.5900048 L21.22,74.5900048 C27.847417,74.5900048 33.22,79.9625878 33.22,86.5900048 L33.22,96.2100048" id="Path"></path>
                    <path d="M87.81,60.4300048 C87.81,66.1737662 92.4662386,70.8300048 98.21,70.8300048 C103.953761,70.8300048 108.61,66.1737662 108.61,60.4300048 C108.61,54.6862434 103.953761,50.0300048 98.21,50.0300048 C92.4662386,50.0300048 87.81,54.6862434 87.81,60.4300048 L87.81,60.4300048 Z" id="Path"></path>
                    <path d="M81.2,96.2500048 L81.2,86.5900048 C81.2,79.9625878 86.572583,74.5900048 93.2,74.5900048 L102.42,74.5900048 C109.047417,74.5900048 114.42,79.9625878 114.42,86.5900048 L114.42,96.2100048" id="Path"></path>
                    <path d="M47.2099952,10.4000048 C47.2099952,16.1437662 51.8662386,20.8000048 57.61,20.8000048 C63.3537614,20.8000048 68.01,16.1437662 68.01,10.4000048 C68.01,4.65624343 63.3537614,-3.55271368e-15 57.61,-3.55271368e-15 C54.8509349,-0.00265195703 52.2041103,1.092206 50.2531557,3.04316055 C48.3022012,4.9941151 47.2073432,7.64093972 47.2099952,10.4000048 Z" id="Path"></path>
                    <path d="M40.6,46.2300048 L40.6,36.5900048 C40.6,29.9625878 45.972583,24.5900048 52.6,24.5900048 L61.82,24.5900048 C68.447417,24.5900048 73.82,29.9625878 73.82,36.5900048 L73.82,46.2200048" id="Path"></path>
                    <path d="M6.60999518,10.4000048 C6.60999518,16.1437662 11.2662386,20.8000048 17.01,20.8000048 C22.7537614,20.8000048 27.41,16.1437662 27.41,10.4000048 C27.41,4.65624343 22.7537614,-3.55271368e-15 17.01,-3.55271368e-15 C14.2509349,-0.00265195703 11.6041103,1.092206 9.65315573,3.04316055 C7.70220118,4.9941151 6.60734322,7.64093972 6.60999518,10.4000048 Z" id="Path"></path>
                    <path d="M-7.10542736e-15,46.2300048 L-7.10542736e-15,36.5900048 C-7.10542736e-15,29.9625878 5.372583,24.5900048 12,24.5900048 L21.22,24.5900048 C27.847417,24.5900048 33.22,29.9625878 33.22,36.5900048 L33.22,46.2200048" id="Path"></path>
                    <path d="M87.8099952,10.4000048 C87.8099952,16.1437662 92.4662386,20.8000048 98.21,20.8000048 C103.953761,20.8000048 108.61,16.1437662 108.61,10.4000048 C108.61,4.65624343 103.953761,-3.55271368e-15 98.21,-3.55271368e-15 C95.4509349,-0.00265195703 92.8041103,1.092206 90.8531557,3.04316055 C88.9022012,4.9941151 87.8073432,7.64093972 87.8099952,10.4000048 L87.8099952,10.4000048 Z" id="Path"></path>
                    <path d="M81.2,46.2300048 L81.2,36.5900048 C81.2,29.9625878 86.572583,24.5900048 93.2,24.5900048 L102.42,24.5900048 C109.047417,24.5900048 114.42,29.9625878 114.42,36.5900048 L114.42,46.2200048" id="Path"></path>
                </g>
            </g>
        </g>
    </g>
</svg>