<?xml version="1.0" encoding="UTF-8"?>
<svg width="138px" height="62px" viewBox="0 0 138 62" version="1.1" xmlns="http://www.w3.org/2000/svg" xmlns:xlink="http://www.w3.org/1999/xlink">
    <title>Drie</title>
    <g id="Styleguide" stroke="none" stroke-width="1" fill="none" fill-rule="evenodd" stroke-linecap="round" stroke-linejoin="round">
        <g id="Styles" transform="translate(-373.000000, -3588.000000)" stroke="#394553" stroke-width="3">
            <g id="Drietal" transform="translate(375.000000, 3590.000000)">
                <path d="M104.299996,17.8600038 C104.299996,22.6173895 107.166317,26.9061435 111.561956,28.7257806 C115.957594,30.5454176 121.016564,29.5374477 124.379112,26.1720375 C127.741661,22.8066273 128.745326,17.7468023 126.921951,13.3527132 C125.098575,8.95862415 120.807384,6.09595842 116.05,6.09999954 C112.931973,6.09999954 109.941798,7.33931818 107.737958,9.54503392 C105.534118,11.7507497 104.297346,14.7419778 104.299996,17.8600038 Z" id="Path"></path>
                <path d="M96.83,58.3400038 L96.83,47.9000038 C96.83,40.1680173 103.098014,33.9000038 110.83,33.9000038 L120.38,33.9000038 C128.111986,33.9000038 134.38,40.1680173 134.38,47.9000038 L134.38,58.3400038" id="Path"></path>
                <path d="M7.46999574,17.8600038 C7.47552174,24.348045 12.7386185,29.6036823 19.226661,29.6000038 C25.7147035,29.5963216 30.9718343,24.3347166 30.9699957,17.8466733 C30.9681563,11.35863 25.7080435,6.10000382 19.22,6.10000382 C16.1019729,6.10000382 13.1117979,7.33931818 10.9079578,9.54503392 C8.70411766,11.7507497 7.46734636,14.7419778 7.46999574,17.8600038 Z" id="Path"></path>
                <path d="M-3.55271368e-15,58.3400038 L-3.55271368e-15,47.9000038 C-3.55271368e-15,40.1680173 6.2680135,33.9000038 14,33.9000038 L23.55,33.9000038 C31.2819865,33.9000038 37.55,40.1680173 37.55,47.9000038 L37.55,58.3400038" id="Path"></path>
                <path d="M54.1699962,13.1300038 C54.1699962,20.3815026 60.0485012,26.2600038 67.3,26.2600038 C74.5514988,26.2600038 80.43,20.3815026 80.43,13.1300038 C80.43,5.87850505 74.5514988,0 67.3,0 C63.816894,-0.00265200029 60.4756838,1.37983044 58.0127552,3.84275904 C55.5498266,6.30568763 54.1673442,9.64689781 54.1699962,13.1300038 L54.1699962,13.1300038 Z" id="Path"></path>
                <path d="M46.33,58.3400038 L46.33,47.0500038 C46.33,38.2134478 53.493444,31.0500038 62.33,31.0500038 L72.26,31.0500038 C81.096556,31.0500038 88.26,38.2134478 88.26,47.0500038 L88.26,58.3400038" id="Path"></path>
            </g>
        </g>
    </g>
</svg>