<?xml version="1.0" encoding="UTF-8"?>
<svg width="18px" height="16px" viewBox="0 0 18 16" version="1.1" xmlns="http://www.w3.org/2000/svg" xmlns:xlink="http://www.w3.org/1999/xlink">
    <title>Shape</title>
    <g id="Woonplan" stroke="none" stroke-width="1" fill="none" fill-rule="evenodd">
        <g transform="translate(-542.000000, -795.000000)" fill="#2CA982" fill-rule="nonzero" id="Controls-info-(sticky)">
            <g transform="translate(0.000000, 766.000000)">
                <g id="Nu-aanpakken-info" transform="translate(394.000000, 20.000000)">
                    <g id="besparing-icon" transform="translate(139.000000, 0.000000)">
                        <g id="piggybank-icon" transform="translate(9.000000, 9.000000)">
                            <path d="M17.9977111,6.00144119 C18.0132337,5.80691132 17.9493443,5.61430019 17.8200995,5.46598481 C17.6908546,5.31766944 17.5068427,5.22580056 17.3085487,5.21059057 C16.895442,5.18086712 16.5344855,5.48190744 16.4979018,5.88667589 C16.4945087,5.93777794 16.4538559,5.97893276 16.4018978,5.98386555 C16.3499396,5.98879835 16.301997,5.95605458 16.2886784,5.90653911 C15.9254236,4.67278218 15.1713819,3.58443855 14.1357022,2.79904795 C12.2376542,1.36595043 9.80459437,0.799492139 7.45255218,1.24309534 C7.38205677,1.25462837 7.31096028,1.22616003 7.26882555,1.16952784 C6.53923636,0.219711118 5.29774726,-0.204662352 4.12447545,0.094706675 C3.86096943,0.162125965 3.65542865,0.364385869 3.58751372,0.623097329 C3.5195988,0.881808789 3.59998487,1.15630648 3.79751703,1.34020444 C4.07400255,1.59488138 4.28037073,1.9139968 4.39744073,2.2678906 C4.42305741,2.34615229 4.3923984,2.43157168 4.32245027,2.4768223 C2.99602986,3.31398915 2.04131111,4.61219831 1.64979018,6.11105676 C1.62991343,6.19397838 1.55439424,6.25251562 1.46756336,6.25230636 L1.12485694,6.25230636 C0.503615607,6.25230636 0,6.74636573 0,7.35581885 L0,8.82716883 C0,9.43662195 0.503615607,9.93068132 1.12485694,9.93068132 L2.05548858,9.93068132 C2.1237187,9.93077626 2.18655409,9.96708656 2.2197177,10.0255834 C2.78206888,10.991358 3.58502588,11.8013535 4.5534209,12.3797434 C4.62413938,12.423409 4.65686356,12.5077174 4.63366069,12.586468 L3.97449452,14.8243914 C3.83063276,15.3123311 4.1169233,15.8223536 4.61416317,15.9639519 C4.69928653,15.9877672 4.78736267,16 4.87587989,16 C5.29241031,15.9997551 5.65889724,15.7301055 5.77576544,15.3378925 L6.35094229,13.3890895 C6.38028032,13.2918506 6.48406292,13.2360175 6.58341272,13.2640247 C8.16030112,13.7242602 9.83939436,13.726049 11.4172979,13.2691744 C11.46501,13.255686 11.5162221,13.2612389 11.5597798,13.2846236 C11.6037808,13.3079232 11.6362562,13.3477471 11.6497684,13.3949749 L12.2234454,15.3378925 C12.3403136,15.7301055 12.7068006,15.9997551 13.123331,16 C13.2118441,16 13.2999124,15.9877118 13.3850477,15.9639519 C13.8822876,15.8223536 14.1685781,15.3123311 14.0247163,14.8243914 L13.3648003,12.5886751 C13.3418609,12.5099353 13.3745257,12.4257798 13.4450401,12.3819504 C15.0622676,11.447781 16.1660295,9.85015888 16.4514077,8.03043281 C16.460383,7.9637717 16.5058646,7.90729252 16.5698926,7.88329781 C17.3773831,7.58049932 17.9337697,6.84718494 17.9977111,6.00144119 Z M12.8233691,4.74417262 C12.7338699,4.86124051 12.6006319,4.93863482 12.4529657,4.95932969 C12.3052996,4.98002457 12.1553015,4.94232479 12.0359693,4.85452387 C11.0664501,4.14297719 9.86957151,3.79490174 8.66139844,3.87313343 C8.35077778,3.89344854 8.08218279,3.6628875 8.06147474,3.35816094 C8.0407667,3.05343438 8.27578731,2.78993605 8.58640798,2.76962095 C10.063493,2.66974842 11.527788,3.09547763 12.7108834,3.96877118 C12.831087,4.0566233 12.9105705,4.18791317 12.93169,4.33349642 C12.9528094,4.47907967 12.9138172,4.62691048 12.8233691,4.74417262 L12.8233691,4.74417262 Z M4.49942776,6.98798135 C4.08526687,6.98798135 3.74952314,6.65860844 3.74952314,6.25230636 C3.74952314,5.84600428 4.08526687,5.51663137 4.49942776,5.51663137 C4.91358865,5.51663137 5.24933239,5.84600428 5.24933239,6.25230636 C5.24933239,6.65860844 4.91358865,6.98798135 4.49942776,6.98798135 Z" id="Shape"></path>
                        </g>
                    </g>
                </g>
            </g>
        </g>
    </g>
</svg>