<?xml version="1.0" encoding="UTF-8"?>
<svg width="18px" height="16px" viewBox="0 0 18 16" version="1.1" xmlns="http://www.w3.org/2000/svg" xmlns:xlink="http://www.w3.org/1999/xlink">
    <title>piggybank</title>
    <g id="Styleguide" stroke="none" stroke-width="1" fill="none" fill-rule="evenodd">
        <g id="Styles" transform="translate(-522.000000, -2009.000000)" fill="#647585" fill-rule="nonzero">
            <path d="M539.997711,2015.00144 C540.013234,2014.80691 539.949344,2014.6143 539.820099,2014.46598 C539.690855,2014.31767 539.506843,2014.2258 539.308549,2014.21059 C538.895442,2014.18087 538.534485,2014.48191 538.497902,2014.88668 C538.494509,2014.93778 538.453856,2014.97893 538.401898,2014.98387 C538.34994,2014.9888 538.301997,2014.95605 538.288678,2014.90654 C537.925424,2013.67278 537.171382,2012.58444 536.135702,2011.79905 C534.237654,2010.36595 531.804594,2009.79949 529.452552,2010.2431 C529.382057,2010.25463 529.31096,2010.22616 529.268826,2010.16953 C528.539236,2009.21971 527.297747,2008.79534 526.124475,2009.09471 C525.860969,2009.16213 525.655429,2009.36439 525.587514,2009.6231 C525.519599,2009.88181 525.599985,2010.15631 525.797517,2010.3402 C526.074003,2010.59488 526.280371,2010.914 526.397441,2011.26789 C526.423057,2011.34615 526.392398,2011.43157 526.32245,2011.47682 C524.99603,2012.31399 524.041311,2013.6122 523.64979,2015.11106 C523.629913,2015.19398 523.554394,2015.25252 523.467563,2015.25231 L523.124857,2015.25231 C522.503616,2015.25231 522,2015.74637 522,2016.35582 L522,2017.82717 C522,2018.43662 522.503616,2018.93068 523.124857,2018.93068 L524.055489,2018.93068 C524.123719,2018.93078 524.186554,2018.96709 524.219718,2019.02558 C524.782069,2019.99136 525.585026,2020.80135 526.553421,2021.37974 C526.624139,2021.42341 526.656864,2021.50772 526.633661,2021.58647 L525.974495,2023.82439 C525.830633,2024.31233 526.116923,2024.82235 526.614163,2024.96395 C526.699287,2024.98777 526.787363,2025 526.87588,2025 C527.29241,2024.99976 527.658897,2024.73011 527.775765,2024.33789 L528.350942,2022.38909 C528.38028,2022.29185 528.484063,2022.23602 528.583413,2022.26402 C530.160301,2022.72426 531.839394,2022.72605 533.417298,2022.26917 C533.46501,2022.25569 533.516222,2022.26124 533.55978,2022.28462 C533.603781,2022.30792 533.636256,2022.34775 533.649768,2022.39497 L534.223445,2024.33789 C534.340314,2024.73011 534.706801,2024.99976 535.123331,2025 C535.211844,2025 535.299912,2024.98771 535.385048,2024.96395 C535.882288,2024.82235 536.168578,2024.31233 536.024716,2023.82439 L535.3648,2021.58868 C535.341861,2021.50994 535.374526,2021.42578 535.44504,2021.38195 C537.062268,2020.44778 538.166029,2018.85016 538.451408,2017.03043 C538.460383,2016.96377 538.505865,2016.90729 538.569893,2016.8833 C539.377383,2016.5805 539.93377,2015.84718 539.997711,2015.00144 Z M534.823369,2013.74417 C534.73387,2013.86124 534.600632,2013.93863 534.452966,2013.95933 C534.3053,2013.98002 534.155302,2013.94232 534.035969,2013.85452 C533.06645,2013.14298 531.869572,2012.7949 530.661398,2012.87313 C530.350778,2012.89345 530.082183,2012.66289 530.061475,2012.35816 C530.040767,2012.05343 530.275787,2011.78994 530.586408,2011.76962 C532.063493,2011.66975 533.527788,2012.09548 534.710883,2012.96877 C534.831087,2013.05662 534.910571,2013.18791 534.93169,2013.3335 C534.952809,2013.47908 534.913817,2013.62691 534.823369,2013.74417 L534.823369,2013.74417 Z M526.499428,2015.98798 C526.085267,2015.98798 525.749523,2015.65861 525.749523,2015.25231 C525.749523,2014.846 526.085267,2014.51663 526.499428,2014.51663 C526.913589,2014.51663 527.249332,2014.846 527.249332,2015.25231 C527.249332,2015.65861 526.913589,2015.98798 526.499428,2015.98798 Z" id="piggybank"></path>
        </g>
    </g>
</svg>