<?xml version="1.0" encoding="UTF-8"?>
<svg width="93px" height="93px" viewBox="0 0 93 93" version="1.1" xmlns="http://www.w3.org/2000/svg" xmlns:xlink="http://www.w3.org/1999/xlink">
    <title>Anders</title>
    <g id="Styleguide" stroke="none" stroke-width="1" fill="none" fill-rule="evenodd">
        <g id="Styles" transform="translate(-748.000000, -2559.000000)">
            <g id="anders" transform="translate(750.000000, 2561.000000)">
                <path d="M44.6704597,21.3575935 C53.6246057,21.3575935 59.5405588,26.3711131 59.5405588,33.4702569 C59.5405588,38.2030194 57.2543939,41.4918882 52.8424966,44.0788644 C48.6812753,46.4953808 47.5181388,48.0295178 47.5181388,51.0977918 L47.5181388,51.5389815 C47.5181388,52.209053 46.9749385,52.7522533 46.3048671,52.7522533 L40.398941,52.7522533 C39.7288695,52.7522533 39.1856692,52.209053 39.1856692,51.5389815 L39.1856692,50.897251 C38.7745606,45.9840018 40.4992114,43.1664038 44.8208653,40.6295629 C48.8316809,38.2230735 50.0750338,36.6889365 50.0750338,33.7109058 C50.0750338,30.7328752 47.6986255,28.5770617 44.1289995,28.5770617 C41.180866,28.3957484 38.5771132,30.4830902 38.112776,33.4000676 C38.0069862,33.9772144 37.5063008,34.3979584 36.9195584,34.4027715 L30.7629563,34.4027715 C30.4163617,34.401904 30.0864033,34.2540519 29.8550716,33.9959546 C29.6237399,33.7378573 29.5127511,33.3937435 29.5496845,33.0491212 C30.2816584,26.080329 35.6360973,21.3575935 44.6704597,21.3575935 Z M38.3835061,62.7592384 C38.2975021,60.6680019 39.4920692,58.7346893 41.4008064,57.8759758 C43.3095436,57.0172623 45.5486786,57.4058017 47.0565311,58.857369 C48.5643836,60.3089362 49.0377835,62.531678 48.2522694,64.4716868 C47.4667553,66.4116956 45.5802634,67.6789117 43.487269,67.6724876 C40.722043,67.722814 38.4383618,65.5243782 38.3835061,62.7592384 Z" id="Shape" fill="#647585" fill-rule="nonzero"></path>
                <path d="M44.6704597,21.3575935 C53.6246057,21.3575935 59.5405588,26.2908968 59.5405588,33.3900406 C59.5405588,38.112776 57.2543939,41.4116719 52.8424966,43.998648 C48.6812753,46.4151645 47.5181388,47.9493015 47.5181388,51.0175755 L47.5181388,52.672037 L39.2257774,52.672037 L39.1656151,50.8571429 C38.7545065,45.9438936 40.4791573,43.1262956 44.8008112,40.5894547 C48.8116269,38.1829653 50.0549797,36.6488283 50.0549797,33.6707977 C50.0549797,30.692767 47.6785714,28.5369536 44.1089455,28.5369536 C42.5056389,28.4481236 40.9371452,29.0273078 39.7763393,30.1368178 C38.6155335,31.2463279 37.9660989,32.787062 37.9824245,34.3927445 L29.4594412,34.3927445 C29.6198738,26.7020054 35.0645561,21.3575935 44.6704597,21.3575935 Z M38.3835061,62.7592384 C38.2975021,60.6680019 39.4920692,58.7346893 41.4008064,57.8759758 C43.3095436,57.0172623 45.5486786,57.4058017 47.0565311,58.857369 C48.5643836,60.3089362 49.0377835,62.531678 48.2522694,64.4716868 C47.4667553,66.4116956 45.5802634,67.6789117 43.487269,67.6724876 C40.722043,67.722814 38.4383618,65.5243782 38.3835061,62.7592384 L38.3835061,62.7592384 Z" id="Shape" stroke="#394553" stroke-width="3" stroke-linecap="round" stroke-linejoin="round"></path>
                <circle id="Oval" stroke="#394553" stroke-width="3" stroke-linecap="round" stroke-linejoin="round" cx="44.5" cy="44.5" r="37.340694"></circle>
                <circle id="Oval" stroke="#394553" stroke-width="3" stroke-linecap="round" stroke-linejoin="round" cx="44.5" cy="44.5" r="44.5"></circle>
            </g>
        </g>
    </g>
</svg>