<?xml version="1.0" encoding="UTF-8"?>
<svg width="102px" height="97px" viewBox="0 0 102 97" version="1.1" xmlns="http://www.w3.org/2000/svg" xmlns:xlink="http://www.w3.org/1999/xlink">
    <title>Group 7</title>
    <g id="Styleguide" stroke="none" stroke-width="1" fill="none" fill-rule="evenodd">
        <g id="Styles" transform="translate(-591.000000, -2977.000000)">
            <g id="Group-2" transform="translate(593.000000, 2979.000000)">
                <g id="Lage-temp-radiatoren" stroke="#394553" stroke-linecap="round" stroke-linejoin="round" stroke-width="3">
                    <g id="radiator-verwarming-laag-icon">
                        <path d="M30.1,29.7 L30.1,86.7 C30.1,90.2 27.3,93 23.8,93 L23.8,93 C20.3,93 17.5,90.2 17.5,86.7 L17.5,29.7 C17.5,26.2 20.3,23.4 23.8,23.4 L23.8,23.4" id="Path"></path>
                        <path d="M23.8,23.4 C27.3,23.4 30.1,26.2 30.1,29.7" id="Path"></path>
                        <path d="M68.1,29.7 C68.1,26.2 70.9,23.4 74.4,23.4" id="Path"></path>
                        <path d="M42.8,86.7 C42.8,90.2 40,93 36.5,93 L36.5,93 C33,93 30.2,90.2 30.2,86.7 L30.2,29.7" id="Path"></path>
                        <path d="M55.4,41.4 L55.4,86.7 C55.4,90.2 52.6,93 49.1,93 L49.1,93 C45.6,93 42.8,90.2 42.8,86.7 L42.8,41.4" id="Path"></path>
                        <path d="M68.1,29.7 L68.1,86.7 C68.1,90.2 65.3,93 61.8,93 L61.8,93 C58.3,93 55.5,90.2 55.5,86.7" id="Path"></path>
                        <path d="M74.4,23.4 L74.4,23.4 C77.9,23.4 80.7,26.2 80.7,29.7 L80.7,86.7 C80.7,90.2 77.9,93 74.4,93 L74.4,93 C70.9,93 68.1,90.2 68.1,86.7 L68.1,29.7" id="Path"></path>
                        <rect id="Rectangle" x="9.5" y="74" width="7.9" height="9.5"></rect>
                        <line x1="0" y1="78.8" x2="9.5" y2="78.8" id="Path"></line>
                        <rect id="Rectangle" x="80.8" y="29.7" width="7.9" height="9.5"></rect>
                        <line x1="98.2" y1="34.5" x2="88.7" y2="34.5" id="Path"></line>
                        <circle id="Oval" cx="49.1" cy="20.6" r="20.6"></circle>
                    </g>
                </g>
                <path d="M44.4355,18.5227273 L44.4355,12.5454545 C44.4355,11.7272662 44.6409025,10.9697013 45.0517075,10.2727273 C45.4625125,9.57575325 46.0178557,9.02272727 46.7177501,8.61363636 C47.4176444,8.20454545 48.1783836,8 49,8 C49.8216166,8 50.5823558,8.20454545 51.2822501,8.61363636 C51.9821445,9.02272727 52.5374876,9.57575325 52.9482926,10.2727273 C53.3590976,10.9697013 53.5645001,11.7272662 53.5645001,12.5454545 L53.5645001,18.5227273 C54.5078323,19.1742468 55.2723796,19.9848442 55.8581614,20.9545455 C56.4439433,21.9242468 56.8052952,22.9734805 56.9422302,24.1022727 C57.0791652,25.2310649 56.9726623,26.3409026 56.6227152,27.4318182 C56.272768,28.5227325 55.7212329,29.4886325 54.9680839,30.3295455 C54.2149349,31.1704584 53.3210623,31.8257552 52.2864401,32.2954545 C51.2518179,32.7651539 50.1563444,33 49,33 C47.8436557,33 46.7481822,32.7651539 45.71356,32.2954545 C44.6789379,31.8257552 43.7850653,31.1704584 43.0319163,30.3295455 C42.2787672,29.4886325 41.7272315,28.5227325 41.377285,27.4318182 C41.0273385,26.3409026 40.9208343,25.2310649 41.05777,24.1022727 C41.1947057,22.9734805 41.5560582,21.9242468 42.1418388,20.9545455 C42.7276206,19.9848442 43.4921679,19.1742468 44.4355,18.5227273 Z M47.8588751,20.6363636 C47.1285485,20.8333312 46.4895251,21.1818182 45.9417851,21.6818182 C45.394045,22.1818182 44.9908497,22.776513 44.7321925,23.4659091 C44.4735354,24.1553052 44.389855,24.8712078 44.481145,25.6136364 C44.572435,26.3560649 44.8310857,27.0302987 45.25711,27.6363636 C45.6831344,28.2424273 46.2232582,28.7196955 46.8775076,29.0681818 C47.5317569,29.4166682 48.2392479,29.5909091 49.0000001,29.5909091 C49.7607523,29.5909091 50.4682433,29.4166682 51.1224926,29.0681818 C51.776742,28.7196955 52.3168658,28.2424273 52.7428901,27.6363636 C53.1689145,27.0302987 53.4313667,26.3560649 53.5302664,25.6136364 C53.6291661,24.8712078 53.5454857,24.1515195 53.2792189,23.4545455 C53.012952,22.7575714 52.6059551,22.1628831 52.0582151,21.6704545 C51.5104751,21.178026 50.8714516,20.8333312 50.1411251,20.6363636 L50.1411251,12.5454545 C50.1517034,11.6814728 49.773973,11.2494819 49.0079338,11.2494819 C48.2418947,11.2494819 47.8588751,11.6814728 47.8588751,12.5454545 L47.8588751,20.6363636 Z" id="Fill-1" fill="#2CA982"></path>
                <circle id="Oval" fill="#2CA982" cx="49" cy="25" r="2"></circle>
            </g>
        </g>
    </g>
</svg>