<?xml version="1.0" encoding="UTF-8"?>
<svg width="16px" height="11px" viewBox="0 0 16 11" version="1.1" xmlns="http://www.w3.org/2000/svg" xmlns:xlink="http://www.w3.org/1999/xlink">
    <title>see</title>
    <g id="Styleguide" stroke="none" stroke-width="1" fill="none" fill-rule="evenodd">
        <g id="Styles" transform="translate(-257.000000, -2012.000000)" fill="#647585">
            <path d="M260.142857,2013.5298 C261.595244,2012.50993 263.214278,2012 265,2012 C266.785722,2012 268.404756,2012.50386 269.857143,2013.51159 C271.309529,2014.51932 272.35714,2015.84878 273,2017.5 C272.35714,2019.15122 271.309529,2020.48068 269.857143,2021.48841 C268.404756,2022.49614 266.785722,2023 265,2023 C263.214278,2023 261.595244,2022.49614 260.142857,2021.48841 C258.690469,2020.48068 257.64286,2019.15122 257,2017.5 C257.64286,2015.84878 258.690469,2014.52539 260.142857,2013.5298 Z M262.428571,2020.08609 C263.142859,2020.81457 263.999993,2021.17881 265,2021.17881 C266.000007,2021.17881 266.857142,2020.81457 267.571429,2020.08609 C268.285716,2019.35761 268.642858,2018.49559 268.642858,2017.5 C268.642858,2016.50441 268.285716,2015.64239 267.571429,2014.91391 C266.857142,2014.18543 266.000007,2013.82119 265,2013.82119 C263.999993,2013.82119 263.142859,2014.18543 262.428571,2014.91391 C261.714284,2015.64239 261.357142,2016.50441 261.357142,2017.5 C261.357142,2018.49559 261.714284,2019.35761 262.428571,2020.08609 Z M263.464287,2015.9702 C263.892861,2015.53311 264.404761,2015.31457 265,2015.31457 C265.595239,2015.31457 266.107139,2015.52704 266.535713,2015.95199 C266.964286,2016.37693 267.178573,2016.89293 267.178573,2017.5 C267.178573,2018.10707 266.964286,2018.62307 266.535713,2019.04801 C266.107139,2019.47296 265.595239,2019.68543 265,2019.68543 C264.404761,2019.68543 263.892861,2019.47296 263.464287,2019.04801 C263.035714,2018.62307 262.821427,2018.10707 262.821427,2017.5 C262.821427,2016.89293 263.035714,2016.383 263.464287,2015.9702 Z" id="see"></path>
        </g>
    </g>
</svg>