<?xml version="1.0" encoding="UTF-8"?>
<svg width="122px" height="105px" viewBox="0 0 122 105" version="1.1" xmlns="http://www.w3.org/2000/svg" xmlns:xlink="http://www.w3.org/1999/xlink">
    <title>Group 2</title>
    <g id="Woonstatus" stroke="none" stroke-width="1" fill="none" fill-rule="evenodd">
        <g id="Woningstatus-vraag---Zonnepanelen" transform="translate(-372.000000, -288.000000)">
            <g id="Nee" transform="translate(350.000000, 268.000000)">
                <g id="Group-2" transform="translate(24.000000, 22.000000)">
                    <g id="zonnepanelen-copy">
                        <polygon id="Path" fill="#2CA982" fill-rule="nonzero" points="86.8 33.2 69.8 69.6 19.6 69.6 36.5 33.2"></polygon>
                        <line x1="1.9" y1="100.2" x2="117.9" y2="100.2" id="Path" stroke="#394553" stroke-width="3" stroke-linecap="round" stroke-linejoin="round"></line>
                        <g id="Group" stroke="#394553" stroke-linecap="round" stroke-linejoin="round" stroke-width="3">
                            <g transform="translate(0.000000, 19.300000)" id="Path">
                                <line x1="3.55271368e-15" y1="16.7" x2="6.9" y2="14.6"></line>
                                <line x1="48.5" y1="2" x2="55.3" y2="0"></line>
                            </g>
                            <path d="M41,25.5 C40.6,23.2 39.7,21 38.1,19 C33.4,13.3 24.9,12.4 19.1,17.1 C13.3,21.8 12.5,30.3 17.2,36.1 C19.1,38.5 21.7,40 24.4,40.6" id="Path"></path>
                            <polyline id="Path" points="69.8 100 69.8 69.6 86.8 33.2 103.5 69.6 103.5 100"></polyline>
                            <polyline id="Path" points="86.8 33.2 36.5 33.2 19.5 69.6 19.5 100"></polyline>
                            <line x1="19.6" y1="69.6" x2="69.8" y2="69.6" id="Path"></line>
                            <line x1="25.8" y1="57.3" x2="74.9" y2="57.3" id="Path"></line>
                            <line x1="31.4" y1="45.1" x2="80.6" y2="45.1" id="Path"></line>
                            <line x1="52.5" y1="69.5" x2="69.6" y2="33.5" id="Path"></line>
                            <line x1="35.8" y1="69.5" x2="52.9" y2="33.5" id="Path"></line>
                            <g transform="translate(14.000000, 2.200000)" id="Path">
                                <line x1="7.10542736e-15" y1="50.9" x2="3.4" y2="44.6"></line>
                                <line x1="23.9" y1="6.3" x2="27.3" y2="3.55271368e-15"></line>
                            </g>
                            <line x1="21.4" y1="6.8" x2="19.3" y2="-5.32907052e-15" id="Path"></line>
                            <line x1="8.5" y1="17.4" x2="2.2" y2="14" id="Path"></line>
                        </g>
                    </g>
                    <line x1="9" y1="99.0501251" x2="109.959656" y2="3" id="Line-5" stroke="#E31440" stroke-width="6" stroke-linecap="round"></line>
                </g>
            </g>
        </g>
    </g>
</svg>