<?xml version="1.0" encoding="UTF-8"?>
<svg width="74px" height="88px" viewBox="0 0 74 88" version="1.1" xmlns="http://www.w3.org/2000/svg" xmlns:xlink="http://www.w3.org/1999/xlink">
    <title>timer</title>
    <g id="Styleguide" stroke="none" stroke-width="1" fill="none" fill-rule="evenodd" stroke-linecap="round" stroke-linejoin="round">
        <g id="Styles" transform="translate(-270.000000, -3422.000000)" stroke="#394553" stroke-width="3">
            <g id="timer" transform="translate(272.000000, 3424.000000)">
                <path d="M70,49.2 C70,68.5 54.4,84.2 35,84.2 C15.6,84.2 0,68.6 0,49.2 C0,29.8 15.6,14.2 35,14.2 C54.3,14.3 70,30.1 70,49.2 Z" id="Path"></path>
                <path d="M63.8,49.2 C63.8,65.1 50.9,78 35,78 C19.1,78 6.2,65.1 6.2,49.2 C6.2,33.3 19.1,20.4 35,20.4 C50.9,20.4 63.8,33.4 63.8,49.2 Z" id="Path"></path>
                <line x1="35" y1="6.6" x2="35" y2="13.8" id="Path"></line>
                <g id="Group" transform="translate(34.500000, 26.600000)">
                    <line x1="0.5" y1="0" x2="0.5" y2="4.7" id="Path"></line>
                    <line x1="0.5" y1="40.6" x2="0.5" y2="45.2" id="Path"></line>
                </g>
                <g id="Group" transform="translate(12.400000, 48.700000)">
                    <line x1="45.2" y1="0.5" x2="40.6" y2="0.5" id="Path"></line>
                    <line x1="4.6" y1="0.5" x2="-7.10542736e-15" y2="0.5" id="Path"></line>
                </g>
                <path d="M31.4,45.1 C33.9,42.6 52,32.2 52,32.2 C52,32.2 41.6,50.3 39.2,52.8 C36.8,55.3 33,55.5 30.9,53.4 C28.7,51.3 29,47.6 31.4,45.1 Z" id="Path" fill="#2CA982" fill-rule="nonzero"></path>
                <rect id="Rectangle" x="26.7" y="-7.10542736e-15" width="16.6" height="6.7"></rect>
                <g id="Group" transform="translate(2.000000, 13.800000)">
                    <line x1="9.1" y1="9.1" x2="3.9" y2="3.9" id="Path"></line>
                    <line x1="7.8" y1="0" x2="0" y2="7.8" id="Path"></line>
                </g>
                <g id="Group" transform="translate(58.600000, 13.800000)">
                    <line x1="0" y1="9.1" x2="5.2" y2="3.9" id="Path"></line>
                    <line x1="1.3" y1="0" x2="9.1" y2="7.8" id="Path"></line>
                </g>
            </g>
        </g>
    </g>
</svg>