<?xml version="1.0" encoding="UTF-8"?>
<svg width="84px" height="84px" viewBox="0 0 84 84" version="1.1" xmlns="http://www.w3.org/2000/svg" xmlns:xlink="http://www.w3.org/1999/xlink">
    <title>Gereedschap</title>
    <g id="Styleguide" stroke="none" stroke-width="1" fill="none" fill-rule="evenodd" stroke-linecap="round" stroke-linejoin="round">
        <g id="Styles" transform="translate(-545.000000, -2847.000000)" stroke="#414C57" stroke-width="3">
            <g id="Algemeen-maatregel-icon" transform="translate(547.000000, 2849.000000)">
                <path d="M8.904032,78.4695961 C6.85222445,80.4112858 3.62773941,80.3672055 1.62977481,78.3701534 C-0.368189798,76.3731013 -0.413790054,73.1485897 1.52690319,71.0958364 L24.3817421,48.2337034 L31.7588709,55.6144194 L8.904032,78.4695961 Z" id="Path" fill="#2CA982"></path>
                <line x1="20.6983949" y1="44.5433454" x2="35.4456963" y2="59.3012992" id="Path"></line>
                <line x1="67.5106423" y1="12.5266203" x2="28.0755237" y2="51.9240614" id="Path"></line>
                <path d="M74.0321494,13.4239929 C73.4282178,14.2325953 72.5028477,14.7390012 71.4962405,14.8117611 C70.4896333,14.8845209 69.5010565,14.5164593 68.7871186,13.8031155 L65.9628713,10.9823046 C65.2329293,10.254435 64.8634484,9.24027481 64.95411,8.21343237 C65.0447717,7.18658994 65.5862351,6.25286095 66.4324198,5.66415437 L74.1399716,0.311222263 C74.831153,-0.169332021 75.767287,-0.0858258783 76.3625012,0.509479008 L79.4928246,3.63984866 C80.1041159,4.2533453 80.170844,5.22314158 79.6493408,5.91458394 L74.0321494,13.4239929 Z" id="Path"></path>
                <path d="M38.558629,31.6044842 L26.5938373,19.6395158 C28.5378565,15.3337461 28.1640742,10.3356573 25.6012472,6.36694236 C23.0384203,2.39822739 18.6367758,0.00123715611 13.9125494,0.00166248725 C12.9520704,0.00166248725 11.9940738,0.0992004964 11.0535207,0.293831321 C10.4284862,0.424732157 9.92547141,0.887670722 9.74323863,1.49972053 C9.56100585,2.11177033 9.72887285,2.77446432 10.1805083,3.22594423 L15.14381,8.18931922 C15.4689078,8.51524474 15.6515202,8.95677297 15.651618,9.41711976 L15.651618,13.9144175 C15.651618,14.8748927 14.8730105,15.6535117 13.9125494,15.6535117 L9.41531815,15.6535117 C8.95497817,15.6534139 8.51345646,15.4707989 8.18753575,15.1456962 L3.2242341,10.1823212 C2.77276086,9.73067909 2.11007667,9.56280961 1.4980359,9.74504508 C0.885995143,9.92728055 0.423063418,10.4303028 0.292164517,11.0553465 C0.0975365679,11.9959135 0,12.9539242 0,13.9144175 C-0.000425324859,18.6387137 2.39652949,23.0404232 6.36518583,25.603288 C10.3338422,28.1661528 15.3318571,28.5399407 19.6375631,26.5958928 L31.6023548,38.5608612" id="Path"></path>
                <path d="M48.3948007,41.4408013 L60.3595924,53.4057697 C64.6652984,51.4617218 69.6633133,51.8355097 73.6319697,54.3983745 C77.600626,56.9612393 79.9975808,61.3629488 79.9971555,66.087245 C79.9971555,67.0477383 79.8996189,68.0057489 79.704991,68.9463159 C79.5740921,69.5713597 79.1111603,70.0743819 78.4991196,70.2566174 C77.8870788,70.4388529 77.2243946,70.2709834 76.7729214,69.8193413 L71.8096197,64.8559663 C71.483699,64.5308636 71.0421773,64.3482486 70.5818373,64.3481507 L66.0846061,64.3481507 C65.124145,64.3481507 64.3455375,65.1267698 64.3455375,66.087245 L64.3455375,70.5845427 C64.3456353,71.0448895 64.5282477,71.4864178 64.8533455,71.8123433 L69.8166472,76.7757183 C70.2682826,77.2271982 70.4361496,77.8898922 70.2539169,78.501942 C70.0716841,79.1139918 69.5686693,79.5769303 68.9436348,79.7078312 C68.0030817,79.902462 67.0450851,80 66.0846061,80 C61.3603797,80.0004253 56.9587352,77.6034351 54.3959083,73.6347201 C51.8330813,69.6660051 51.459299,64.6679164 53.4033182,60.3621467 L41.4385265,48.3971783" id="Path"></path>
            </g>
        </g>
    </g>
</svg>