<?xml version="1.0" encoding="UTF-8"?>
<svg width="84px" height="84px" viewBox="0 0 84 84" version="1.1" xmlns="http://www.w3.org/2000/svg" xmlns:xlink="http://www.w3.org/1999/xlink">
    <title>ventilatie</title>
    <g id="Styleguide" stroke="none" stroke-width="1" fill="none" fill-rule="evenodd" stroke-linecap="round" stroke-linejoin="round">
        <g id="Styles" transform="translate(-1213.000000, -3131.000000)" stroke="#394553" stroke-width="3">
            <g id="ventilatie" transform="translate(1215.000000, 3133.000000)">
                <rect id="Rectangle" x="-6.43753328e-15" y="-6.43753328e-15" width="80" height="80"></rect>
                <path d="M79.9093998,39.9546999 C79.9093998,62.0611552 61.9705549,79.9093998 39.9546999,79.9093998 C17.8482446,79.9093998 -6.43753328e-15,61.9705549 -6.43753328e-15,39.9546999 C-6.43753328e-15,17.9388448 17.8482446,-6.43753328e-15 39.9546999,-6.43753328e-15 C62.0611552,-6.43753328e-15 79.9093998,17.8482446 79.9093998,39.9546999 Z" id="Path"></path>
                <path d="M26.0928652,26.0928652 L18.3012458,18.3012458 C17.6670442,17.6670442 17.3952435,16.8516421 17.3952435,15.9456399 C17.3952435,15.0396376 17.8482446,14.2242356 18.4824462,13.6806342 C24.2808607,8.8788222 31.8006795,6.07021518 39.8640997,6.07021518 C41.585504,6.07021518 42.9445074,7.42921857 42.9445074,9.15062288 L42.9445074,21.4722537" id="Path" fill="#2CA982" fill-rule="nonzero"></path>
                <path d="M48.8335221,22.4688562 L53.8165345,12.5934315 C54.1789354,11.7780294 54.9037373,11.2344281 55.7191393,11.0532276 C56.5345413,10.8720272 57.4405436,10.9626274 58.1653454,11.4156285 C64.5073613,15.4926387 69.4903737,21.6534541 72.0271801,29.4450736 C72.2989807,30.2604757 72.2083805,31.0758777 71.8459796,31.8006795 C71.4835787,32.5254813 70.8493771,33.0690827 70.0339751,33.3408834 L58.3465459,37.1460929" id="Path" fill="#2CA982" fill-rule="nonzero"></path>
                <path d="M59.2525481,43.0351076 L70.1245753,44.7565119 C70.9399773,44.9377123 71.7553794,45.3907135 72.2083805,46.1155153 C72.6613817,46.8403171 72.8425821,47.7463194 72.5707814,48.5617214 C70.6681767,55.8097395 66.3193658,62.5141563 59.7055493,67.3159683 C59.0713477,67.7689694 58.2559456,67.9501699 57.4405436,67.8595696 C56.6251416,67.7689694 55.9003398,67.3159683 55.4473386,66.5911665 L48.1993205,56.6251416" id="Path" fill="#2CA982" fill-rule="nonzero"></path>
                <path d="M43.0351076,59.2525481 L44.7565119,70.1245753 C44.8471121,70.9399773 44.6659117,71.8459796 44.1223103,72.5707814 C43.5787089,73.204983 42.7633069,73.6579841 41.8573046,73.7485844 C34.3374858,74.2015855 26.6364666,72.1177803 20.0226501,67.3159683 C19.3884485,66.8629672 18.9354473,66.1381653 18.7542469,65.3227633 C18.6636467,64.5073613 18.8448471,63.6919592 19.2978482,63.0577576 L26.5458664,53.0917327" id="Path" fill="#2CA982" fill-rule="nonzero"></path>
                <path d="M22.4688562,48.8335221 L12.5934315,53.8165345 C11.7780294,54.1789354 10.8720272,54.2695357 10.0566251,53.9071348 C9.2412231,53.6353341 8.60702152,53.0011325 8.24462061,52.1857305 C5.52661382,45.209513 5.07361268,37.1460929 7.61041903,29.4450736 C7.88221971,28.6296716 8.42582106,27.99547 9.15062288,27.6330691 C9.87542469,27.2706682 10.6908267,27.180068 11.5062288,27.4518686 L23.193658,31.2570781" id="Path" fill="#2CA982" fill-rule="nonzero"></path>
                <path d="M58.4371461,39.9546999 C58.4371461,50.1925255 50.1925255,58.4371461 39.9546999,58.4371461 C29.7168743,58.4371461 21.4722537,50.1925255 21.4722537,39.9546999 C21.4722537,29.7168743 29.7168743,21.4722537 39.9546999,21.4722537 C50.1925255,21.4722537 58.4371461,29.7168743 58.4371461,39.9546999 Z" id="Path"></path>
                <circle id="Oval" cx="39.9546999" cy="39.9546999" r="9.2412231"></circle>
            </g>
        </g>
    </g>
</svg>