<?xml version="1.0" encoding="UTF-8"?>
<svg width="20px" height="20px" viewBox="0 0 20 20" version="1.1" xmlns="http://www.w3.org/2000/svg" xmlns:xlink="http://www.w3.org/1999/xlink">
    <title>account-circle</title>
    <g id="Styleguide" stroke="none" stroke-width="1" fill="none" fill-rule="evenodd">
        <g id="Styles" transform="translate(-892.000000, -2007.000000)" fill="#647585" fill-rule="nonzero">
            <g id="account-circle" transform="translate(892.000000, 2007.000000)">
                <path d="M10,17.2 C7.5,17.2 5.29,15.92 4,14 C4.03,12 8,10.9 10,10.9 C12,10.9 15.97,12 16,14 C14.71,15.92 12.5,17.2 10,17.2 M10,3 C11.6568542,3 13,4.34314575 13,6 C13,7.65685425 11.6568542,9 10,9 C8.34314575,9 7,7.65685425 7,6 C7,4.34314575 8.34314575,3 10,3 M10,0 C4.4771525,0 0,4.4771525 0,10 C0,12.6521649 1.0535684,15.195704 2.92893219,17.0710678 C4.80429597,18.9464316 7.3478351,20 10,20 C12.6521649,20 15.195704,18.9464316 17.0710678,17.0710678 C18.9464316,15.195704 20,12.6521649 20,10 C20,4.47 15.5,0 10,0 Z" id="Shape"></path>
            </g>
        </g>
    </g>
</svg>