<?xml version="1.0" encoding="UTF-8"?>
<svg width="9px" height="8px" viewBox="0 0 9 8" version="1.1" xmlns="http://www.w3.org/2000/svg" xmlns:xlink="http://www.w3.org/1999/xlink">
    <title>arrow-left</title>
    <g id="Styleguide" stroke="none" stroke-width="1" fill="none" fill-rule="evenodd">
        <g id="Styles" transform="translate(-137.000000, -2013.000000)" fill="#647585" fill-rule="nonzero">
            <path d="M143.802675,2016.39437 L141.259197,2014.01408 C141.20903,2013.96714 141.166388,2013.9061 141.131271,2013.83099 C141.096153,2013.75587 141.078595,2013.68075 141.078595,2013.60563 C141.078595,2013.43662 141.141304,2013.29343 141.266722,2013.17606 C141.392141,2013.05868 141.545149,2013 141.725752,2013 C141.816054,2013 141.898829,2013.01643 141.97408,2013.0493 C142.049331,2013.08216 142.117057,2013.12207 142.177257,2013.16901 L145.804348,2016.57746 C145.864549,2016.62441 145.912207,2016.68545 145.947324,2016.76056 C145.982442,2016.83568 146,2016.91549 146,2017 C146,2017.08451 145.982442,2017.16197 145.947324,2017.23239 C145.912207,2017.30282 145.864549,2017.3662 145.804348,2017.42254 L142.177257,2020.8169 C142.117057,2020.87324 142.046823,2020.91784 141.966555,2020.9507 C141.886287,2020.98357 141.801004,2021 141.710702,2021 C141.5301,2021 141.377091,2020.94132 141.251672,2020.82394 C141.126253,2020.70657 141.063545,2020.56808 141.063545,2020.40845 C141.063545,2020.32394 141.081104,2020.24413 141.116221,2020.16901 C141.151338,2020.0939 141.198996,2020.02817 141.259197,2019.97183 L143.802675,2017.59155 L137.647157,2017.59155 C137.466554,2017.59155 137.313546,2017.53286 137.188127,2017.41549 C137.062709,2017.29812 137,2017.15963 137,2017 C137,2016.83099 137.062709,2016.68779 137.188127,2016.57042 C137.313546,2016.45305 137.466554,2016.39437 137.647157,2016.39437 L137.647157,2016.39437 L143.802675,2016.39437 Z" id="arrow-left" transform="translate(141.500000, 2017.000000) scale(-1, 1) translate(-141.500000, -2017.000000) "></path>
        </g>
    </g>
</svg>