<?xml version="1.0" encoding="UTF-8"?>
<svg width="18px" height="18px" viewBox="0 0 18 18" version="1.1" xmlns="http://www.w3.org/2000/svg" xmlns:xlink="http://www.w3.org/1999/xlink">
    <title>arrow-left-circle</title>
    <g id="Styleguide" stroke="none" stroke-width="1" fill="none" fill-rule="evenodd">
        <g id="Styles" transform="translate(-698.000000, -2008.000000)" fill="#647585">
            <path d="M711.236534,2017.62251 C711.320847,2017.55217 711.384075,2017.46073 711.426229,2017.34818 C711.468383,2017.23564 711.489463,2017.11606 711.489463,2016.98945 C711.489463,2016.86284 711.468383,2016.74678 711.426229,2016.64127 C711.384075,2016.53576 711.320847,2016.4408 711.236534,2016.35639 L707.421544,2012.53693 C707.337237,2012.46659 707.242389,2012.4068 707.137002,2012.35756 C707.031614,2012.30832 706.915692,2012.2837 706.78923,2012.2837 C706.536302,2012.2837 706.322017,2012.37163 706.146371,2012.54748 C705.970726,2012.72333 705.882903,2012.93787 705.882903,2013.19109 C705.882903,2013.30364 705.907492,2013.41618 705.956676,2013.52873 C706.005855,2013.64127 706.065573,2013.73271 706.135832,2013.80305 L708.433254,2016.10316 L703.395785,2016.10316 C703.156906,2016.10316 702.94965,2016.19109 702.774005,2016.36694 C702.59836,2016.54279 702.510539,2016.75029 702.510539,2016.98945 C702.510539,2017.24268 702.59836,2017.45721 702.774005,2017.63306 C702.94965,2017.80891 703.156906,2017.89684 703.395785,2017.89684 L703.395785,2017.89684 L708.433254,2017.89684 L706.135832,2020.17585 C706.065573,2020.26026 706.005855,2020.35522 705.956676,2020.46073 C705.907492,2020.56624 705.882903,2020.6823 705.882903,2020.80891 C705.882903,2021.06214 705.970726,2021.27667 706.146371,2021.45252 C706.322017,2021.62837 706.536302,2021.7163 706.78923,2021.7163 C706.915692,2021.7163 707.031614,2021.69168 707.137002,2021.64244 C707.242389,2021.5932 707.337237,2021.53341 707.421544,2021.46307 L711.236534,2017.64361 L711.236534,2017.62251 Z M707,2026 C705.763461,2026 704.597195,2025.76085 703.501173,2025.28253 C702.405147,2024.81829 701.449653,2024.1782 700.634661,2023.36225 C699.819668,2022.5463 699.180331,2021.58969 698.716628,2020.49238 C698.238874,2019.40914 698,2018.24151 698,2016.98945 C698,2015.75146 698.238874,2014.58383 698.716628,2013.48652 C699.180331,2012.40328 699.819668,2011.4537 700.634661,2010.63775 C701.449653,2009.8218 702.405147,2009.17468 703.501173,2008.69637 C704.597195,2008.23212 705.763461,2008 707,2008 C708.236539,2008 709.402805,2008.23212 710.498833,2008.69637 C711.594855,2009.17468 712.550351,2009.8218 713.365341,2010.63775 C714.180336,2011.4537 714.819669,2012.40328 715.283373,2013.48652 C715.761126,2014.58383 716,2015.75146 716,2016.98945 C716,2018.24151 715.761126,2019.40914 715.283373,2020.49238 C714.819669,2021.58969 714.180336,2022.5463 713.365341,2023.36225 C712.550351,2024.1782 711.594855,2024.81829 710.498833,2025.28253 C709.402805,2025.76085 708.236539,2026 707,2026 Z" id="arrow-left-circle" transform="translate(707.000000, 2017.000000) scale(-1, 1) translate(-707.000000, -2017.000000) "></path>
        </g>
    </g>
</svg>