<?xml version="1.0" encoding="UTF-8"?>
<svg width="9px" height="8px" viewBox="0 0 9 8" version="1.1" xmlns="http://www.w3.org/2000/svg" xmlns:xlink="http://www.w3.org/1999/xlink">
    <title>arrow-right</title>
    <g id="Styleguide" stroke="none" stroke-width="1" fill="none" fill-rule="evenodd">
        <g id="Styles" transform="translate(-176.000000, -2013.000000)" fill="#647585" fill-rule="nonzero">
            <path d="M182.802675,2016.39437 L180.259197,2014.01408 C180.20903,2013.96714 180.166388,2013.9061 180.131271,2013.83099 C180.096153,2013.75587 180.078595,2013.68075 180.078595,2013.60563 C180.078595,2013.43662 180.141304,2013.29343 180.266722,2013.17606 C180.392141,2013.05868 180.545149,2013 180.725752,2013 C180.816054,2013 180.898829,2013.01643 180.97408,2013.0493 C181.049331,2013.08216 181.117057,2013.12207 181.177257,2013.16901 L184.804348,2016.57746 C184.864549,2016.62441 184.912207,2016.68545 184.947324,2016.76056 C184.982442,2016.83568 185,2016.91549 185,2017 C185,2017.08451 184.982442,2017.16197 184.947324,2017.23239 C184.912207,2017.30282 184.864549,2017.3662 184.804348,2017.42254 L181.177257,2020.8169 C181.117057,2020.87324 181.046823,2020.91784 180.966555,2020.9507 C180.886287,2020.98357 180.801004,2021 180.710702,2021 C180.5301,2021 180.377091,2020.94132 180.251672,2020.82394 C180.126253,2020.70657 180.063545,2020.56808 180.063545,2020.40845 C180.063545,2020.32394 180.081104,2020.24413 180.116221,2020.16901 C180.151338,2020.0939 180.198996,2020.02817 180.259197,2019.97183 L182.802675,2017.59155 L176.647157,2017.59155 C176.466554,2017.59155 176.313546,2017.53286 176.188127,2017.41549 C176.062709,2017.29812 176,2017.15963 176,2017 C176,2016.83099 176.062709,2016.68779 176.188127,2016.57042 C176.313546,2016.45305 176.466554,2016.39437 176.647157,2016.39437 L176.647157,2016.39437 L182.802675,2016.39437 Z" id="arrow-right"></path>
        </g>
    </g>
</svg>