<?xml version="1.0" encoding="UTF-8"?>
<svg width="18px" height="18px" viewBox="0 0 18 18" version="1.1" xmlns="http://www.w3.org/2000/svg" xmlns:xlink="http://www.w3.org/1999/xlink">
    <title>arrow-right-circle</title>
    <g id="Styleguide" stroke="none" stroke-width="1" fill="none" fill-rule="evenodd">
        <g id="Styles" transform="translate(-746.000000, -2008.000000)" fill="#647585">
            <path d="M759.236534,2017.62251 C759.320847,2017.55217 759.384075,2017.46073 759.426229,2017.34818 C759.468383,2017.23564 759.489463,2017.11606 759.489463,2016.98945 C759.489463,2016.86284 759.468383,2016.74678 759.426229,2016.64127 C759.384075,2016.53576 759.320847,2016.4408 759.236534,2016.35639 L755.421544,2012.53693 C755.337237,2012.46659 755.242389,2012.4068 755.137002,2012.35756 C755.031614,2012.30832 754.915692,2012.2837 754.78923,2012.2837 C754.536302,2012.2837 754.322017,2012.37163 754.146371,2012.54748 C753.970726,2012.72333 753.882903,2012.93787 753.882903,2013.19109 C753.882903,2013.30364 753.907492,2013.41618 753.956676,2013.52873 C754.005855,2013.64127 754.065573,2013.73271 754.135832,2013.80305 L756.433254,2016.10316 L751.395785,2016.10316 C751.156906,2016.10316 750.94965,2016.19109 750.774005,2016.36694 C750.59836,2016.54279 750.510539,2016.75029 750.510539,2016.98945 C750.510539,2017.24268 750.59836,2017.45721 750.774005,2017.63306 C750.94965,2017.80891 751.156906,2017.89684 751.395785,2017.89684 L751.395785,2017.89684 L756.433254,2017.89684 L754.135832,2020.17585 C754.065573,2020.26026 754.005855,2020.35522 753.956676,2020.46073 C753.907492,2020.56624 753.882903,2020.6823 753.882903,2020.80891 C753.882903,2021.06214 753.970726,2021.27667 754.146371,2021.45252 C754.322017,2021.62837 754.536302,2021.7163 754.78923,2021.7163 C754.915692,2021.7163 755.031614,2021.69168 755.137002,2021.64244 C755.242389,2021.5932 755.337237,2021.53341 755.421544,2021.46307 L759.236534,2017.64361 L759.236534,2017.62251 Z M755,2026 C753.763461,2026 752.597195,2025.76085 751.501173,2025.28253 C750.405147,2024.81829 749.449653,2024.1782 748.634661,2023.36225 C747.819668,2022.5463 747.180331,2021.58969 746.716628,2020.49238 C746.238874,2019.40914 746,2018.24151 746,2016.98945 C746,2015.75146 746.238874,2014.58383 746.716628,2013.48652 C747.180331,2012.40328 747.819668,2011.4537 748.634661,2010.63775 C749.449653,2009.8218 750.405147,2009.17468 751.501173,2008.69637 C752.597195,2008.23212 753.763461,2008 755,2008 C756.236539,2008 757.402805,2008.23212 758.498833,2008.69637 C759.594855,2009.17468 760.550351,2009.8218 761.365341,2010.63775 C762.180336,2011.4537 762.819669,2012.40328 763.283373,2013.48652 C763.761126,2014.58383 764,2015.75146 764,2016.98945 C764,2018.24151 763.761126,2019.40914 763.283373,2020.49238 C762.819669,2021.58969 762.180336,2022.5463 761.365341,2023.36225 C760.550351,2024.1782 759.594855,2024.81829 758.498833,2025.28253 C757.402805,2025.76085 756.236539,2026 755,2026 Z" id="arrow-right-circle"></path>
        </g>
    </g>
</svg>