<?xml version="1.0" encoding="UTF-8"?>
<svg width="9px" height="10px" viewBox="0 0 9 10" version="1.1" xmlns="http://www.w3.org/2000/svg" xmlns:xlink="http://www.w3.org/1999/xlink">
    <title>arrow-right-larger</title>
    <g id="Styleguide" stroke="none" stroke-width="1" fill="none" fill-rule="evenodd">
        <g id="Styles" transform="translate(-659.000000, -2012.000000)" fill="#647585">
            <path d="M667.725995,2017.33881 C667.810308,2017.26847 667.873536,2017.17702 667.91569,2017.06448 C667.957844,2016.95193 667.978924,2016.83236 667.978924,2016.70575 C667.978924,2016.57913 667.957844,2016.46307 667.91569,2016.35756 C667.873536,2016.25205 667.810308,2016.15709 667.725995,2016.07269 L663.911005,2012.25323 C663.826697,2012.18288 663.73185,2012.1231 663.626462,2012.07386 C663.521075,2012.02462 663.405153,2012 663.278691,2012 C663.025762,2012 662.811478,2012.08793 662.635832,2012.26378 C662.460186,2012.43963 662.372364,2012.65416 662.372364,2012.90739 C662.372364,2013.01993 662.396953,2013.13247 662.446137,2013.24502 C662.495316,2013.35757 662.555034,2013.44901 662.625292,2013.51935 L664.922715,2015.81946 L659.885246,2015.81946 C659.646367,2015.81946 659.439111,2015.90739 659.263466,2016.08324 C659.087821,2016.25909 659,2016.46659 659,2016.70575 C659,2016.95897 659.087821,2017.17351 659.263466,2017.34935 C659.439111,2017.52521 659.646367,2017.61313 659.885246,2017.61313 L659.885246,2017.61313 L664.922715,2017.61313 L662.625292,2019.89215 C662.555034,2019.97655 662.495316,2020.07151 662.446137,2020.17702 C662.396953,2020.28254 662.372364,2020.39859 662.372364,2020.52521 C662.372364,2020.77843 662.460186,2020.99297 662.635832,2021.16882 C662.811478,2021.34467 663.025762,2021.43259 663.278691,2021.43259 C663.405153,2021.43259 663.521075,2021.40797 663.626462,2021.35874 C663.73185,2021.3095 663.826697,2021.24971 663.911005,2021.17937 L667.725995,2017.35991 L667.725995,2017.33881 Z" id="arrow-right-larger"></path>
        </g>
    </g>
</svg>