<?xml version="1.0" encoding="UTF-8"?>
<svg width="53px" height="86px" viewBox="0 0 53 86" version="1.1" xmlns="http://www.w3.org/2000/svg" xmlns:xlink="http://www.w3.org/1999/xlink">
    <title>Gasketel (active)</title>
    <g id="Styleguide" stroke="none" stroke-width="1" fill="none" fill-rule="evenodd">
        <g id="Styles" transform="translate(-675.000000, -2849.000000)">
            <g id="HR-ketel" transform="translate(677.000000, 2851.000000)">
                <path d="M42.7,70.2 L6,70.2 C2.7,70.2 7.10542736e-15,67.5 7.10542736e-15,64.2 L7.10542736e-15,6 C7.10542736e-15,2.7 2.7,0 6,0 L42.7,0 C46,0 48.7,2.7 48.7,6 L48.7,64.2 C48.7,67.5 46,70.2 42.7,70.2 Z" id="Path" stroke="#394553" stroke-width="3" stroke-linecap="round" stroke-linejoin="round"></path>
                <line x1="27.6" y1="12.3" x2="21.1" y2="12.3" id="Path" stroke="#394553" stroke-width="3" stroke-linecap="round" stroke-linejoin="round"></line>
                <path d="M28.6,32 C28.6,34.3 26.7,36.2 24.4,36.2 C22.1,36.2 20.2,34.3 20.2,32 C20.3,31.1 20.6,30.2 21.1,29.5 C21.1,29.5 22.3,31.3 23.6,31.2 C23.6,31.2 20.5,24.4 24.5,21.1 C24.4,23.6 25.3,26 27,27.9 C28.1,28.8 28.7,30.4 28.6,32" id="Path" fill="#2CA982" fill-rule="nonzero"></path>
                <g id="Group" transform="translate(9.000000, 70.800000)" stroke="#394553" stroke-linecap="round" stroke-linejoin="round" stroke-width="3">
                    <polyline id="Path" points="9.6 0 9.6 11.2 0 11.2 0 5.8"></polyline>
                    <polyline id="Path" points="30 0 30 11.2 20.4 11.2 20.4 5.8"></polyline>
                </g>
                <rect id="Rectangle" stroke="#394553" stroke-width="2.5" stroke-linecap="round" stroke-linejoin="round" x="10.7" y="44.1" width="27.2" height="18.4"></rect>
                <rect id="Rectangle" stroke="#394553" stroke-width="2.5" fill="#2CA982" fill-rule="nonzero" stroke-linejoin="round" x="16.5" y="48.8" width="15.8" height="4.9"></rect>
                <g id="Group" transform="translate(16.500000, 57.600000)" stroke="#394553" stroke-linecap="square" stroke-linejoin="round" stroke-width="2.5">
                    <line x1="0" y1="0.5" x2="1.9" y2="0.5" id="Path"></line>
                    <line x1="13.9" y1="0.5" x2="15.7" y2="0.5" id="Path"></line>
                    <line x1="6.9" y1="0.5" x2="8.8" y2="0.5" id="Path"></line>
                </g>
            </g>
        </g>
    </g>
</svg>