<?xml version="1.0" encoding="UTF-8"?>
<svg width="53px" height="90px" viewBox="0 0 53 90" version="1.1" xmlns="http://www.w3.org/2000/svg" xmlns:xlink="http://www.w3.org/1999/xlink">
    <title>Group 8 Copy</title>
    <g id="Styleguide" stroke="none" stroke-width="1" fill="none" fill-rule="evenodd" stroke-linecap="round" stroke-linejoin="round">
        <g id="Styles" transform="translate(-873.000000, -2847.000000)" stroke="#394553" stroke-width="3">
            <g id="boiler" transform="translate(875.000000, 2849.000000)">
                <path d="M16.5,70.4 L16.5,74.3 C16.5,75.4 16.1,76.3 15.6,76.3 L10.6,76.3 C10.1,76.3 9.7,75.4 9.7,74.3 L9.7,70.4" id="Path"></path>
                <path d="M39.7,70.4 L39.7,74.3 C39.7,75.4 39.3,76.3 38.8,76.3 L33.8,76.3 C33.3,76.3 32.9,75.4 32.9,74.3 L32.9,70.4" id="Path"></path>
                <path d="M43.4,70.2 L6.7,70.2 C3.4,70.2 0.7,67.5 0.7,64.2 L0.7,6 C0.7,2.7 3.4,0 6.7,0 L43.4,0 C46.7,0 49.4,2.7 49.4,6 L49.4,64.2 C49.4,67.5 46.7,70.2 43.4,70.2 Z" id="Path"></path>
                <circle id="Oval" fill="#2CA982" fill-rule="nonzero" cx="25" cy="52.4" r="7.7"></circle>
                <line x1="28.3" y1="12.3" x2="21.8" y2="12.3" id="Path"></line>
                <line x1="25" y1="44.7" x2="25" y2="49.2" id="Path"></line>
                <path d="M0,85.9 L8,85.9 C10.8,85.9 13,83.7 13,80.9 L13,77.1" id="Path"></path>
                <path d="M49.3,85.9 L41.3,85.9 C38.5,85.9 36.3,83.7 36.3,80.9 L36.3,77.1" id="Path"></path>
            </g>
        </g>
    </g>
</svg>