<?xml version="1.0" encoding="UTF-8"?>
<svg width="25px" height="25px" viewBox="0 0 25 25" version="1.1" xmlns="http://www.w3.org/2000/svg" xmlns:xlink="http://www.w3.org/1999/xlink">
    <title>Close</title>
    <g id="Woningvragen" stroke="none" stroke-width="1" fill="none" fill-rule="evenodd">
        <g id="Woningvragen---Wat-voor-woning-modal" transform="translate(-660.000000, -298.000000)">
            <g id="Modal" transform="translate(386.000000, 288.000000)">
                <g id="Close" transform="translate(274.000000, 10.000000)">
                    <path d="M12.5,0 C10.7825844,0 9.16277114,0.327277825 7.64051738,0.981833476 C6.11826005,1.63638913 4.79118526,2.53028111 3.65925089,3.66353802 C2.52731723,4.79680207 1.63446896,6.12054765 0.98067895,7.63481766 C0.326889795,9.14908766 0,10.7659191 0,12.4853478 C0,14.2243128 0.326889795,15.8509123 0.98067895,17.3651823 C1.63446896,18.8794531 2.52731723,20.2031986 3.65925089,21.3364598 C4.79118526,22.4697203 6.11826005,23.3636152 7.64051738,24.0181715 C9.16277114,24.672727 10.7825844,25 12.5,25 C14.2174156,25 15.8372289,24.672727 17.3594898,24.0181715 C18.8817435,23.3636152 20.2088212,22.4697203 21.3407513,21.3364598 C22.4726885,20.2031986 23.3655339,18.8794531 24.0193232,17.3651823 C24.6731125,15.8509123 25,14.2243128 25,12.4853478 C25,10.7659191 24.6731125,9.14908766 24.0193232,7.63481766 C23.3655339,6.12054765 22.4726885,4.79680207 21.3407513,3.66353802 C20.2088212,2.53028111 18.8817435,1.63638913 17.3594898,0.981833476 C15.8372289,0.327277825 14.2174156,0 12.5,0 Z" id="Fill-1" fill="#647585" opacity="0.202186"></path>
                    <polygon id="Path" fill="#414C57" points="18.325528 16.383356 16.3641672 18.3470108 12.5 14.4490077 8.63583275 18.3470108 6.67447343 16.383356 10.5386392 12.4853478 6.67447343 8.61665113 8.63583275 6.65299133 12.5 10.521688 16.3641672 6.65299133 18.325528 8.61665113 14.4613608 12.4853478"></polygon>
                </g>
            </g>
        </g>
    </g>
</svg>