<?xml version="1.0" encoding="UTF-8"?>
<svg width="102px" height="87px" viewBox="0 0 102 87" version="1.1" xmlns="http://www.w3.org/2000/svg" xmlns:xlink="http://www.w3.org/1999/xlink">
    <title>co2</title>
    <g id="Styleguide" stroke="none" stroke-width="1" fill="none" fill-rule="evenodd">
        <g id="Styles" transform="translate(-1040.000000, -3130.000000)">
            <g id="co2" transform="translate(1042.000000, 3132.000000)">
                <path d="M97.8,38.7 C97.8,30.3 91,23.5 82.6,23.5 C81.9,23.5 81.2,23.6 80.5,23.7 C80.6,23.1 80.6,22.4 80.6,21.8 C80.6,9.7 70.8,0 58.8,0 C49.9,0 42.3,5.3 38.9,12.9 C36.8,12 34.4,11.5 31.9,11.5 C22.2,11.5 14.4,19.3 14.4,29 C14.4,29.2 14.4,29.4 14.4,29.6 C6.4,30 7.10542736e-15,36.7 7.10542736e-15,44.8 C7.10542736e-15,53.2 6.8,60 15.2,60 C16,60 16.9,59.9 17.7,59.8 C17.7,60.4 17.6,61 17.6,61.5 C17.6,73.6 27.4,83.3 39.4,83.3 C47.7,83.3 54.9,78.7 58.6,71.9 C60.4,72.5 62.3,72.8 64.3,72.8 C74.8,72.8 83.3,64.4 83.4,53.9 C91.5,53.4 97.8,46.8 97.8,38.7 Z" id="Path" stroke="#394553" stroke-width="3" stroke-linecap="round" stroke-linejoin="round"></path>
                <path d="M37.2,46.6 C34.8,47.7 32,47.3 30,45.6 C28.8,44.3 28.2,42.6 28.3,40.9 C28.3,39.8 28.5,38.7 29,37.7 C29.5,36.8 30.2,36 31.1,35.5 C33,34.5 35.2,34.5 37.1,35.3 C37.9,35.8 39,35.6 39.6,34.9 C39.9,34.5 40.1,34 40.1,33.6 C40.1,32.9 39.7,32.2 39,31.9 C37.5,31.1 35.9,30.7 34.2,30.7 C32.3,30.7 30.5,31.1 28.9,32 C27.3,32.9 26.1,34.1 25.2,35.7 C24.3,37.3 23.8,39.1 23.9,41 C23.8,43 24.3,44.9 25.3,46.6 C26.2,48.1 27.5,49.3 29.1,50.1 C30.7,50.9 32.5,51.3 34.3,51.3 C36,51.3 37.6,50.9 39.1,50.1 C39.4,50 39.7,49.7 39.9,49.4 C40.1,49.1 40.2,48.8 40.2,48.4 C40.2,47.9 40,47.4 39.7,47 C39.1,46.3 38,46.1 37.2,46.6 Z" id="Path" fill="#2CA982" fill-rule="nonzero"></path>
                <path d="M58.6,31.9 C55.5,30 51.6,30 48.5,31.9 C47,32.8 45.8,34.1 45,35.7 C43.3,39 43.3,42.9 45,46.1 C45.8,47.6 47,49 48.5,49.9 C51.6,51.8 55.5,51.8 58.6,49.9 C60.1,49 61.3,47.7 62.1,46.1 C63.8,42.8 63.8,38.9 62.1,35.7 C61.3,34.2 60.1,32.9 58.6,31.9 Z M59.1,40.9 C59.1,42 58.9,43.1 58.4,44.1 C58,45 57.3,45.8 56.4,46.4 C54.7,47.5 52.5,47.5 50.8,46.4 C50,45.8 49.3,45 48.9,44.1 C48,42 48,39.7 48.9,37.6 C49.3,36.7 50,35.9 50.8,35.3 C52.5,34.2 54.7,34.2 56.4,35.3 C57.3,35.9 57.9,36.7 58.4,37.6 C58.8,38.6 59.1,39.8 59.1,40.9 Z" id="Shape" fill="#2CA982" fill-rule="nonzero"></path>
                <path d="M73.9,54.4 C73.6,54.1 73.3,54 72.9,54 L70.4,54 L71.9,52.4 C72.5,51.8 73,51 73.4,50.3 C73.8,49.6 74,48.8 74,48 C74,47.3 73.8,46.6 73.5,46 C73.2,45.4 72.7,44.9 72.1,44.6 C70.9,43.9 69.4,43.9 68.2,44.5 C67.6,44.8 67.1,45.1 66.6,45.6 C66.4,45.8 66.2,46 66,46.3 C65.9,46.5 65.8,46.8 65.8,47 C65.8,47.4 66,47.7 66.2,47.9 C66.7,48.4 67.6,48.4 68.1,47.9 C68.1,47.9 68.2,47.8 68.2,47.7 C68.4,47.4 68.7,47.1 69,46.9 C69.5,46.5 70.2,46.5 70.6,47 C70.6,47 70.6,47 70.6,47.1 C70.9,47.4 71,47.7 71,48.1 C71,48.5 70.9,48.8 70.7,49.1 C70.5,49.6 70.1,50 69.8,50.4 L66.4,54.2 C66.1,54.5 66,54.8 66,55.2 C66,55.6 66.1,55.9 66.4,56.2 C66.7,56.5 67,56.6 67.4,56.6 L73,56.6 C73.4,56.6 73.7,56.5 74,56.2 C74.2,56 74.4,55.6 74.4,55.3 C74.3,55 74.1,54.6 73.9,54.4 L73.9,54.4 Z" id="Path" fill="#2CA982" fill-rule="nonzero"></path>
            </g>
        </g>
    </g>
</svg>