<?xml version="1.0" encoding="UTF-8"?>
<svg width="108px" height="103px" viewBox="0 0 108 103" version="1.1" xmlns="http://www.w3.org/2000/svg" xmlns:xlink="http://www.w3.org/1999/xlink">
    <title>Plat+hellend dak</title>
    <g id="Styleguide" stroke="none" stroke-width="1" fill="none" fill-rule="evenodd">
        <g id="Styles" transform="translate(-1186.000000, -2704.000000)">
            <g id="plat-hellenddak" transform="translate(1188.000000, 2706.000000)">
                <polygon id="Path" fill="#2CA982" fill-rule="nonzero" points="41.43 45.12 87.6 18.05 56.78 0.54 10.45 26.92"></polygon>
                <polygon id="Path" fill="#2CA982" fill-rule="nonzero" points="57.28 72.95 103.45 45.88 87.82 18.28 41.26 44.88"></polygon>
                <polyline id="Path" stroke="#394553" stroke-width="3" stroke-linecap="round" stroke-linejoin="round" points="56.9 99.05 3.55271368e-15 66.21 3.55271368e-15 36.69"></polyline>
                <line x1="40.99" y1="44.88" x2="10.14" y2="27.01" id="Path" stroke="#394553" stroke-width="3" stroke-linecap="round" stroke-linejoin="round"></line>
                <line x1="87.71" y1="17.94" x2="56.86" y2="0.07" id="Path" stroke="#394553" stroke-width="3" stroke-linecap="round" stroke-linejoin="round"></line>
                <line x1="9.89" y1="26.97" x2="3.55271368e-15" y2="36.69" id="Path" stroke="#394553" stroke-width="3" stroke-linecap="round" stroke-linejoin="round"></line>
                <line x1="9.89" y1="26.97" x2="56.61" y2="0" id="Path" stroke="#394553" stroke-width="3" stroke-linecap="round" stroke-linejoin="round"></line>
                <line x1="56.9" y1="72.86" x2="56.9" y2="99.04" id="Path" stroke="#394553" stroke-width="3" stroke-linecap="round" stroke-linejoin="round"></line>
                <line x1="103.62" y1="45.89" x2="103.62" y2="72.07" id="Path" stroke="#394553" stroke-width="3" stroke-linecap="round" stroke-linejoin="round"></line>
                <line x1="56.9" y1="99.04" x2="103.62" y2="72.07" id="Path" stroke="#394553" stroke-width="3" stroke-linecap="round" stroke-linejoin="round"></line>
                <line x1="56.9" y1="72.86" x2="103.62" y2="45.89" id="Path" stroke="#394553" stroke-width="3" stroke-linecap="round" stroke-linejoin="round"></line>
                <line x1="56.9" y1="72.86" x2="41.21" y2="45.04" id="Path" stroke="#394553" stroke-width="3" stroke-linecap="round" stroke-linejoin="round"></line>
                <line x1="87.93" y1="18.07" x2="103.62" y2="45.89" id="Path" stroke="#394553" stroke-width="3" stroke-linecap="round" stroke-linejoin="round"></line>
                <line x1="41.21" y1="45.04" x2="87.93" y2="18.07" id="Path" stroke="#394553" stroke-width="3" stroke-linecap="round" stroke-linejoin="round"></line>
            </g>
        </g>
    </g>
</svg>