<?xml version="1.0" encoding="UTF-8"?>
<svg width="16px" height="14px" viewBox="0 0 16 14" version="1.1" xmlns="http://www.w3.org/2000/svg" xmlns:xlink="http://www.w3.org/1999/xlink">
    <title>hide</title>
    <g id="Styleguide" stroke="none" stroke-width="1" fill="none" fill-rule="evenodd">
        <g id="Styles" transform="translate(-303.000000, -2010.000000)" fill="#647585">
            <path d="M311,2012.95312 C310.523805,2012.95312 310.083337,2013.0382 309.67857,2013.20833 L308.107143,2011.60417 C309.035718,2011.26389 309.999993,2011.09375 311,2011.09375 C312.785722,2011.09375 314.404756,2011.60416 315.857143,2012.625 C317.309529,2013.64584 318.35714,2014.98263 319,2016.63542 C318.476188,2017.99653 317.642865,2019.16319 316.499999,2020.13542 L314.392858,2017.98437 C314.559523,2017.57118 314.642858,2017.12153 314.642858,2016.63542 C314.642858,2015.61458 314.285716,2014.74566 313.571429,2014.02864 C312.857141,2013.31163 312.000007,2012.95312 311,2012.95312 Z M303.714286,2010.94792 L304.642857,2010 L317.571429,2023.05208 L316.642858,2024 L314.5,2021.84896 L314.178571,2021.52083 C313.083326,2021.95834 312.023813,2022.17708 311,2022.17708 C309.214278,2022.17708 307.595244,2021.66667 306.142857,2020.64583 C304.690469,2019.625 303.64286,2018.2882 303,2016.63542 C303.595241,2015.12847 304.5,2013.90104 305.714286,2012.95312 L305.392857,2012.625 L303.714286,2010.94792 Z M307.750002,2014.99479 C307.488094,2015.52952 307.357142,2016.07639 307.357142,2016.63542 C307.357142,2017.65625 307.714284,2018.52517 308.428571,2019.24219 C309.142859,2019.9592 309.999993,2020.31771 311,2020.31771 C311.547622,2020.31771 312.083333,2020.18403 312.607144,2019.91667 L311.464287,2018.78646 C311.369049,2018.81076 311.214287,2018.82292 311,2018.82292 C310.38095,2018.82292 309.863099,2018.61024 309.446428,2018.1849 C309.029758,2017.75955 308.821427,2017.24306 308.821427,2016.63542 C308.821427,2016.51389 308.845238,2016.3559 308.892859,2016.16146 L307.750002,2014.99479 Z M310.892859,2014.44792 L311,2014.44792 C311.61905,2014.44792 312.136901,2014.66059 312.553572,2015.08594 C312.970242,2015.51129 313.178573,2016.02777 313.178573,2016.63542 L313.178573,2016.74479 L310.892859,2014.44792 Z" id="hide" transform="translate(311.000000, 2017.000000) scale(1, -1) translate(-311.000000, -2017.000000) "></path>
        </g>
    </g>
</svg>