<?xml version="1.0" encoding="UTF-8"?>
<svg width="100px" height="100px" viewBox="0 0 100 100" version="1.1" xmlns="http://www.w3.org/2000/svg" xmlns:xlink="http://www.w3.org/1999/xlink">
    <title>hoom-logo</title>
    <g id="Styleguide" stroke="none" stroke-width="1" fill="none" fill-rule="evenodd">
        <g id="Styles" transform="translate(-135.000000, -134.000000)" fill-rule="nonzero">
            <g id="Group-10" transform="translate(135.000000, 71.000000)">
                <g id="hoom-logo" transform="translate(0.000000, 63.000000)">
                    <circle id="Oval" fill="#2CA982" cx="50" cy="50" r="50"></circle>
                    <path d="M83.5987261,51.2340764 C83.5788217,49.4625796 82.8821656,47.9697452 81.5286624,46.7953822 C79.3988854,44.964172 76.2738854,44.8845541 74.044586,46.5963376 C73.9052548,46.6958599 73.7659236,46.7953822 73.6265924,46.8949045 C73.5071656,46.7953822 73.4076433,46.7356688 73.3280255,46.656051 C70.7802548,44.6257962 67.0780255,44.9840764 64.9880573,47.5517516 C64.7292994,47.8702229 64.4904459,48.1886943 64.2316879,48.4872611 C63.7937898,48.9848726 63.2762739,49.2834395 62.5796178,49.3232484 C61.7436306,49.3431529 61.1066879,48.9848726 60.6090764,48.3479299 C60.1910828,47.8105096 59.7730892,47.3128981 59.2555732,46.875 C56.3893312,44.5262739 51.9705414,44.964172 49.6417197,47.8702229 C49.4227707,48.1488854 49.2038217,48.4275478 48.9649682,48.6664013 C48.1289809,49.522293 46.6759554,49.522293 45.8399682,48.6664013 C45.6011146,48.4275478 45.4020701,48.1488854 45.2030255,47.8901274 C43.4315287,45.7006369 40.4259554,44.8049363 37.758758,45.6807325 C36.7834395,45.9992038 35.8877389,46.4769108 35.0517516,47.0541401 C34.0167197,47.7707006 32.8821656,48.2484076 31.6679936,48.5270701 C31.5286624,48.566879 31.3694268,48.566879 31.1703822,48.6066879 C31.1504777,48.3479299 31.1504777,48.1687898 31.1504777,47.9896497 C31.1504777,45.9394904 31.1504777,43.8893312 31.1504777,41.839172 C31.1504777,40.6847134 31.1305732,40.883758 30.2149682,40.883758 C29.3988854,40.8638535 28.5828025,40.883758 27.7866242,40.883758 C27.1098726,40.883758 27.0899682,40.883758 27.0899682,41.580414 C27.0899682,43.8296178 27.0899682,46.0788217 27.0899682,48.308121 C27.0899682,48.4872611 27.0700637,48.6664013 27.0501592,48.8853503 C26.8511146,48.8853503 26.7117834,48.9251592 26.5724522,48.9052548 C25.8957006,48.8455414 25.218949,48.8057325 24.5421975,48.7062102 C23.2882166,48.5270701 22.093949,48.1886943 20.9792994,47.5716561 C20.6210191,47.3726115 20.4617834,47.1536624 20.4617834,46.7157643 C20.4816879,44.9442675 20.4816879,43.1727707 20.4617834,41.4211783 C20.4617834,40.9434713 20.4219745,40.883758 19.9442675,40.883758 C18.9291401,40.883758 17.9140127,40.883758 16.8789809,40.883758 C16.4410828,40.883758 16.3813694,40.9434713 16.361465,41.3813694 C16.361465,41.4609873 16.361465,41.5406051 16.361465,41.6202229 C16.361465,47.133758 16.361465,52.6273885 16.361465,58.1409236 C16.361465,58.2404459 16.361465,58.3399682 16.361465,58.419586 C16.3813694,58.7380573 16.4808917,58.8375796 16.7993631,58.8773885 C16.8988854,58.897293 16.9984076,58.8773885 17.0780255,58.8773885 C17.9538217,58.8773885 18.8296178,58.8773885 19.705414,58.8773885 C19.8248408,58.8773885 19.9243631,58.8773885 20.0437898,58.8574841 C20.3423567,58.8176752 20.4219745,58.7181529 20.441879,58.419586 C20.441879,58.3001592 20.441879,58.160828 20.441879,58.0414013 C20.441879,56.031051 20.441879,54.0207006 20.441879,52.0302548 C20.441879,51.8710191 20.441879,51.691879 20.4617834,51.4928344 C20.660828,51.5525478 20.7802548,51.5923567 20.8996815,51.6321656 C22.7507962,52.2691083 24.6417197,52.6074841 26.6122611,52.6074841 C27.0501592,52.6074841 27.0700637,52.6273885 27.0700637,53.0652866 C27.0700637,54.7571656 27.0700637,56.4490446 27.0700637,58.1210191 C27.0700637,58.2404459 27.0700637,58.3797771 27.0700637,58.4992038 C27.0700637,58.7181529 27.1894904,58.8176752 27.3686306,58.8574841 C27.5079618,58.8773885 27.647293,58.8773885 27.7866242,58.8773885 C28.6226115,58.8773885 29.4386943,58.8773885 30.2746815,58.8773885 C31.0907643,58.8773885 31.1106688,58.8574841 31.1106688,58.0613057 C31.1106688,56.3495223 31.1106688,54.6178344 31.1106688,52.906051 C31.1106688,52.7269108 31.1305732,52.5477707 31.1504777,52.3487261 C31.7675159,52.2292994 32.3447452,52.1098726 32.9020701,51.9904459 C32.941879,52.0700637 32.9617834,52.0899682 32.9617834,52.1297771 C32.9617834,52.1894904 32.9617834,52.2492038 32.9617834,52.3288217 C32.941879,53.4235669 33.2205414,54.4386943 33.6982484,55.3941083 C34.9920382,57.9219745 37.6990446,59.4944268 40.8638535,59.0565287 C43.7898089,58.638535 45.9992038,56.4490446 46.5963376,53.5429936 C46.616242,53.4036624 46.6759554,53.2444268 46.7157643,53.1449045 C47.1934713,53.1449045 47.5915605,53.1449045 48.0493631,53.1449045 C48.089172,53.2842357 48.1289809,53.4434713 48.1687898,53.5828025 C48.8256369,56.9068471 51.8710191,59.593949 55.9315287,59.0764331 C58.8574841,58.6982484 61.1863057,56.3893312 61.7038217,53.4832803 C61.7237261,53.343949 61.7834395,53.2245223 61.8232484,53.125 C62.4601911,53.125 63.0175159,53.125 63.6544586,53.125 C63.6544586,53.3638535 63.6544586,53.5429936 63.6544586,53.7420382 C63.6544586,55.2149682 63.6544586,56.6679936 63.6544586,58.1409236 C63.6544586,58.8176752 63.7340764,58.897293 64.4307325,58.897293 C65.0278662,58.897293 65.6050955,58.897293 66.2022293,58.897293 C66.4808917,58.897293 66.7396497,58.9171975 67.0183121,58.8773885 C67.3566879,58.8574841 67.4164013,58.7778662 67.4363057,58.4394904 C67.4363057,58.3200637 67.4363057,58.1807325 67.4363057,58.0613057 C67.4363057,55.9514331 67.4363057,53.8216561 67.4363057,51.7117834 C67.4363057,51.4530255 67.4761146,51.1743631 67.5159236,50.9156051 C67.6751592,50.0597134 68.3320064,49.3630573 69.1878981,49.2237261 C70.0636943,49.0843949 70.7802548,49.3630573 71.3176752,50.0995223 C71.656051,50.5573248 71.7555732,51.0947452 71.7555732,51.6321656 C71.7555732,53.8216561 71.7555732,55.991242 71.7555732,58.1807325 C71.7555732,58.3001592 71.7555732,58.4394904 71.7555732,58.5589172 C71.7555732,58.7579618 71.8550955,58.8574841 72.0342357,58.897293 C72.133758,58.9171975 72.2531847,58.9371019 72.3726115,58.9371019 C73.2085987,58.9371019 74.0246815,58.9371019 74.8606688,58.9371019 C75.4179936,58.9371019 75.5374204,58.8176752 75.5374204,58.2603503 C75.5374204,58.1409236 75.5374204,58.0015924 75.5374204,57.8821656 C75.5374204,55.7921975 75.5374204,53.7022293 75.5374204,51.6321656 C75.5374204,51.4530255 75.5374204,51.2738854 75.5573248,51.1146497 C75.6568471,49.8805732 76.9506369,48.9649682 78.125,49.2834395 C79.1401274,49.5421975 79.7770701,50.3582803 79.7770701,51.3933121 C79.7770701,53.6425159 79.7770701,55.8917197 79.7770701,58.1210191 C79.7770701,58.2603503 79.7770701,58.3996815 79.7770701,58.5589172 C79.7770701,58.7380573 79.8964968,58.8574841 80.0557325,58.897293 C80.1751592,58.9371019 80.3144904,58.9371019 80.4339172,58.9371019 C81.2699045,58.9371019 82.0859873,58.9371019 82.9219745,58.9371019 C83.4792994,58.9371019 83.5788217,58.8375796 83.5788217,58.2603503 C83.5987261,55.8718153 83.6186306,53.5628981 83.5987261,51.2340764 Z M39.8686306,55.3144904 C38.1767516,55.3144904 36.8033439,53.9410828 36.8033439,52.2691083 C36.8033439,50.3781847 38.3757962,49.1441083 39.9283439,49.1640127 C41.5207006,49.1839172 42.9737261,50.5374204 42.9936306,52.2492038 C42.9737261,53.9410828 41.580414,55.3343949 39.8686306,55.3144904 Z M54.9562102,55.3144904 C53.2444268,55.3144904 51.8710191,53.9410828 51.8710191,52.2292994 C51.8710191,50.5573248 53.2643312,49.1839172 54.9363057,49.1640127 C56.4092357,49.1441083 58.0414013,50.3980892 58.0414013,52.2492038 C58.0414013,53.9410828 56.6679936,55.3144904 54.9562102,55.3144904 Z" id="Shape" fill="#FFFFFF"></path>
                </g>
            </g>
        </g>
    </g>
</svg>