<?xml version="1.0" encoding="UTF-8"?>
<svg width="155px" height="20px" viewBox="0 0 155 20" version="1.1" xmlns="http://www.w3.org/2000/svg" xmlns:xlink="http://www.w3.org/1999/xlink">
    <title>hoom</title>
    <g id="Styleguide" stroke="none" stroke-width="1" fill="none" fill-rule="evenodd">
        <g id="Styles" transform="translate(-300.000000, -173.000000)" fill="#2CA982" fill-rule="nonzero">
            <g id="Group-10" transform="translate(135.000000, 71.000000)">
                <g id="hoom" transform="translate(165.000000, 102.000000)">
                    <path d="M81.9497608,1.39240506 L78.7360447,1.39240506 C78.4888357,1.39240506 78.3652313,1.51898734 78.3652313,1.7721519 L78.3652313,7.59493671 L78.3652313,7.59493671 C77.5,6.4556962 76.2639553,5.82278481 74.6570973,5.82278481 C73.1738437,5.82278481 71.8141946,6.32911392 70.4545455,7.46835443 C69.2185008,8.48101266 68.3532695,10.5063291 68.3532695,12.7848101 C68.3532695,14.8101266 68.9712919,16.4556962 70.330941,17.8481013 C71.6905901,19.1139241 73.2974482,19.8734177 75.3987241,19.8734177 C77.5,19.8734177 79.1068581,19.2405063 80.4665072,17.9746835 C81.7025518,16.7088608 82.3205742,14.9367089 82.3205742,12.7848101 L82.3205742,1.7721519 C82.3205742,1.51898734 82.0733652,1.39240506 81.9497608,1.39240506 Z M77.5,15.1898734 C77.0055821,15.8227848 76.2639553,16.0759494 75.3987241,16.0759494 C74.5334928,16.0759494 73.791866,15.8227848 73.1738437,15.1898734 C72.6794258,14.556962 72.3086124,13.7974684 72.3086124,12.9113924 C72.3086124,12.0253165 72.5558214,11.1392405 73.1738437,10.6329114 C73.6682616,10 74.4098884,9.74683544 75.3987241,9.74683544 C76.2639553,9.74683544 77.0055821,10 77.5,10.6329114 C77.9944179,11.2658228 78.3652313,12.0253165 78.3652313,12.9113924 C78.3652313,13.7974684 77.9944179,14.556962 77.5,15.1898734 Z" id="Shape"></path>
                    <path d="M102.468102,10.3797468 C102.468102,9.62025316 102.96252,9.24050633 103.827751,9.24050633 C104.569378,9.24050633 104.940191,9.49367089 105.1874,9.87341772 C105.311005,10 105.434609,10.1265823 105.558214,10.1265823 L108.77193,10.1265823 C109.019139,10.1265823 109.142743,9.87341772 109.142743,9.74683544 C109.019139,8.73417722 108.524721,7.84810127 107.65949,7.08860759 C106.670654,6.20253165 105.434609,5.82278481 103.827751,5.82278481 C102.468102,5.82278481 101.355662,6.07594937 100.366826,6.70886076 C99.007177,7.59493671 98.2655502,9.36708861 98.5127592,11.0126582 C99.1307815,15.3164557 105.311005,13.5443038 105.311005,15.3164557 C105.311005,16.0759494 104.940191,16.4556962 103.704147,16.4556962 C102.838915,16.4556962 102.344498,16.2025316 102.097289,15.6962025 C102.097289,15.5696203 101.973684,15.443038 101.726475,15.443038 L98.5127592,15.443038 C98.2655502,15.443038 98.1419458,15.6962025 98.1419458,15.8227848 C98.2655502,16.9620253 98.7599681,17.8481013 99.6251994,18.6075949 C100.614035,19.3670886 101.973684,19.8734177 103.580542,19.8734177 C105.1874,19.8734177 106.547049,19.4936709 107.535885,18.6075949 C108.524721,17.721519 109.019139,16.7088608 109.019139,15.443038 C109.389952,10.1265823 102.468102,12.278481 102.468102,10.3797468 Z" id="Path"></path>
                    <path d="M114.704944,10.3797468 C114.704944,9.62025316 115.199362,9.24050633 116.064593,9.24050633 C116.80622,9.24050633 117.177033,9.49367089 117.424242,9.87341772 C117.424242,10 117.547847,10.1265823 117.795056,10.1265823 L120.885167,10.1265823 C121.132376,10.1265823 121.255981,9.87341772 121.255981,9.74683544 C121.132376,8.73417722 120.637959,7.84810127 119.772727,7.08860759 C118.783892,6.20253165 117.547847,5.82278481 115.940989,5.82278481 C114.334131,5.82278481 112.974482,6.32911392 111.985646,7.08860759 C110.99681,7.97468354 110.502392,9.24050633 110.625997,10.5063291 C110.873206,15.443038 117.547847,13.5443038 117.547847,15.3164557 C117.547847,16.0759494 117.177033,16.4556962 115.940989,16.4556962 C115.075758,16.4556962 114.58134,16.2025316 114.334131,15.6962025 C114.334131,15.5696203 114.210526,15.443038 113.963317,15.443038 L110.749601,15.443038 C110.502392,15.443038 110.378788,15.6962025 110.378788,15.8227848 C110.502392,16.9620253 110.99681,17.8481013 111.862041,18.6075949 C112.850877,19.3670886 114.210526,19.8734177 115.817384,19.8734177 C117.424242,19.8734177 118.783892,19.4936709 119.772727,18.6075949 C120.761563,17.721519 121.255981,16.7088608 121.255981,15.443038 C121.626794,10.1265823 114.704944,12.278481 114.704944,10.3797468 Z" id="Path"></path>
                    <path d="M123.110048,0.759493671 C122.61563,1.26582278 122.368421,1.89873418 122.368421,2.53164557 C122.368421,3.29113924 122.61563,3.92405063 123.110048,4.43037975 C124.098884,5.44303797 125.705742,5.44303797 126.694577,4.43037975 C127.188995,3.92405063 127.436204,3.29113924 127.436204,2.53164557 C127.436204,1.7721519 127.188995,1.13924051 126.694577,0.759493671 C125.705742,-0.253164557 124.098884,-0.253164557 123.110048,0.759493671 Z" id="Path"></path>
                    <path d="M126.447368,6.32911392 L123.233652,6.32911392 C122.986443,6.32911392 122.862839,6.4556962 122.862839,6.70886076 L122.862839,19.2405063 C122.862839,19.4936709 122.986443,19.6202532 123.233652,19.6202532 L126.447368,19.6202532 C126.694577,19.6202532 126.818182,19.4936709 126.818182,19.2405063 L126.818182,6.70886076 C126.818182,6.58227848 126.694577,6.32911392 126.447368,6.32911392 Z" id="Path"></path>
                    <path d="M135.223285,5.82278481 C133.12201,5.82278481 131.515152,6.4556962 130.155502,7.84810127 C128.919458,9.11392405 128.177831,10.8860759 128.177831,12.9113924 C128.177831,14.9367089 128.795853,16.5822785 130.155502,17.9746835 C131.515152,19.2405063 133.12201,20 135.223285,20 C138.189793,20 140.538278,18.4810127 141.527113,15.9493671 C141.650718,15.6962025 141.403509,15.443038 141.1563,15.443038 L137.818979,15.443038 C137.695375,15.443038 137.57177,15.443038 137.57177,15.5696203 C137.077352,16.0759494 136.335726,16.4556962 135.223285,16.4556962 C133.616427,16.4556962 132.627592,15.6962025 132.380383,14.3037975 L132.380383,14.3037975 L138.560606,14.3037975 L140.909091,14.3037975 L141.774322,14.3037975 C142.021531,14.3037975 142.145136,14.1772152 142.145136,13.9240506 L142.145136,13.164557 L142.145136,13.164557 C142.145136,11.1392405 141.527113,9.49367089 140.167464,8.10126582 C138.807815,6.58227848 137.200957,5.82278481 135.223285,5.82278481 Z M138.066188,11.3924051 L132.380383,11.3924051 L132.380383,11.3924051 C132.751196,10.1265823 133.740032,9.49367089 135.223285,9.49367089 C136.582935,9.49367089 137.57177,10.1265823 138.066188,11.3924051 L138.066188,11.3924051 Z" id="Shape"></path>
                    <path d="M149.19059,6.07594937 C145.606061,6.07594937 143.38118,8.10126582 143.38118,12.1518987 L143.38118,19.3670886 C143.38118,19.6202532 143.504785,19.7468354 143.751994,19.7468354 L146.96571,19.7468354 C147.212919,19.7468354 147.336523,19.6202532 147.336523,19.3670886 L147.336523,12.1518987 C147.336523,10.6329114 147.954545,9.87341772 149.19059,9.87341772 C150.30303,9.87341772 151.044657,10.6329114 151.044657,11.8987342 C151.044657,12.1518987 151.168262,12.278481 151.41547,12.278481 L153.516746,12.278481 L154.629187,12.278481 L154.629187,12.278481 C154.876396,12.278481 155,12.1518987 155,11.8987342 C154.876396,7.97468354 152.77512,6.07594937 149.19059,6.07594937 Z" id="Path"></path>
                    <path d="M90.3548644,5.82278481 C86.523126,5.82278481 83.5566188,8.98734177 83.5566188,12.7848101 C83.5566188,16.5822785 86.6467305,19.7468354 90.3548644,19.7468354 C94.0629984,19.7468354 97.15311,16.5822785 97.15311,12.7848101 C97.15311,8.98734177 94.0629984,5.82278481 90.3548644,5.82278481 Z M90.3548644,15.9493671 C88.6244019,15.9493671 87.2647528,14.556962 87.2647528,12.9113924 C87.2647528,11.2658228 88.6244019,9.87341772 90.3548644,9.87341772 C92.085327,9.87341772 93.4449761,11.2658228 93.4449761,12.9113924 C93.3213716,14.556962 91.9617225,15.9493671 90.3548644,15.9493671 Z" id="Shape"></path>
                    <path d="M61.6786284,5.94936709 C59.7009569,5.56962025 57.84689,6.20253165 56.6108453,7.46835443 C55.2511962,6.20253165 53.5207337,5.56962025 51.5430622,5.94936709 C51.4194577,5.94936709 51.4194577,5.94936709 51.2958533,6.07594937 C51.2958533,6.07594937 51.2958533,6.07594937 51.1722488,6.07594937 C49.5653907,6.32911392 48.0821372,8.10126582 48.0821372,8.10126582 C47.8349282,8.48101266 47.5877193,8.73417722 47.3405104,8.98734177 C46.8460925,9.49367089 46.3516746,9.74683544 45.7336523,9.87341772 C44.9920255,9.87341772 44.3740032,9.62025316 44.0031898,9.11392405 C42.7671451,7.21518987 40.6658692,5.82278481 38.1937799,5.82278481 C35.8452951,5.82278481 33.7440191,7.08860759 32.5079745,8.86075949 C32.38437,8.98734177 32.38437,9.11392405 32.2607656,9.11392405 C31.3955343,10 30.0358852,10 29.1706539,9.11392405 C29.1706539,9.11392405 29.1706539,8.98734177 29.0470494,8.98734177 C27.8110048,7.08860759 25.7097289,5.69620253 23.2376396,5.69620253 C22.8668262,5.69620253 22.4960128,5.69620253 22.1251994,5.82278481 C22.1251994,5.82278481 22.1251994,5.82278481 22.1251994,5.82278481 C21.3835726,5.94936709 20.6419458,6.20253165 20.0239234,6.58227848 C19.5295056,6.83544304 18.9114833,7.08860759 18.4170654,7.46835443 C17.4282297,8.2278481 16.3157895,8.73417722 15.0797448,8.98734177 C14.9561404,8.98734177 14.7089314,9.11392405 14.585327,9.11392405 L14.585327,1.7721519 C14.585327,1.51898734 14.4617225,1.39240506 14.2145136,1.39240506 L10.877193,1.39240506 C10.6299841,1.39240506 10.5063796,1.51898734 10.5063796,1.7721519 L10.5063796,9.49367089 C10.1355662,9.49367089 8.03429027,9.24050633 6.79824561,8.98734177 C5.68580542,8.86075949 5.06778309,8.60759494 4.57336523,8.2278481 C4.07894737,7.84810127 4.07894737,7.46835443 4.07894737,7.46835443 L4.07894737,7.46835443 L4.07894737,1.7721519 C4.07894737,1.51898734 3.9553429,1.39240506 3.70813397,1.39240506 L0.370813397,1.39240506 C0.123604466,1.39240506 0,1.51898734 0,1.7721519 L0,19.2405063 C0,19.4936709 0.123604466,19.6202532 0.370813397,19.6202532 L3.70813397,19.6202532 C3.9553429,19.6202532 4.07894737,19.4936709 4.07894737,19.2405063 L4.07894737,12.1518987 L4.07894737,12.1518987 C5.06778309,12.5316456 6.42743222,12.9113924 7.29266348,13.0379747 C8.77591707,13.2911392 10.0119617,13.2911392 10.3827751,13.2911392 C10.5063796,13.2911392 10.6299841,13.4177215 10.6299841,13.5443038 L10.6299841,19.3670886 C10.6299841,19.6202532 10.7535885,19.7468354 11.0007974,19.7468354 L14.338118,19.7468354 C14.585327,19.7468354 14.7089314,19.6202532 14.7089314,19.3670886 L14.7089314,13.0379747 C15.3269537,12.9113924 15.9449761,12.7848101 16.5629984,12.6582278 C16.5629984,12.6582278 16.5629984,12.6582278 16.5629984,12.6582278 C16.5629984,12.7848101 16.5629984,12.7848101 16.5629984,12.9113924 C16.5629984,16.7088608 19.65311,19.8734177 23.361244,19.8734177 C26.8221691,19.8734177 29.6650718,17.2151899 30.1594896,13.7974684 C30.4066986,13.7974684 30.9011164,13.7974684 31.5191388,13.7974684 C32.0135566,17.2151899 34.8564593,19.8734177 38.3173844,19.8734177 C41.7783094,19.8734177 44.6212121,17.2151899 45.11563,13.7974684 C45.11563,13.7974684 45.11563,13.7974684 45.11563,13.7974684 C45.7336523,13.7974684 46.722488,13.7974684 46.8460925,13.7974684 L46.8460925,19.2405063 C46.8460925,19.4936709 46.969697,19.6202532 47.2169059,19.6202532 L50.3070175,19.6202532 C50.5542265,19.6202532 50.6778309,19.4936709 50.6778309,19.2405063 L50.6778309,12.0253165 C50.6778309,11.1392405 51.1722488,10.2531646 52.0374801,9.87341772 C53.5207337,9.36708861 54.7567783,10.5063291 54.7567783,11.8987342 L54.7567783,19.2405063 C54.7567783,19.4936709 54.8803828,19.6202532 55.1275917,19.6202532 L58.2177033,19.6202532 C58.4649123,19.6202532 58.5885167,19.4936709 58.5885167,19.2405063 L58.5885167,12.0253165 C58.5885167,11.1392405 59.0829346,10.2531646 59.9481659,9.87341772 C61.4314195,9.36708861 62.6674641,10.5063291 62.6674641,11.8987342 L62.6674641,19.2405063 C62.6674641,19.4936709 62.7910686,19.6202532 63.0382775,19.6202532 L66.1283892,19.6202532 C66.3755981,19.6202532 66.4992026,19.4936709 66.4992026,19.2405063 L66.4992026,12.1518987 C66.4992026,9.36708861 64.3979266,6.4556962 61.6786284,5.94936709 Z M23.2376396,15.9493671 C21.507177,15.9493671 20.1475279,14.556962 20.1475279,12.9113924 C20.1475279,11.2658228 21.507177,9.87341772 23.2376396,9.87341772 C24.1028708,9.87341772 24.8444976,10.2531646 25.3389155,10.7594937 C25.3389155,10.7594937 25.4625199,10.8860759 25.4625199,10.8860759 C25.9569378,11.3924051 26.2041467,12.1518987 26.2041467,12.9113924 C26.3277512,14.556962 24.9681021,15.9493671 23.2376396,15.9493671 Z M38.1937799,15.9493671 C36.4633174,15.9493671 35.1036683,14.556962 35.1036683,12.9113924 C35.1036683,11.2658228 36.4633174,9.87341772 38.1937799,9.87341772 C38.8118022,9.87341772 39.4298246,10.1265823 39.9242424,10.3797468 C39.9242424,10.3797468 39.9242424,10.3797468 39.9242424,10.3797468 C40.0478469,10.5063291 40.1714514,10.6329114 40.4186603,10.7594937 C40.4186603,10.7594937 40.4186603,10.7594937 40.4186603,10.7594937 C40.9130781,11.2658228 41.2838915,12.0253165 41.2838915,12.9113924 C41.1602871,14.556962 39.800638,15.9493671 38.1937799,15.9493671 Z" id="Shape"></path>
                </g>
            </g>
        </g>
    </g>
</svg>