<?xml version="1.0" encoding="UTF-8"?>
<svg width="13px" height="14px" viewBox="0 0 13 14" version="1.1" xmlns="http://www.w3.org/2000/svg" xmlns:xlink="http://www.w3.org/1999/xlink">
    <title>house</title>
    <g id="Styleguide" stroke="none" stroke-width="1" fill="none" fill-rule="evenodd">
        <g id="Styles" transform="translate(-349.000000, -2010.000000)" fill="#647585">
            <path d="M362,2023.25293 C362,2023.46211 361.930188,2023.63892 361.790556,2023.78335 C361.650923,2023.92778 361.48,2024 361.277778,2024 L349.722222,2024 C349.519999,2024 349.349075,2023.92778 349.209444,2023.78335 C349.069814,2023.63892 349,2023.46211 349,2023.25293 L349,2015.39381 C349,2015.15475 349.09148,2014.96051 349.274444,2014.8111 L355.052222,2010.16435 C355.187038,2010.05478 355.336295,2010 355.5,2010 C355.663705,2010 355.812962,2010.05478 355.947778,2010.16435 L361.725556,2014.8111 C361.908521,2014.96051 362,2015.15973 362,2015.40875 L362,2023.25293 Z" id="house"></path>
        </g>
    </g>
</svg>