<?xml version="1.0" encoding="UTF-8"?>
<svg width="58px" height="85px" viewBox="0 0 58 85" version="1.1" xmlns="http://www.w3.org/2000/svg" xmlns:xlink="http://www.w3.org/1999/xlink">
    <title>DC566C3D-289D-4B6A-B5CE-A971FAD06747</title>
    <g id="Styleguide" stroke="none" stroke-width="1" fill="none" fill-rule="evenodd">
        <g id="Styles" transform="translate(-1095.000000, -2849.000000)">
            <g id="Infrarood-heater" transform="translate(1097.000000, 2851.000000)">
                <rect id="Rectangle" fill="#2CA982" fill-rule="nonzero" x="19.4" y="11.3" width="5.1" height="46.8"></rect>
                <rect id="Rectangle" fill="#2CA982" fill-rule="nonzero" x="29.7" y="11.3" width="5.1" height="46.8"></rect>
                <path d="M41.6,81 L12.6,81 L12.6,2.8 C12.6,1.2 13.9,0 15.4,0 L38.7,0 C40.3,0 41.5,1.3 41.5,2.8 L41.5,81 L41.6,81 Z" id="Path" stroke="#394553" stroke-width="3" stroke-linecap="round" stroke-linejoin="round"></path>
                <line x1="54.2" y1="81" x2="-7.10542736e-15" y2="81" id="Path" stroke="#394553" stroke-width="3" stroke-linecap="round" stroke-linejoin="round"></line>
                <line x1="12.6" y1="58.1" x2="41.6" y2="58.1" id="Path" stroke="#394553" stroke-width="3" stroke-linecap="round" stroke-linejoin="round"></line>
                <line x1="12.6" y1="11.3" x2="41.6" y2="11.3" id="Path" stroke="#394553" stroke-width="3" stroke-linecap="round" stroke-linejoin="round"></line>
                <g id="Group" transform="translate(18.900000, 11.300000)" stroke="#394553" stroke-linecap="round" stroke-linejoin="round" stroke-width="3">
                    <line x1="0.5" y1="0" x2="0.5" y2="46.8" id="Path"></line>
                    <line x1="5.6" y1="0" x2="5.6" y2="46.8" id="Path"></line>
                    <line x1="10.8" y1="0" x2="10.8" y2="46.8" id="Path"></line>
                    <line x1="15.9" y1="0" x2="15.9" y2="46.8" id="Path"></line>
                </g>
                <circle id="Oval" fill="#394553" fill-rule="nonzero" cx="27.1" cy="67.5" r="3.5"></circle>
            </g>
        </g>
    </g>
</svg>