<?xml version="1.0" encoding="utf-8"?>
<!-- Generator: Adobe Illustrator 25.0.1, SVG Export Plug-In . SVG Version: 6.00 Build 0)  -->
<svg version="1.1" id="Laag_1" xmlns="http://www.w3.org/2000/svg" xmlns:xlink="http://www.w3.org/1999/xlink" x="0px" y="0px"
	 viewBox="0 0 46 48" style="enable-background:new 0 0 46 48;" xml:space="preserve">
<style type="text/css">
	.st0{fill-rule:evenodd;clip-rule:evenodd;fill:#BC1622;}
	.st1{enable-background:new    ;}
	.st2{fill:#FFFFFF;}
</style>
<g id="Styleguide">
	<g id="Styles" transform="translate(-137.000000, -2066.000000)">
		<g id="G" transform="translate(137.000000, 2066.000000)">
			<path id="house" class="st0" d="M46,45.4c0,0.7-0.2,1.3-0.7,1.8c-0.5,0.5-1.1,0.7-1.8,0.7H2.6c-0.7,0-1.3-0.2-1.8-0.7
				C0.2,46.8,0,46.2,0,45.4V18.5c0-0.8,0.3-1.5,1-2L21.4,0.6C21.9,0.2,22.4,0,23,0s1.1,0.2,1.6,0.6L45,16.5c0.6,0.5,1,1.2,1,2V45.4z
				"/>
			<g class="st1">
				<path class="st2" d="M23.3,37.9c-4.8,0-7.8-3.3-7.8-8.6c0-5.2,3-8.5,7.7-8.5c3.8,0,6.7,2.2,7.1,5.6H27c-0.5-1.7-1.9-2.7-3.8-2.7
					c-2.6,0-4.2,2.1-4.2,5.6c0,3.5,1.7,5.7,4.4,5.7c2.2,0,3.8-1.4,3.8-3.4l0-0.3h-3.5v-2.5h6.8v2.1C30.5,35.2,27.7,37.9,23.3,37.9z"
					/>
			</g>
		</g>
	</g>
</g>
</svg>
