<?xml version="1.0" encoding="utf-8"?>
<!-- Generator: Adobe Illustrator 25.0.1, SVG Export Plug-In . SVG Version: 6.00 Build 0)  -->
<svg version="1.1" id="Laag_1" xmlns="http://www.w3.org/2000/svg" xmlns:xlink="http://www.w3.org/1999/xlink" x="0px" y="0px"
	 viewBox="0 0 46 48" style="enable-background:new 0 0 46 48;" xml:space="preserve">
<style type="text/css">
	.st0{fill-rule:evenodd;clip-rule:evenodd;fill:#018D37;}
	.st1{enable-background:new    ;}
	.st2{fill:#FFFFFF;}
</style>
<g id="Styleguide">
	<g id="Styles" transform="translate(-647.000000, -2066.000000)">
		<g id="B" transform="translate(647.000000, 2066.000000)">
			<path id="house" class="st0" d="M46,45.4c0,0.7-0.2,1.3-0.7,1.8c-0.5,0.5-1.1,0.7-1.8,0.7H2.6c-0.7,0-1.3-0.2-1.8-0.7
				C0.2,46.8,0,46.2,0,45.4V18.5c0-0.8,0.3-1.5,1-2L21.4,0.6C21.9,0.2,22.4,0,23,0s1.1,0.2,1.6,0.6L45,16.5c0.6,0.5,1,1.2,1,2V45.4z
				"/>
			<g class="st1">
				<path class="st2" d="M17,37.4V21.1h7.1c3.2,0,5,1.5,5,4.1c0,1.7-1.3,3.2-2.9,3.5v0.2c2.2,0.2,3.7,1.8,3.7,3.9
					c0,2.9-2.2,4.7-5.6,4.7H17z M20.4,27.9h2.6c1.8,0,2.8-0.8,2.8-2.1c0-1.3-0.9-2.1-2.6-2.1h-2.8V27.9z M23.4,34.9c2,0,3-0.8,3-2.4
					c0-1.5-1.1-2.3-3.1-2.3h-3v4.7H23.4z"/>
			</g>
		</g>
	</g>
</g>
</svg>
