<?xml version="1.0" encoding="utf-8"?>
<!-- Generator: Adobe Illustrator 25.0.1, SVG Export Plug-In . SVG Version: 6.00 Build 0)  -->
<svg version="1.1" id="Laag_1" xmlns="http://www.w3.org/2000/svg" xmlns:xlink="http://www.w3.org/1999/xlink" x="0px" y="0px"
	 viewBox="0 0 46 48" style="enable-background:new 0 0 46 48;" xml:space="preserve">
<g id="Styleguide">
	<g id="Styles" transform="translate(-851.000000, -2066.000000)">
		<g id="Geen" transform="translate(851.000000, 2066.000000)">
			<path id="house" fill="#647585" opacity="0.5" d="M46,45.4c0,0.7-0.2,1.3-0.7,1.8c-0.5,0.5-1.1,0.7-1.8,0.7H2.6c-0.7,0-1.3-0.2-1.8-0.7
				C0.2,46.8,0,46.2,0,45.4V18.5c0-0.8,0.3-1.5,1-2L21.4,0.6C21.9,0.2,22.4,0,23,0s1.1,0.2,1.6,0.6L45,16.5c0.6,0.5,1,1.2,1,2V45.4z
				"/>
			<g id="Error" transform="translate(-532.000000, -5.000000), scale(1.5)" fill="#E31440">
				<polygon id="Fill-1" points="375 26.3208042 373.316581 28 369.999999 24.6666695 366.683418 28 365 26.3208042 368.31658 22.9874695 365 19.6792 366.683418 18 369.999999 21.3082694 373.316581 18 375 19.6792 371.683418 22.9874695"></polygon>
			</g>
		</g>
	</g>
</g>
</svg>
