<?xml version="1.0" encoding="UTF-8"?>
<svg width="15px" height="16px" viewBox="0 0 15 16" version="1.1" xmlns="http://www.w3.org/2000/svg" xmlns:xlink="http://www.w3.org/1999/xlink">
    <title>money</title>
    <g id="Woonplan" stroke="none" stroke-width="1" fill="none" fill-rule="evenodd">
        <g transform="translate(-404.000000, -795.000000)" fill="#FF7F4A" fill-rule="nonzero" id="Controls-info-(sticky)">
            <g transform="translate(0.000000, 766.000000)">
                <g id="Nu-aanpakken-info" transform="translate(394.000000, 20.000000)">
                    <g id="money-bag" transform="translate(10.000000, 9.000000)">
                        <path d="M10.1221051,3.97829812 L11.1122795,1.90976585 C11.3161187,1.48971937 11.2864756,0.995129049 11.0338955,0.601941748 C10.8001755,0.228810462 10.3889364,0.00132255063 9.9457411,0 L5.05365702,0 C4.61046169,0.00132255063 4.1992226,0.228810462 3.9655026,0.601941748 C3.71319074,0.994713809 3.68312527,1.4886493 3.88596589,1.90862364 L4.87729301,3.97829812 C1.04454571,5.5134209 0.0071103458,10.2798401 0.0071103458,12.7013135 C-0.0506219695,13.534899 0.245165715,14.3545658 0.823226163,14.9628784 C1.92636576,16.0434038 3.93553225,16.0159909 6.26399828,15.9908624 C7.07089245,15.9805825 7.93426921,15.9805825 8.73539985,15.9908624 C9.11002929,15.9908624 9.47658978,16 9.83162321,16 C11.6851744,16 13.2493964,15.8720731 14.176172,14.972016 C14.7566725,14.3614902 15.0526463,13.5379936 14.9922878,12.7013135 C14.9922878,10.2798401 13.9548524,5.5134209 10.1221051,3.97829812 Z M8.3131572,9.21637427 C8.6172614,9.21637427 8.86378655,9.46772318 8.86378655,9.77777778 C8.86378655,10.0878324 8.6172614,10.3391813 8.3131572,10.3391813 L7.02321618,10.3391813 C6.96812762,10.3391184 6.91594862,10.3643871 6.88118871,10.407961 C6.8464288,10.4515348 6.83279485,10.5087669 6.84407809,10.5637427 C7.07901328,11.6551111 7.85283107,12.2105263 9.15231633,12.2105263 C9.45642053,12.2105263 9.70294569,12.4618752 9.70294569,12.7719298 C9.70294569,13.0819844 9.45642053,13.3333333 9.15231633,13.3333333 C7.21924023,13.3333333 5.98729882,12.2853801 5.72813594,10.4986199 C5.71515861,10.408006 5.63954107,10.340427 5.54973203,10.3391813 L4.96239406,10.3391813 C4.65828986,10.3391813 4.41176471,10.0878324 4.41176471,9.77777778 C4.41176471,9.46772318 4.65828986,9.21637427 4.96239406,9.21637427 L5.54973203,9.21637427 C5.64054044,9.21628285 5.71763303,9.14850137 5.73107263,9.05693567 C5.99023551,7.27242105 7.22217692,6.22222222 9.15525302,6.22222222 C9.45935721,6.22222222 9.70588235,6.47357114 9.70588235,6.78362573 C9.70588235,7.09368032 9.45935721,7.34502923 9.15525302,7.34502924 C7.85576776,7.34502924 7.08194997,7.89745029 6.84701478,8.99181287 C6.83601561,9.0467499 6.84975686,9.10382068 6.88445702,9.14731961 C6.91915717,9.19081854 6.97115937,9.21616152 7.02615287,9.21637427 L8.3131572,9.21637427 Z" id="money"></path>
                    </g>
                </g>
            </g>
        </g>
    </g>
</svg>