<?xml version="1.0" encoding="UTF-8"?>
<svg width="56px" height="74px" viewBox="0 0 56 74" version="1.1" xmlns="http://www.w3.org/2000/svg" xmlns:xlink="http://www.w3.org/1999/xlink">
    <title>Schilderwerk (selected)</title>
    <g id="Styleguide" stroke="none" stroke-width="1" fill="none" fill-rule="evenodd">
        <g id="Styles" transform="translate(-139.000000, -2855.000000)">
            <g id="kwast-icon" transform="translate(141.000000, 2857.000000)">
                <polygon id="Path" fill="#2CA982" fill-rule="nonzero" points="33.0909091 11.6666667 40.1818182 0 52 0 52 30.3333333 0 30.3333333 0 0 30.7272727 0"></polygon>
                <path d="M52,30.3333333 C52,36.8666667 46.8,42 40.1818182,42 L33.0909091,42 L35.9272727,58.5666667 C36.8727273,64.6333333 32.1454545,70 26,70 C20.3272727,70 16.0727273,65.5666667 16.0727273,60.2 C16.0727273,59.7333333 16.0727273,59.0333333 16.3090909,58.5666667 L18.9090909,42 L11.8181818,42 C5.2,42 0,36.8666667 0,30.3333333 L0,0 L30.7272727,0 L33.0909091,11.6666667 L40.1818182,0 L52,0 L52,30.3333333 Z" id="Path" stroke="#414C57" stroke-width="3" stroke-linecap="round" stroke-linejoin="round"></path>
                <line x1="0" y1="30.3333333" x2="52" y2="30.3333333" id="Path" stroke="#414C57" stroke-width="3" stroke-linecap="round" stroke-linejoin="round"></line>
                <ellipse id="XMLID_297_" fill="#414C57" fill-rule="nonzero" cx="26" cy="60.6666667" rx="2.36363636" ry="2.33333333"></ellipse>
            </g>
        </g>
    </g>
</svg>