<?xml version="1.0" encoding="UTF-8"?>
<svg width="48px" height="48px" viewBox="0 0 48 48" version="1.1" xmlns="http://www.w3.org/2000/svg" xmlns:xlink="http://www.w3.org/1999/xlink">
    <title>Add</title>
    <g id="Woonwensen" stroke="none" stroke-width="1" fill="none" fill-rule="evenodd">
        <g id="Woonwensen---Welke-zaken-vervangen?" transform="translate(-836.000000, -531.000000)">
            <g id="Voeg-onderdeel-toe" transform="translate(777.000000, 482.000000)">
                <g id="Add" transform="translate(59.000000, 49.000000)">
                    <path d="M24,48 C19.6479771,48 15.6160183,46.9120114 11.904,44.736 C8.28798171,42.5919895 5.40801051,39.7120183 3.264,36.096 C1.08798857,32.3839817 0,28.3520229 0,24 C0,19.6479771 1.08798857,15.6160183 3.264,11.904 C5.40801051,8.28798171 8.28798171,5.40800914 11.904,3.264 C15.6160183,1.08799543 19.6479771,0 24,0 C28.3520229,0 32.3839817,1.08799543 36.096,3.264 C39.7120183,5.40800914 42.5919909,8.28798171 44.736,11.904 C46.9120046,15.6160183 48,19.6479771 48,24 C48,28.3520229 46.9120046,32.3839817 44.736,36.096 C42.5919909,39.7120183 39.7120183,42.5919895 36.096,44.736 C32.3839817,46.9120114 28.3520229,48 24,48 Z" id="Path" fill="#622181"></path>
                    <polygon id="Path" fill="#FFFFFF" points="21.9612903 21.9612903 14.3225806 21.9612903 14.3225806 25.7806452 21.9612903 25.7806452 21.9612903 33.4193548 25.7806452 33.4193548 25.7806452 25.7806452 33.4193548 25.7806452 33.4193548 21.9612903 25.7806452 21.9612903 25.7806452 14.3225806 21.9612903 14.3225806"></polygon>
                </g>
            </g>
        </g>
    </g>
</svg>