<?xml version="1.0" encoding="UTF-8"?>
<svg width="102px" height="97px" viewBox="0 0 102 97" version="1.1" xmlns="http://www.w3.org/2000/svg" xmlns:xlink="http://www.w3.org/1999/xlink">
    <title>Radiatoren</title>
    <g id="Styleguide" stroke="none" stroke-width="1" fill="none" fill-rule="evenodd">
        <g id="Styles" transform="translate(-442.000000, -2977.000000)">
            <g id="radiator-verwarming-icon" transform="translate(444.000000, 2979.000000)">
                <path d="M30.1,29.7 L30.1,86.7 C30.1,90.2 27.3,93 23.8,93 L23.8,93 C20.3,93 17.5,90.2 17.5,86.7 L17.5,29.7 C17.5,26.2 20.3,23.4 23.8,23.4 L23.8,23.4" id="Path" stroke="#394553" stroke-width="3" stroke-linecap="round" stroke-linejoin="round"></path>
                <path d="M23.8,23.4 C27.3,23.4 30.1,26.2 30.1,29.7" id="Path" stroke="#394553" stroke-width="3" stroke-linecap="round" stroke-linejoin="round"></path>
                <path d="M68.1,29.7 C68.1,26.2 70.9,23.4 74.4,23.4" id="Path" stroke="#394553" stroke-width="3" stroke-linecap="round" stroke-linejoin="round"></path>
                <path d="M42.8,86.7 C42.8,90.2 40,93 36.5,93 L36.5,93 C33,93 30.2,90.2 30.2,86.7 L30.2,29.7" id="Path" stroke="#394553" stroke-width="3" stroke-linecap="round" stroke-linejoin="round"></path>
                <path d="M55.4,41.4 L55.4,86.7 C55.4,90.2 52.6,93 49.1,93 L49.1,93 C45.6,93 42.8,90.2 42.8,86.7 L42.8,41.4" id="Path" stroke="#394553" stroke-width="3" stroke-linecap="round" stroke-linejoin="round"></path>
                <path d="M68.1,29.7 L68.1,86.7 C68.1,90.2 65.3,93 61.8,93 L61.8,93 C58.3,93 55.5,90.2 55.5,86.7" id="Path" stroke="#394553" stroke-width="3" stroke-linecap="round" stroke-linejoin="round"></path>
                <path d="M74.4,23.4 L74.4,23.4 C77.9,23.4 80.7,26.2 80.7,29.7 L80.7,86.7 C80.7,90.2 77.9,93 74.4,93 L74.4,93 C70.9,93 68.1,90.2 68.1,86.7 L68.1,29.7" id="Path" stroke="#394553" stroke-width="3" stroke-linecap="round" stroke-linejoin="round"></path>
                <rect id="Rectangle" stroke="#394553" stroke-width="3" stroke-linecap="round" stroke-linejoin="round" x="9.5" y="74" width="7.9" height="9.5"></rect>
                <line x1="-7.10542736e-15" y1="78.8" x2="9.5" y2="78.8" id="Path" stroke="#394553" stroke-width="3" stroke-linecap="round" stroke-linejoin="round"></line>
                <rect id="Rectangle" stroke="#394553" stroke-width="3" stroke-linecap="round" stroke-linejoin="round" x="80.8" y="29.7" width="7.9" height="9.5"></rect>
                <line x1="98.2" y1="34.5" x2="88.7" y2="34.5" id="Path" stroke="#394553" stroke-width="3" stroke-linecap="round" stroke-linejoin="round"></line>
                <circle id="Oval" stroke="#394553" stroke-width="3" stroke-linecap="round" stroke-linejoin="round" cx="49.1" cy="20.6" r="20.6"></circle>
                <path d="M57,26.9 C57,31.3 53.5,34.8 49.1,34.8 C44.7,34.8 41.2,31.3 41.2,26.9 C41.3,25.2 41.9,23.6 42.8,22.2 C42.8,22.2 45,25.6 47.5,25.4 C47.5,25.4 41.7,12.7 49.1,6.4 C48.9,11.1 50.6,15.6 53.8,19.1 C56.1,21 57.3,23.9 57,26.9" id="Path" fill="#2CA982" fill-rule="nonzero"></path>
            </g>
        </g>
    </g>
</svg>