<?xml version="1.0" encoding="UTF-8"?>
<svg width="100px" height="104px" viewBox="0 0 100 104" version="1.1" xmlns="http://www.w3.org/2000/svg" xmlns:xlink="http://www.w3.org/1999/xlink">
    <title>Afgerond dak</title>
    <g id="Styleguide" stroke="none" stroke-width="1" fill="none" fill-rule="evenodd">
        <g id="Styles" transform="translate(-1040.000000, -2703.000000)">
            <g id="afgeronddak" transform="translate(1042.000000, 2705.000000)">
                <path d="M5.7,37.0872642 L67.7,1.29726421 L67.7,1.29726421 C70.8984617,-0.474276284 74.7938893,-0.428671278 77.95,1.41726421 L77.95,1.41726421 C89.2985474,7.95982042 96.2966572,20.0578599 96.31,33.1572642 L96.31,41.1572642 L96.31,41.1572642 L34.07,77.1572642 L34.07,69.0972642 C34.0673776,55.9845202 27.0631865,43.8711205 15.7,37.3272642 L15.7,37.3272642 C12.4604598,35.4592955 8.47058412,35.4609291 5.23257458,37.3315499 C1.99456505,39.2021707 -7.10542736e-15,42.6577552 -7.10542736e-15,46.3972642 L-7.10542736e-15,57.4472642 L8.65,52.4472642 L8.65,40.3672642 C8.645051,39.0846471 9.10715218,37.8440831 9.95,36.8772642" id="Path" fill="#2CA982" fill-rule="nonzero"></path>
                <line x1="37.64" y1="75.6372642" x2="37.64" y2="100.387264" id="Path" stroke="#394553" stroke-width="3" stroke-linecap="round" stroke-linejoin="round"></line>
                <line x1="90.73" y1="44.9872642" x2="90.73" y2="69.7372642" id="Path" stroke="#394553" stroke-width="3" stroke-linecap="round" stroke-linejoin="round"></line>
                <line x1="37.64" y1="100.387264" x2="90.73" y2="69.7372642" id="Path" stroke="#394553" stroke-width="3" stroke-linecap="round" stroke-linejoin="round"></line>
                <path d="M37.45,100.397264 L8.64980733,83.7172642 L8.64980733,41.4372642 C8.62754223,37.7435222 10.5697321,34.3161284 13.75,32.4372642" id="Path" stroke="#394553" stroke-width="3" stroke-linecap="round" stroke-linejoin="round"></path>
                <path d="M8.65,52.4872642 L0,57.4872642 L0,46.3972642 C0,42.6577552 1.99456505,39.2021707 5.23257458,37.3315499 C8.47058412,35.4609291 12.4604598,35.4592955 15.7,37.3272642 L15.7,37.3272642 C27.0631865,43.8711205 34.0673776,55.9845202 34.07,69.0972642 L34.07,77.1572642 L96.31,41.2172642 L96.31,41.2172642 L96.31,33.1572642 C96.2966572,20.0578599 89.2985474,7.95982042 77.95,1.41726421 L77.95,1.41726421 C74.7938893,-0.428671278 70.8984617,-0.474276284 67.7,1.29726421 L67.7,1.29726421 L5.7,37.0872642" id="Path" stroke="#394553" stroke-width="3" stroke-linecap="round" stroke-linejoin="round"></path>
            </g>
        </g>
    </g>
</svg>