<?xml version="1.0" encoding="UTF-8"?>
<svg width="16px" height="16px" viewBox="0 0 16 16" version="1.1" xmlns="http://www.w3.org/2000/svg" xmlns:xlink="http://www.w3.org/1999/xlink">
    <title>DCA6693D-FB2C-4B01-B9C3-C2D03F6EE8D3</title>
    <g id="Styleguide" stroke="none" stroke-width="1" fill="none" fill-rule="evenodd">
        <g id="Styles" transform="translate(-570.000000, -2008.000000)" fill="#647585" fill-rule="nonzero">
            <g id="subsidie-icon" transform="translate(570.000000, 2008.000000)">
                <path d="M13.6666668,4.67875345 C14.9553311,4.67875345 16,3.63137881 16,2.33937672 C16,1.04737463 14.9553311,0 13.6666668,0 C12.3780024,0 11.3333336,1.04737463 11.3333336,2.33937672 C11.3333336,3.63137881 12.3780024,4.67875345 13.6666668,4.67875345 Z M13.1666668,1.67098337 C13.1666668,1.39412578 13.3905244,1.16968836 13.6666668,1.16968836 C13.9428091,1.16968836 14.1666668,1.39412578 14.1666668,1.67098337 L14.1666668,3.00777007 C14.1666668,3.28462766 13.9428091,3.50906508 13.6666668,3.50906508 C13.3905244,3.50906508 13.1666668,3.28462766 13.1666668,3.00777007 L13.1666668,1.67098337 Z" id="Shape"></path>
                <path d="M9.33333379,10.6942936 C10.9901878,10.6942936 12.3333338,9.34766906 12.3333338,7.68652352 C12.3333338,6.02537798 10.9901878,4.67875345 9.33333379,4.67875345 C7.67647948,4.67875345 6.33333379,6.02537798 6.33333379,7.68652352 C6.33333379,9.34766906 7.67647948,10.6942936 9.33333379,10.6942936 L9.33333379,10.6942936 Z M8.83333368,6.87509399 C8.83333368,6.5982364 9.05719129,6.37379898 9.33333368,6.37379898 C9.60947601,6.37379898 9.83333368,6.5982364 9.83333368,6.87509399 L9.83333368,8.49795305 C9.83333368,8.77481064 9.60947601,8.99924806 9.33333368,8.99924806 C9.05719129,8.99924806 8.83333368,8.77481064 8.83333368,8.49795305 L8.83333368,6.87509399 Z" id="Shape"></path>
                <path d="M0.291334083,10.0259002 L2.041334,10.0259002 C2.11877721,10.0259002 2.19304855,10.0567441 2.24780917,10.1116466 C2.30256979,10.166549 2.33333399,10.2410127 2.33333399,10.3186565 L2.33333399,14.4125658 C2.33333399,14.57399 2.20300739,14.7049535 2.04200067,14.7053221 L0.291334083,14.7053221 C0.130327355,14.7049535 0,14.57399 0,14.4125658 L0,10.3186565 C-0.00017631175,10.2410743 0.0304394566,10.1666087 0.0850942566,10.111687 C0.139749057,10.0567652 0.213952037,10.0259002 0.291334083,10.0259002 Z" id="Path"></path>
                <path d="M7.24466708,12.0310803 C7.19505949,12.0301282 7.14852468,12.0068005 7.11800042,11.9675829 C6.53966847,11.1877927 5.63560194,10.7181959 4.66666721,10.6942936 L3.16600061,10.6942936 C3.07395316,10.6942936 2.99933395,10.7691061 2.99933395,10.8613919 L2.99933395,14.292255 C3.00080448,14.3648742 3.04784408,14.4286494 3.11666728,14.4513326 C6.06400047,15.4405548 7.32600041,16 8.43933369,16 C9.79733363,16 10.9333336,15.1671819 14.6333334,13.2656028 C14.9329035,13.1138486 15.0766412,12.7651819 14.9713546,12.44566 C14.8660679,12.1261381 14.5434489,11.9319391 14.2126668,11.9889715 C14.0274011,11.9911308 13.8433656,12.0194827 13.6660001,12.0731891 L11.4220002,12.7856964 C11.3607426,12.8065169 11.3162289,12.8599169 11.3066669,12.9240538 C11.1994891,13.5644125 10.6476313,14.034142 10.0000003,14.0362603 L7.33333375,14.0362603 C7.14923884,14.0362603 7.00000043,13.8866354 7.00000043,13.7020637 C7.00000043,13.5174919 7.14923884,13.367867 7.33333375,13.367867 L10.0000003,13.367867 C10.3681901,13.367867 10.6666669,13.0686171 10.6666669,12.6994736 C10.6666669,12.3303302 10.3681901,12.0310803 10.0000003,12.0310803 L7.24466708,12.0310803 Z" id="Path"></path>
            </g>
        </g>
    </g>
</svg>