<?xml version="1.0" encoding="UTF-8"?>
<svg width="67px" height="89px" viewBox="0 0 67 89" version="1.1" xmlns="http://www.w3.org/2000/svg" xmlns:xlink="http://www.w3.org/1999/xlink">
    <title>douchekop</title>
    <g id="Styleguide" stroke="none" stroke-width="1" fill="none" fill-rule="evenodd">
        <g id="Styles" transform="translate(-149.000000, -3422.000000)">
            <g id="douchekop" transform="translate(151.000000, 3424.000000)">
                <line x1="13.7" y1="63.7" x2="7.10542736e-15" y2="63.7" id="Path" stroke="#394553" stroke-width="3" stroke-linecap="round" stroke-linejoin="round"></line>
                <line x1="6.9" y1="70.6" x2="6.9" y2="85" id="Path" stroke="#394553" stroke-width="3" stroke-linecap="round" stroke-linejoin="round"></line>
                <line x1="25" y1="33.7" x2="38.7" y2="0.3" id="Path" stroke="#394553" stroke-width="3" stroke-linecap="round" stroke-linejoin="round"></line>
                <path d="M38.6,0 C37.2,0 35.8,0 29.4,0 C23,0 4.7,9.7 2.9,31.9 C1.1,54.1 7.10542736e-15,63.1 7.10542736e-15,63.1 L7.10542736e-15,70.6 L13.6,70.6 C13.6,70.6 13.6,61.4 13.6,58.4 C13.6,55.4 11.1,55.3 11.1,53.8 C11.1,52.3 14.8,52.8 14.8,49.6 C14.8,46.4 11.1,46.2 11.1,44.5 C11.1,42.8 15.3,42.7 15.3,40.4 C15.3,38.1 12.5,37 12.5,32.9 C12.5,28.8 14.8,27.1 17.8,27.1 C20.8,27.1 23.9,33.1 24.4,33.5 C24.9,34 27.4,35 27.4,35 C29.4,35.8 31.8,34.9 32.6,32.8 L43.6,6.1 C44.4,4.1 43.5,1.7 41.4,0.9 C41.5,0.9 40,0 38.6,0 Z" id="Path" stroke="#394553" stroke-width="3" stroke-linecap="round" stroke-linejoin="round"></path>
                <g id="Group" transform="translate(36.500000, 5.000000)" fill="#2CA982" fill-rule="nonzero">
                    <circle id="Oval" cx="1.9" cy="30.2" r="1.9"></circle>
                    <circle id="Oval" cx="4.7" cy="23.1" r="1.9"></circle>
                    <circle id="Oval" cx="7.5" cy="16.1" r="1.9"></circle>
                    <circle id="Oval" cx="10.3" cy="9" r="1.9"></circle>
                    <circle id="Oval" cx="13.1" cy="1.9" r="1.9"></circle>
                    <circle id="Oval" cx="7.8" cy="33.6" r="1.9"></circle>
                    <circle id="Oval" cx="10.7" cy="26.1" r="1.9"></circle>
                    <circle id="Oval" cx="13.7" cy="18.5" r="1.9"></circle>
                    <circle id="Oval" cx="16.7" cy="11" r="1.9"></circle>
                    <circle id="Oval" cx="19.7" cy="3.4" r="1.9"></circle>
                    <circle id="Oval" cx="13.6" cy="37" r="1.9"></circle>
                    <circle id="Oval" cx="16.8" cy="29" r="1.9"></circle>
                    <circle id="Oval" cx="20" cy="21" r="1.9"></circle>
                    <circle id="Oval" cx="23.2" cy="13" r="1.9"></circle>
                    <circle id="Oval" cx="26.3" cy="5" r="1.9"></circle>
                </g>
            </g>
        </g>
    </g>
</svg>