<?xml version="1.0" encoding="UTF-8"?>
<svg width="94px" height="94px" viewBox="0 0 94 94" version="1.1" xmlns="http://www.w3.org/2000/svg" xmlns:xlink="http://www.w3.org/1999/xlink">
    <title>Stadsverwarming</title>
    <g id="Styleguide" stroke="none" stroke-width="1" fill="none" fill-rule="evenodd">
        <g id="Styles" transform="translate(-1199.000000, -2845.000000)">
            <g id="Stadsverwarming" transform="translate(1201.000000, 2847.000000)">
                <polygon id="Path" fill="#2CA982" fill-rule="nonzero" points="72.4 69.2 62.3 69.2 62.3 50.9 42.1 41.1 42.1 69.2 32.2 69.2 32.2 19.1 52 19.1 52 36.1 61.9 26.9 72.2 36.6 72.2 69.2 72.4 69.2"></polygon>
                <line x1="25.1" y1="56.8" x2="25.1" y2="62.9" id="Path" stroke="#394553" stroke-width="3" stroke-linecap="round" stroke-linejoin="round"></line>
                <line x1="52.1" y1="59.8" x2="52.1" y2="68.1" id="Path" stroke="#394553" stroke-width="3" stroke-linecap="round" stroke-linejoin="round"></line>
                <polyline id="Path" stroke="#394553" stroke-width="3" stroke-linecap="round" stroke-linejoin="round" points="42.1 69.5 42.1 40.7 62.3 50.9 62.3 69.5 72.4 69.5 72.4 36.6 62.3 26.6 52.4 36.6"></polyline>
                <polyline id="Path" stroke="#394553" stroke-width="3" stroke-linecap="round" stroke-linejoin="round" points="52.1 45.7 52.1 19.1 32.3 19.1 32.3 69.5 17.6 69.5 17.6 48.4 32.3 48.4"></polyline>
                <path d="M17.6,48.4 C17.6,40.3 24.2,33.8 32.2,33.8" id="Path" stroke="#394553" stroke-width="3" stroke-linecap="round" stroke-linejoin="round"></path>
                <line x1="42.1" y1="18.7" x2="42.1" y2="14.5" id="Path" stroke="#394553" stroke-width="3" stroke-linecap="round" stroke-linejoin="round"></line>
                <line x1="32.3" y1="69.5" x2="62.3" y2="69.5" id="Path" stroke="#394553" stroke-width="3" stroke-linecap="round" stroke-linejoin="round"></line>
                <circle id="Oval" stroke="#394553" stroke-width="3" stroke-linecap="round" stroke-linejoin="round" cx="45" cy="45" r="45"></circle>
                <rect id="Rectangle" stroke="#394553" stroke-width="3" stroke-linecap="round" stroke-linejoin="round" x="61" y="38.5" width="2.4" height="2.4"></rect>
                <path d="M45.5,32.6 C45.5,34.5 43.9,36 42.1,36 C40.2,36 38.7,34.4 38.7,32.6 C38.8,31.9 39,31.1 39.4,30.6 C39.4,30.6 40.4,32.1 41.4,32 C41.4,32 38.9,26.4 42.1,23.7 C42,25.7 42.8,27.7 44.1,29.3 C45.1,30 45.6,31.3 45.5,32.6" id="Path" fill="#FFFFFF" fill-rule="nonzero"></path>
            </g>
        </g>
    </g>
</svg>