<?xml version="1.0" encoding="UTF-8"?>
<svg width="81px" height="89px" viewBox="0 0 81 89" version="1.1" xmlns="http://www.w3.org/2000/svg" xmlns:xlink="http://www.w3.org/1999/xlink">
    <title>duurzaamheid</title>
    <g id="Styleguide" stroke="none" stroke-width="1" fill="none" fill-rule="evenodd">
        <g id="Styles" transform="translate(-324.000000, -3135.000000)">
            <g id="duurzaamheid" transform="translate(326.000000, 3137.000000)">
                <path d="M30.6,40.3 C25,35.1 23.6,24.3 28.4,16.5 C36.1,4 47.4,0 47.4,0 C47.4,0 54.8,10.5 54.9,23.9 C55,34.6 44.9,43.9 36.9,43.2 C36.8,43.2 34.1,43.4 30.6,40.3 Z" id="Path" fill="#2CA982" fill-rule="nonzero"></path>
                <path d="M42.4,15.7 C42.4,15.7 34.5,30.7 37.2,54" id="Path" stroke="#394553" stroke-width="2.5" stroke-linecap="round" stroke-linejoin="round"></path>
                <g id="Group" transform="translate(42.500000, 17.600000)" stroke="#394553" stroke-linecap="round" stroke-linejoin="round" stroke-width="2.5">
                    <path d="M25.6,26.3 L25.6,5.2 C25.6,2.4 27.4,0 30,0 C32.6,0 34.7,2.3 34.7,5.1 L34.7,38.3 L19.5,58.2 C19.5,58.2 17.8,60.1 18.3,67.2" id="Path"></path>
                    <path d="M0,67.4 L0,52 C0,46 7,41.9 7,41.9 C10.2,39.8 13.8,36.1 13.8,36.1 L19.8,29.6 C22.3,26.9 25.8,26.2 27.7,27.9 C29.6,29.6 29.1,33.2 26.6,35.9 L18.2,45" id="Path"></path>
                </g>
                <g id="Group" transform="translate(0.000000, 17.600000)" stroke="#394553" stroke-linecap="round" stroke-linejoin="round" stroke-width="2.5">
                    <path d="M9.1,26.3 L9.1,5.2 C9.1,2.4 7.3,0 4.7,0 C2.1,0 7.10542736e-15,2.3 7.10542736e-15,5.1 L7.10542736e-15,38.3 L15.2,58.2 C15.2,58.2 16.9,60.1 16.4,67.2" id="Path"></path>
                    <path d="M34.7,67.4 L34.7,52 C34.7,46 27.7,41.9 27.7,41.9 C24.5,39.8 20.9,36.1 20.9,36.1 L14.9,29.6 C12.4,26.9 8.9,26.2 7,27.9 C5.1,29.6 5.6,33.2 8.1,35.9 L16.5,45" id="Path"></path>
                </g>
                <path d="M30.6,40.3 C25,35.1 23.6,24.3 28.4,16.5 C36.1,4 47.4,0 47.4,0 C47.4,0 54.8,10.5 54.9,23.9 C55,34.6 44.9,43.9 36.9,43.2 C36.8,43.2 34.1,43.4 30.6,40.3 Z" id="Path" stroke="#394553" stroke-width="2.5" stroke-linecap="round" stroke-linejoin="round"></path>
            </g>
        </g>
    </g>
</svg>