<?xml version="1.0" encoding="UTF-8"?>
<svg width="89px" height="89px" viewBox="0 0 89 89" version="1.1" xmlns="http://www.w3.org/2000/svg" xmlns:xlink="http://www.w3.org/1999/xlink">
    <title>thermo-knop</title>
    <g id="Styleguide" stroke="none" stroke-width="1" fill="none" fill-rule="evenodd" stroke-linecap="round" stroke-linejoin="round">
        <g id="Styles" transform="translate(-564.000000, -3279.000000)" stroke="#394553" stroke-width="3">
            <g id="thermo-knop" transform="translate(566.000000, 3281.000000)">
                <path d="M85,42.5 C85,66 66,85 42.5,85 C19,85 0,66 0,42.5 C0,19 19,0 42.5,0 C66,0 85,19.2 85,42.5 Z" id="Path"></path>
                <circle id="Oval" cx="42.5" cy="10" r="2.8"></circle>
                <path d="M42.5,23.5 C42.5,23.5 53.5,38.8 53.5,43.6 C53.5,48.4 48.6,54.6 42.5,54.6 C36.4,54.6 31.5,48.2 31.5,43.6 C31.5,39 42.5,23.5 42.5,23.5 Z" id="Path" fill="#2CA982" fill-rule="nonzero"></path>
                <path d="M85,42.5 C85,66 66,85 42.5,85 C19,85 0,66 0,42.5 C0,19 19,0 42.5,0 C66,0 85,19.2 85,42.5 Z" id="Path"></path>
                <path d="M42.5,75.2 C34.2,75.2 25.8,72 19.4,65.6 C6.6,52.8 6.6,32.2 19.4,19.4" id="Path"></path>
                <circle id="Oval" cx="65.5" cy="19.1" r="2.8"></circle>
                <circle id="Oval" cx="75" cy="42.5" r="2.8"></circle>
                <circle id="Oval" cx="65.4" cy="65.5" r="2.8"></circle>
                <line x1="42.5" y1="75.2" x2="36.2" y2="68.8" id="Path"></line>
                <line x1="19.5" y1="28.4" x2="19.5" y2="19.4" id="Path"></line>
            </g>
        </g>
    </g>
</svg>