<?xml version="1.0" encoding="UTF-8"?>
<svg width="12px" height="7px" viewBox="0 0 12 7" version="1.1" xmlns="http://www.w3.org/2000/svg" xmlns:xlink="http://www.w3.org/1999/xlink">
    <title>Fill 1 Copy</title>
    <g id="Styleguide" stroke="none" stroke-width="1" fill="none" fill-rule="evenodd">
        <g id="Formulieren-velden" transform="translate(-913.000000, -742.000000)" fill="#647585">
            <g id="Dropdown-open" transform="translate(551.000000, 697.000000)">
                <path d="M368,49.7951073 L372.442104,45.2782858 C372.526313,45.1926602 372.62456,45.1248737 372.736841,45.0749263 C372.849122,45.0249737 372.968419,45 373.094733,45 C373.347366,45 373.5614,45.0891955 373.73684,45.2675865 C373.91228,45.4459723 374,45.6636062 374,45.9204883 C374,46.0489319 373.975439,46.1702357 373.926313,46.2844049 C373.877192,46.3985741 373.810527,46.4984689 373.726312,46.5840997 L368.631577,51.7431193 C368.547368,51.8287466 368.452631,51.8929662 368.347367,51.9357798 C368.242103,51.9785935 368.126316,52 368,52 C367.873684,52 367.757892,51.9785935 367.652633,51.9357798 C367.547369,51.8929662 367.452632,51.8287466 367.368418,51.7431193 L362.294737,46.5840997 C362.196491,46.4984689 362.122807,46.3985741 362.073684,46.2844049 C362.024561,46.1702357 362,46.0489319 362,45.9204883 C362,45.6636062 362.087718,45.4459723 362.263158,45.2675865 C362.438597,45.0891955 362.65263,45 362.905263,45 C363.031579,45 363.150876,45.0249737 363.263158,45.0749263 C363.375439,45.1248737 363.473684,45.1926602 363.557894,45.2782858 L368,49.7951073 Z" id="Fill-1-Copy" transform="translate(368.000000, 48.500000) scale(1, -1) translate(-368.000000, -48.500000) "></path>
            </g>
        </g>
    </g>
</svg>