<?xml version="1.0" encoding="UTF-8"?>
<svg width="74px" height="89px" viewBox="0 0 74 89" version="1.1" xmlns="http://www.w3.org/2000/svg" xmlns:xlink="http://www.w3.org/1999/xlink">
    <title>vaatwasser</title>
    <g id="Styleguide" stroke="none" stroke-width="1" fill="none" fill-rule="evenodd" stroke-linecap="round" stroke-linejoin="round">
        <g id="Styles" transform="translate(-895.000000, -3135.000000)" stroke="#394553" stroke-width="3">
            <g id="vaatwasser" transform="translate(897.000000, 3137.000000)">
                <circle id="Oval" fill="#2CA982" fill-rule="nonzero" cx="60.5" cy="10.1" r="2.8"></circle>
                <circle id="Oval" fill="#2CA982" fill-rule="nonzero" cx="50.1" cy="10.1" r="2.8"></circle>
                <path d="M68.3,85 L2,85 C0.9,85 7.10542736e-15,84.1 7.10542736e-15,83 L7.10542736e-15,2 C7.10542736e-15,0.9 0.9,0 2,0 L68.3,0 C69.4,0 70.3,0.9 70.3,2 L70.3,83 C70.3,84.2 69.4,85 68.3,85 Z" id="Path"></path>
                <path d="M42.7,23.7 L42.7,27.6 C42.7,28.7 41.8,29.6 40.7,29.6 L29.5,29.6 C28.4,29.6 27.5,28.7 27.5,27.6 L27.5,23.7" id="Path" fill="#2CA982" fill-rule="nonzero"></path>
                <path d="M21.9,13.3 L11.1,13.3 C9.3,13.3 7.9,11.8 7.9,10.1 L7.9,10.1 C7.9,8.3 9.4,6.9 11.1,6.9 L21.9,6.9 C23.7,6.9 25.1,8.4 25.1,10.1 L25.1,10.1 C25.1,11.9 23.7,13.3 21.9,13.3 Z" id="Path" fill="#2CA982" fill-rule="nonzero"></path>
                <path d="M0.5,17.3 C0.5,17.3 11.2,22.9 35.2,22.9 C59.2,22.9 69.7,17.3 69.7,17.3" id="Path"></path>
                <line x1="7.10542736e-15" y1="72.9" x2="70.3" y2="72.9" id="Path"></line>
            </g>
        </g>
    </g>
</svg>