<?xml version="1.0" encoding="UTF-8"?>
<svg width="86px" height="89px" viewBox="0 0 86 89" version="1.1" xmlns="http://www.w3.org/2000/svg" xmlns:xlink="http://www.w3.org/1999/xlink">
    <title>Group 15</title>
    <g id="Styleguide" stroke="none" stroke-width="1" fill="none" fill-rule="evenodd">
        <g id="Styles" transform="translate(-297.000000, -2986.000000)">
            <g id="Group-15" transform="translate(299.000000, 2988.000000)">
                <g id="Wandverwarming" stroke="#394553" stroke-linecap="round" stroke-linejoin="round" stroke-width="3">
                    <g id="wandverwarming-icon" transform="translate(40.900000, 42.500000) rotate(-180.000000) translate(-40.900000, -42.500000) ">
                        <path d="M9.4,7.9 L3.1,7.9 C1.4,7.9 0,6.5 0,4.8 C0,3.1 1.4,1.7 3.1,1.7 L9.4,1.7" id="Path" fill="#2CA982"></path>
                        <path d="M51.9,26.8 L12.6,26.8 C9.1,26.8 6.3,29.6 6.3,33.1 C6.3,36.6 9.1,39.4 12.6,39.4 L66.1,39.4 C73,39.4 78.7,45 78.7,52 C78.7,59 73.1,64.6 66.1,64.6 L12.6,64.6 C9.1,64.6 6.3,67.4 6.3,70.9 C6.3,74.4 9.1,77.2 12.6,77.2 L74,77.2 C75.7,77.2 77.1,78.6 77.1,80.3 C77.1,82 75.7,83.4 74,83.4 L12.6,83.4 C5.7,83.4 0,77.8 0,70.8 C0,63.9 5.6,58.2 12.6,58.2 L66.1,58.2 C69.6,58.2 72.4,55.4 72.4,51.9 C72.4,48.4 69.6,45.6 66.1,45.6 L12.6,45.6 C5.7,45.6 0,40 0,33 C0,26.1 5.6,20.4 12.6,20.4 L51.9,20.4" id="Path" fill="#2CA982" fill-rule="nonzero"></path>
                        <path d="M81.8,34.6 L81.8,0 L9.4,0 L9.4,6.3 C9.4,11.5 13.6,15.7 18.8,15.7 L44,15.7 C49.2,15.7 53.4,19.9 53.4,25.1 C53.4,30.3 57.6,34.5 62.8,34.5 L81.8,34.5 L81.8,34.6 Z" id="Path"></path>
                        <line x1="22" y1="85" x2="22" y2="75.6" id="Path"></line>
                        <line x1="22" y1="66.1" x2="22" y2="56.7" id="Path"></line>
                        <line x1="22" y1="47.2" x2="22" y2="37.8" id="Path"></line>
                        <line x1="22" y1="28.4" x2="22" y2="18.9" id="Path"></line>
                        <line x1="51.9" y1="85" x2="51.9" y2="75.6" id="Path"></line>
                        <line x1="51.9" y1="66.1" x2="51.9" y2="56.7" id="Path"></line>
                        <line x1="51.9" y1="47.2" x2="51.9" y2="37.8" id="Path"></line>
                        <line x1="51.9" y1="28.4" x2="51.9" y2="20.5" id="Path"></line>
                    </g>
                </g>
                <line x1="0.5" y1="59.5" x2="28.5" y2="59.5" id="Line-6" stroke="#414C57" stroke-linecap="square"></line>
                <line x1="14.5" y1="59.5" x2="14.5" y2="50.5" id="Line-6-Copy-3" stroke="#414C57" stroke-linecap="square"></line>
                <line x1="15.5" y1="77.5" x2="15.5" y2="68.5" id="Line-6-Copy-6" stroke="#414C57" stroke-linecap="square"></line>
                <line x1="31.5" y1="77.5" x2="31.5" y2="68.5" id="Line-6-Copy-11" stroke="#414C57" stroke-linecap="square"></line>
                <line x1="47.5" y1="77.5" x2="47.5" y2="68.5" id="Line-6-Copy-12" stroke="#414C57" stroke-linecap="square"></line>
                <line x1="63.5" y1="77.5" x2="63.5" y2="68.5" id="Line-6-Copy-13" stroke="#414C57" stroke-linecap="square"></line>
                <line x1="23.5" y1="68.5" x2="23.5" y2="59.5" id="Line-6-Copy-4" stroke="#414C57" stroke-linecap="square"></line>
                <line x1="23.5" y1="85.5" x2="23.5" y2="77.5" id="Line-6-Copy-7" stroke="#414C57" stroke-linecap="square"></line>
                <line x1="39.5" y1="85.5" x2="39.5" y2="77.5" id="Line-6-Copy-9" stroke="#414C57" stroke-linecap="square"></line>
                <line x1="55.5" y1="85.5" x2="55.5" y2="77.5" id="Line-6-Copy-10" stroke="#414C57" stroke-linecap="square"></line>
                <line x1="7.5" y1="68.5" x2="7.5" y2="59.5" id="Line-6-Copy-5" stroke="#414C57" stroke-linecap="square"></line>
                <line x1="7.5" y1="85.5" x2="7.5" y2="77.5" id="Line-6-Copy-8" stroke="#414C57" stroke-linecap="square"></line>
                <line x1="0.5" y1="68.5" x2="49.5" y2="68.5" id="Line-6-Copy" stroke="#414C57" stroke-linecap="square"></line>
                <line x1="0.5" y1="77.5" x2="71.5" y2="77.5" id="Line-6-Copy-2" stroke="#414C57" stroke-linecap="square"></line>
            </g>
        </g>
    </g>
</svg>